AsbirMono-Black.ufo
<glyph name="uni0021" format="2">
  <advance width="600"/>
  <unicode hex="0021"/>
  <outline>
    <contour>
      <point x="218" y="130" type="line"/>
      <point x="350" y="130" type="line"/>
      <point x="350" y="555" type="line"/>
      <point x="218" y="555" type="line"/>
    </contour>
    <contour>
      <point x="316.0" y="35" type="curve"/>
      <point x="316.0" y="71.4507935"/>
      <point x="286.4507935" y="101.0"/>
      <point x="250" y="101.0" type="curve"/>
      <point x="213.5492065" y="101.0"/>
      <point x="184.0" y="71.4507935"/>
      <point x="184.0" y="35" type="curve"/>
      <point x="184.0" y="-1.450793499999996"/>
      <point x="213.5492065" y="-31.0"/>
      <point x="250" y="-31.0" type="curve"/>
      <point x="286.4507935" y="-31.0"/>
      <point x="316.0" y="-1.450793499999996"/>
    </contour>
  </outline>
</glyph>
<glyph name="uni0022" format="2">
  <advance width="600"/>
  <unicode hex="0022"/>
  <outline>
    <contour>
      <point x="220.15578110446847" y="541.5974306202362" type="line"/>
      <point x="180.15578110446847" y="451.59743062023625" type="line"/>
      <point x="119.84421889553151" y="478.40256937976375" type="line"/>
      <point x="159.84421889553153" y="568.4025693797638" type="line"/>
    </contour>
    <contour>
      <point x="340.1557811044685" y="568.4025693797638" type="line"/>
      <point x="380.1557811044685" y="478.40256937976375" type="line"/>
      <point x="319.8442188955315" y="451.59743062023625" type="line"/>
      <point x="279.8442188955315" y="541.5974306202362" type="line"/>
    </contour>
  </outline>
</glyph>
<glyph name="uni0023" format="2">
  <advance width="600"/>
  <unicode hex="0023"/>
  <outline>
    <contour>
      <point x="160" y="80" type="line"/>
      <point x="292" y="80" type="line"/>
      <point x="292" y="620" type="line"/>
      <point x="160" y="620" type="line"/>
    </contour>
    <contour>
      <point x="300" y="80" type="line"/>
      <point x="432" y="80" type="line"/>
      <point x="432" y="620" type="line"/>
      <point x="300" y="620" type="line"/>
    </contour>
    <contour>
      <point x="80" y="240" type="line"/>
      <point x="420" y="240" type="line"/>
      <point x="420" y="372" type="line"/>
      <point x="80" y="372" type="line"/>
    </contour>
    <contour>
      <point x="80" y="400" type="line"/>
      <point x="420" y="400" type="line"/>
      <point x="420" y="532" type="line"/>
      <point x="80" y="532" type="line"/>
    </contour>
  </outline>
</glyph>
<glyph name="uni0025" format="2">
  <advance width="600"/>
  <unicode hex="0025"/>
  <outline>
    <contour>
      <point x="190" y="520" type="curve"/>
      <point x="190" y="550.37566125"/>
      <point x="165.37566125" y="575"/>
      <point x="135" y="575" type="curve"/>
      <point x="104.62433874999999" y="575"/>
      <point x="80" y="550.37566125"/>
      <point x="80" y="520" type="curve"/>
      <point x="80" y="489.62433875"/>
      <point x="104.62433874999999" y="465"/>
      <point x="135" y="465" type="curve"/>
      <point x="165.37566125" y="465"/>
      <point x="190" y="489.62433875"/>
    </contour>
    <contour>
      <point x="420" y="180" type="curve"/>
      <point x="420" y="210.37566125"/>
      <point x="395.37566125" y="235"/>
      <point x="365" y="235" type="curve"/>
      <point x="334.62433875" y="235"/>
      <point x="310" y="210.37566125"/>
      <point x="310" y="180" type="curve"/>
      <point x="310" y="149.62433875"/>
      <point x="334.62433875" y="125"/>
      <point x="365" y="125" type="curve"/>
      <point x="395.37566125" y="125"/>
      <point x="420" y="149.62433875"/>
    </contour>
    <contour>
      <point x="51.40820092437066" y="110.38093285403002" type="line"/>
      <point x="331.40820092437065" y="650.38093285403" type="line"/>
      <point x="448.59179907562935" y="589.61906714597" type="line"/>
      <point x="168.59179907562935" y="49.61906714596998" type="line"/>
    </contour>
  </outline>
</glyph>
<glyph name="uni0026" format="2">
  <advance width="600"/>
  <unicode hex="0026"/>
  <outline>
    <contour>
      <point x="350" y="220" type="curve"/>
      <point x="350" y="319.411255"/>
      <point x="291.7970175" y="400"/>
      <point x="220" y="400" type="curve"/>
      <point x="148.20298250000002" y="400"/>
      <point x="90" y="319.411255"/>
      <point x="90" y="220" type="curve"/>
      <point x="90" y="120.588745"/>
      <point x="148.20298250000002" y="40"/>
      <point x="220" y="40" type="curve"/>
      <point x="291.7970175" y="40"/>
      <point x="350" y="120.588745"/>
    </contour>
    <contour>
      <point x="228" y="220" type="curve"/>
      <point x="228" y="193.490332"/>
      <point x="224.418278" y="172"/>
      <point x="220" y="172" type="curve"/>
      <point x="215.581722" y="172"/>
      <point x="212" y="193.490332"/>
      <point x="212" y="220" type="curve"/>
      <point x="212" y="246.509668"/>
      <point x="215.581722" y="268"/>
      <point x="220" y="268" type="curve"/>
      <point x="224.418278" y="268"/>
      <point x="228" y="246.509668"/>
    </contour>
    <contour>
      <point x="169.4364080000622" y="608.6934383448576" type="line"/>
      <point x="449.43640800006216" y="28.693438344857604" type="line"/>
      <point x="330.56359199993784" y="-28.693438344857604" type="line"/>
      <point x="50.56359199993782" y="551.3065616551424" type="line"/>
    </contour>
    <contour>
      <point x="400" y="520" type="curve"/>
      <point x="400" y="586.27417"/>
      <point x="355.228475" y="640"/>
      <point x="300" y="640" type="curve"/>
      <point x="244.771525" y="640"/>
      <point x="200" y="586.27417"/>
      <point x="200" y="520" type="curve"/>
      <point x="200" y="453.72583"/>
      <point x="244.771525" y="400"/>
      <point x="300" y="400" type="curve"/>
      <point x="355.228475" y="400"/>
      <point x="400" y="453.72583"/>
    </contour>
  </outline>
</glyph>
<glyph name="uni0027" format="2">
  <advance width="600"/>
  <unicode hex="0027"/>
  <outline>
    <contour>
      <point x="280.1557811044685" y="568.4025693797638" type="line"/>
      <point x="320.1557811044685" y="478.40256937976375" type="line"/>
      <point x="259.8442188955315" y="451.59743062023625" type="line"/>
      <point x="219.84421889553153" y="541.5974306202362" type="line"/>
    </contour>
  </outline>
</glyph>
<glyph name="uni002A" format="2">
  <advance width="600"/>
  <unicode hex="002A"/>
  <outline>
    <contour>
      <point x="74.19773239995591" y="195.2435374316068" type="line"/>
      <point x="314.1977323999559" y="575.2435374316068" type="line"/>
      <point x="425.8022676000441" y="504.7564625683932" type="line"/>
      <point x="185.8022676000441" y="124.7564625683932" type="line"/>
    </contour>
    <contour>
      <point x="314.1977323999559" y="124.7564625683932" type="line"/>
      <point x="74.19773239995591" y="504.7564625683932" type="line"/>
      <point x="185.8022676000441" y="575.2435374316068" type="line"/>
      <point x="425.8022676000441" y="195.2435374316068" type="line"/>
    </contour>
    <contour>
      <point x="90" y="330" type="line"/>
      <point x="410" y="330" type="line"/>
      <point x="410" y="462" type="line"/>
      <point x="90" y="462" type="line"/>
    </contour>
  </outline>
</glyph>
<glyph name="uni002B" format="2">
  <advance width="600"/>
  <unicode hex="002B"/>
  <outline>
    <contour>
      <point x="90" y="300" type="line"/>
      <point x="410" y="300" type="line"/>
      <point x="410" y="432" type="line"/>
      <point x="90" y="432" type="line"/>
    </contour>
    <contour>
      <point x="218" y="140" type="line"/>
      <point x="350" y="140" type="line"/>
      <point x="350" y="520" type="line"/>
      <point x="218" y="520" type="line"/>
    </contour>
  </outline>
</glyph>
<glyph name="uni002C" format="2">
  <advance width="600"/>
  <unicode hex="002C"/>
  <outline>
    <contour>
      <point x="316.0" y="35" type="curve"/>
      <point x="316.0" y="71.4507935"/>
      <point x="286.4507935" y="101.0"/>
      <point x="250" y="101.0" type="curve"/>
      <point x="213.5492065" y="101.0"/>
      <point x="184.0" y="71.4507935"/>
      <point x="184.0" y="35" type="curve"/>
      <point x="184.0" y="-1.450793499999996"/>
      <point x="213.5492065" y="-31.0"/>
      <point x="250" y="-31.0" type="curve"/>
      <point x="286.4507935" y="-31.0"/>
      <point x="316.0" y="-1.450793499999996"/>
    </contour>
    <contour>
      <point x="281.4299968575777" y="9.942401005575135" type="line"/>
      <point x="241.4299968575777" y="-115.05759899442486" type="line"/>
      <point x="178.5700031424223" y="-94.94240100557514" type="line"/>
      <point x="218.5700031424223" y="30.057598994424865" type="line"/>
    </contour>
  </outline>
</glyph>
<glyph name="uni002E" format="2">
  <advance width="600"/>
  <unicode hex="002E"/>
  <outline>
    <contour>
      <point x="316.0" y="35" type="curve"/>
      <point x="316.0" y="71.4507935"/>
      <point x="286.4507935" y="101.0"/>
      <point x="250" y="101.0" type="curve"/>
      <point x="213.5492065" y="101.0"/>
      <point x="184.0" y="71.4507935"/>
      <point x="184.0" y="35" type="curve"/>
      <point x="184.0" y="-1.450793499999996"/>
      <point x="213.5492065" y="-31.0"/>
      <point x="250" y="-31.0" type="curve"/>
      <point x="286.4507935" y="-31.0"/>
      <point x="316.0" y="-1.450793499999996"/>
    </contour>
  </outline>
</glyph>
<glyph name="uni002F" format="2">
  <advance width="600"/>
  <unicode hex="002F"/>
  <outline>
    <contour>
      <point x="58.12993204735549" y="22.98031095383939" type="line"/>
      <point x="318.1299320473555" y="722.9803109538394" type="line"/>
      <point x="441.8700679526445" y="677.0196890461606" type="line"/>
      <point x="181.87006795264452" y="-22.98031095383939" type="line"/>
    </contour>
  </outline>
</glyph>
<glyph name="uni0030" format="2">
  <advance width="600"/>
  <unicode hex="0030"/>
  <outline>
    <contour>
      <point x="430" y="350" type="curve" smooth="yes"/>
      <point x="430" y="543.2996625000001"/>
      <point x="349.411255" y="700"/>
      <point x="250" y="700" type="curve" smooth="yes"/>
      <point x="150.58874500000002" y="700"/>
      <point x="70" y="543.2996625000001"/>
      <point x="70" y="350" type="curve" smooth="yes"/>
      <point x="70" y="156.7003375"/>
      <point x="150.58874500000002" y="0"/>
      <point x="250" y="0" type="curve" smooth="yes"/>
      <point x="349.411255" y="0"/>
      <point x="430" y="156.7003375"/>
    </contour>
    <contour>
      <point x="298" y="350" type="curve" smooth="yes"/>
      <point x="298" y="229.6019245"/>
      <point x="276.509668" y="132"/>
      <point x="250" y="132" type="curve" smooth="yes"/>
      <point x="223.490332" y="132"/>
      <point x="202" y="229.6019245"/>
      <point x="202" y="350" type="curve" smooth="yes"/>
      <point x="202" y="470.3980755"/>
      <point x="223.490332" y="568"/>
      <point x="250" y="568" type="curve" smooth="yes"/>
      <point x="276.509668" y="568"/>
      <point x="298" y="470.3980755"/>
    </contour>
  </outline>
</glyph>
<glyph name="uni0031" format="2">
  <advance width="600"/>
  <unicode hex="0031"/>
  <outline>
    <contour>
      <point x="236" y="0" type="curve"/>
      <point x="332" y="0" type="line"/>
      <point x="341.9411255" y="0"/>
      <point x="350" y="8.0588745"/>
      <point x="350" y="18" type="curve"/>
      <point x="350" y="682" type="line"/>
      <point x="350" y="691.9411255"/>
      <point x="341.9411255" y="700"/>
      <point x="332" y="700" type="curve"/>
      <point x="236" y="700" type="line"/>
      <point x="226.0588745" y="700"/>
      <point x="218" y="691.9411255"/>
      <point x="218" y="682" type="curve"/>
      <point x="218" y="18" type="line"/>
      <point x="218" y="8.0588745"/>
      <point x="226.0588745" y="0"/>
    </contour>
    <contour>
      <point x="53.64209141707412" y="601.4531690705045" type="line"/>
      <point x="166.6420914170741" y="741.4531690705045" type="line"/>
      <point x="269.35790858292586" y="658.5468309294955" type="line"/>
      <point x="156.3579085829259" y="518.5468309294955" type="line"/>
    </contour>
    <contour>
      <point x="180" y="0" type="line"/>
      <point x="320" y="0" type="line"/>
      <point x="320" y="72.60000000000001" type="line"/>
      <point x="180" y="72.60000000000001" type="line"/>
    </contour>
    <contour>
      <point x="180" y="627.4" type="line"/>
      <point x="320" y="627.4" type="line"/>
      <point x="320" y="700.0" type="line"/>
      <point x="180" y="700.0" type="line"/>
    </contour>
  </outline>
</glyph>
<glyph name="uni0032" format="2">
  <advance width="600"/>
  <unicode hex="0032"/>
  <outline>
    <contour>
      <point x="85" y="570" type="line"/>
      <point x="107" y="676"/>
      <point x="187" y="720"/>
      <point x="258" y="720" type="curve"/>
      <point x="361" y="720"/>
      <point x="425" y="645"/>
      <point x="425" y="524" type="curve"/>
      <point x="425" y="410"/>
      <point x="305" y="240"/>
      <point x="142" y="64" type="curve"/>
      <point x="425" y="64" type="line"/>
      <point x="425" y="0" type="line"/>
      <point x="75" y="0" type="line"/>
      <point x="253" y="198"/>
      <point x="361" y="370"/>
      <point x="361" y="521" type="curve"/>
      <point x="361" y="610"/>
      <point x="326" y="656"/>
      <point x="258" y="656" type="curve"/>
      <point x="208" y="656"/>
      <point x="161" y="625"/>
      <point x="149" y="570" type="curve"/>
    </contour>
  </outline>
</glyph>
<glyph name="uni0033" format="2">
  <advance width="600"/>
  <unicode hex="0033"/>
  <outline>
    <contour>
      <point x="372.8" y="686.8" type="line"/>
      <point x="283.8" y="710.56"/>
      <point x="100.8" y="689.44"/>
      <point x="94.2" y="434.0" type="curve"/>
      <point x="87.6" y="357.0"/>
      <point x="229.72" y="360.56"/>
      <point x="246.62" y="350" type="curve"/>
      <point x="283.8" y="266.0"/>
      <point x="413.72" y="329.0"/>
      <point x="408.44" y="203.0" type="curve"/>
      <point x="403.16" y="6.6000000000000005"/>
      <point x="209.44" y="-7.92"/>
      <point x="87.6" y="18.48" type="curve"/>
      <point x="102.12" y="129.35999999999999" type="line"/>
      <point x="216.2" y="81.84"/>
      <point x="333.2" y="112.2"/>
      <point x="342.44" y="189.0" type="curve"/>
      <point x="347.72" y="315.0"/>
      <point x="266.9" y="308.0"/>
      <point x="236.48" y="353.96" type="curve"/>
      <point x="192.54" y="369.8"/>
      <point x="141.72" y="365.84"/>
      <point x="149.64" y="448.0" type="curve"/>
      <point x="157.56" y="618.16"/>
      <point x="277.04" y="640.6"/>
      <point x="376.76" y="570.64" type="curve"/>
    </contour>
    <contour>
      <point x="251" y="316" type="curve"/>
      <point x="339" y="316" type="line"/>
      <point x="347.836556" y="316"/>
      <point x="355" y="323.163444"/>
      <point x="355" y="332" type="curve"/>
      <point x="355" y="432" type="line"/>
      <point x="355" y="440.836556"/>
      <point x="347.836556" y="448"/>
      <point x="339" y="448" type="curve"/>
      <point x="251" y="448" type="line"/>
      <point x="242.163444" y="448"/>
      <point x="235" y="440.836556"/>
      <point x="235" y="432" type="curve"/>
      <point x="235" y="332" type="line"/>
      <point x="235" y="323.163444"/>
      <point x="242.163444" y="316"/>
    </contour>
  </outline>
</glyph>
<glyph name="uni0034" format="2">
  <advance width="600"/>
  <unicode hex="0034"/>
  <outline>
    <contour>
      <point x="236" y="0" type="curve"/>
      <point x="332" y="0" type="line"/>
      <point x="341.9411255" y="0"/>
      <point x="350" y="8.0588745"/>
      <point x="350" y="18" type="curve"/>
      <point x="350" y="682" type="line"/>
      <point x="350" y="691.9411255"/>
      <point x="341.9411255" y="700"/>
      <point x="332" y="700" type="curve"/>
      <point x="236" y="700" type="line"/>
      <point x="226.0588745" y="700"/>
      <point x="218" y="691.9411255"/>
      <point x="218" y="682" type="curve"/>
      <point x="218" y="18" type="line"/>
      <point x="218" y="8.0588745"/>
      <point x="226.0588745" y="0"/>
    </contour>
    <contour>
      <point x="18.821510327271547" y="304.76272201039006" type="line"/>
      <point x="188.82151032727154" y="724.7627220103901" type="line"/>
      <point x="311.17848967272846" y="675.2372779896099" type="line"/>
      <point x="141.17848967272846" y="255.2372779896099" type="line"/>
    </contour>
    <contour>
      <point x="96" y="280" type="curve"/>
      <point x="394" y="280" type="line"/>
      <point x="402.836556" y="280"/>
      <point x="410" y="287.163444"/>
      <point x="410" y="296" type="curve"/>
      <point x="410" y="396" type="line"/>
      <point x="410" y="404.836556"/>
      <point x="402.836556" y="412"/>
      <point x="394" y="412" type="curve"/>
      <point x="96" y="412" type="line"/>
      <point x="87.163444" y="412"/>
      <point x="80" y="404.836556"/>
      <point x="80" y="396" type="curve"/>
      <point x="80" y="296" type="line"/>
      <point x="80" y="287.163444"/>
      <point x="87.163444" y="280"/>
    </contour>
  </outline>
</glyph>
<glyph name="uni0036" format="2">
  <advance width="600"/>
  <unicode hex="0036"/>
  <outline>
    <contour>
      <point x="425" y="190" type="curve"/>
      <point x="425" y="294.9341025"/>
      <point x="346.64983125000003" y="380"/>
      <point x="250" y="380" type="curve"/>
      <point x="153.35016875" y="380"/>
      <point x="75" y="294.9341025"/>
      <point x="75" y="190" type="curve"/>
      <point x="75" y="85.0658975"/>
      <point x="153.35016875" y="0"/>
      <point x="250" y="0" type="curve"/>
      <point x="346.64983125000003" y="0"/>
      <point x="425" y="85.0658975"/>
    </contour>
    <contour>
      <point x="293" y="190" type="curve"/>
      <point x="293" y="157.9674845"/>
      <point x="273.74824424999997" y="132"/>
      <point x="250" y="132" type="curve"/>
      <point x="226.25175575" y="132"/>
      <point x="207" y="157.9674845"/>
      <point x="207" y="190" type="curve"/>
      <point x="207" y="222.0325155"/>
      <point x="226.25175575" y="248"/>
      <point x="250" y="248" type="curve"/>
      <point x="273.74824424999997" y="248"/>
      <point x="293" y="222.0325155"/>
    </contour>
    <contour>
      <point x="75" y="190" type="line"/>
      <point x="75" y="505"/>
      <point x="188" y="710"/>
      <point x="352" y="710" type="curve"/>
      <point x="385" y="646" type="line"/>
      <point x="250" y="636"/>
      <point x="139" y="492"/>
      <point x="139" y="220" type="curve"/>
    </contour>
  </outline>
</glyph>
<glyph name="uni0037" format="2">
  <advance width="600"/>
  <unicode hex="0037"/>
  <outline>
    <contour>
      <point x="86" y="568" type="curve"/>
      <point x="414" y="568" type="line"/>
      <point x="422.836556" y="568"/>
      <point x="430" y="575.163444"/>
      <point x="430" y="584" type="curve"/>
      <point x="430" y="684" type="line"/>
      <point x="430" y="692.836556"/>
      <point x="422.836556" y="700"/>
      <point x="414" y="700" type="curve"/>
      <point x="86" y="700" type="line"/>
      <point x="77.163444" y="700"/>
      <point x="70" y="692.836556"/>
      <point x="70" y="684" type="curve"/>
      <point x="70" y="584" type="line"/>
      <point x="70" y="575.163444"/>
      <point x="77.163444" y="568"/>
    </contour>
    <contour>
      <point x="471.7254085441005" y="610.6339147467128" type="line"/>
      <point x="231.72540854410047" y="-23.36608525328725" type="line"/>
      <point x="108.27459145589953" y="23.36608525328725" type="line"/>
      <point x="348.2745914558995" y="657.3660852532872" type="line"/>
    </contour>
  </outline>
</glyph>
<glyph name="uni0038" format="2">
  <advance width="600"/>
  <unicode hex="0038"/>
  <outline>
    <contour>
      <point x="415" y="525" type="curve"/>
      <point x="415" y="613.36556"/>
      <point x="341.12698375" y="685"/>
      <point x="250" y="685" type="curve"/>
      <point x="158.87301625" y="685"/>
      <point x="85" y="613.36556"/>
      <point x="85" y="525" type="curve"/>
      <point x="85" y="436.63444"/>
      <point x="158.87301625" y="365"/>
      <point x="250" y="365" type="curve"/>
      <point x="341.12698375" y="365"/>
      <point x="415" y="436.63444"/>
    </contour>
    <contour>
      <point x="283" y="525" type="curve"/>
      <point x="283" y="509.536027"/>
      <point x="268.22539675" y="497"/>
      <point x="250" y="497" type="curve"/>
      <point x="231.77460325" y="497"/>
      <point x="217" y="509.536027"/>
      <point x="217" y="525" type="curve"/>
      <point x="217" y="540.463973"/>
      <point x="231.77460325" y="553"/>
      <point x="250" y="553" type="curve"/>
      <point x="268.22539675" y="553"/>
      <point x="283" y="540.463973"/>
    </contour>
    <contour>
      <point x="415" y="175" type="curve"/>
      <point x="415" y="263.36556"/>
      <point x="341.12698375" y="335"/>
      <point x="250" y="335" type="curve"/>
      <point x="158.87301625" y="335"/>
      <point x="85" y="263.36556"/>
      <point x="85" y="175" type="curve"/>
      <point x="85" y="86.63444"/>
      <point x="158.87301625" y="15"/>
      <point x="250" y="15" type="curve"/>
      <point x="341.12698375" y="15"/>
      <point x="415" y="86.63444"/>
    </contour>
    <contour>
      <point x="283" y="175" type="curve"/>
      <point x="283" y="159.536027"/>
      <point x="268.22539675" y="147"/>
      <point x="250" y="147" type="curve"/>
      <point x="231.77460325" y="147"/>
      <point x="217" y="159.536027"/>
      <point x="217" y="175" type="curve"/>
      <point x="217" y="190.463973"/>
      <point x="231.77460325" y="203"/>
      <point x="250" y="203" type="curve"/>
      <point x="268.22539675" y="203"/>
      <point x="283" y="190.463973"/>
    </contour>
  </outline>
</glyph>
<glyph name="uni0039" format="2">
  <advance width="600"/>
  <unicode hex="0039"/>
  <outline>
    <contour>
      <point x="425" y="510" type="curve"/>
      <point x="425" y="614.9341025"/>
      <point x="346.64983125000003" y="700"/>
      <point x="250" y="700" type="curve"/>
      <point x="153.35016875" y="700"/>
      <point x="75" y="614.9341025"/>
      <point x="75" y="510" type="curve"/>
      <point x="75" y="405.0658975"/>
      <point x="153.35016875" y="320"/>
      <point x="250" y="320" type="curve"/>
      <point x="346.64983125000003" y="320"/>
      <point x="425" y="405.0658975"/>
    </contour>
    <contour>
      <point x="293" y="510" type="curve"/>
      <point x="293" y="477.9674845"/>
      <point x="273.74824424999997" y="452"/>
      <point x="250" y="452" type="curve"/>
      <point x="226.25175575" y="452"/>
      <point x="207" y="477.9674845"/>
      <point x="207" y="510" type="curve"/>
      <point x="207" y="542.0325155"/>
      <point x="226.25175575" y="568"/>
      <point x="250" y="568" type="curve"/>
      <point x="273.74824424999997" y="568"/>
      <point x="293" y="542.0325155"/>
    </contour>
    <contour>
      <point x="425" y="510" type="line"/>
      <point x="425" y="194"/>
      <point x="312" y="-10"/>
      <point x="148" y="-10" type="curve"/>
      <point x="115" y="54" type="line"/>
      <point x="250" y="64"/>
      <point x="361" y="208"/>
      <point x="361" y="480" type="curve"/>
    </contour>
  </outline>
</glyph>
<glyph name="uni003A" format="2">
  <advance width="600"/>
  <unicode hex="003A"/>
  <outline>
    <contour>
      <point x="316.0" y="390" type="curve"/>
      <point x="316.0" y="426.4507935"/>
      <point x="286.4507935" y="456.0"/>
      <point x="250" y="456.0" type="curve"/>
      <point x="213.5492065" y="456.0"/>
      <point x="184.0" y="426.4507935"/>
      <point x="184.0" y="390" type="curve"/>
      <point x="184.0" y="353.5492065"/>
      <point x="213.5492065" y="324.0"/>
      <point x="250" y="324.0" type="curve"/>
      <point x="286.4507935" y="324.0"/>
      <point x="316.0" y="353.5492065"/>
    </contour>
    <contour>
      <point x="316.0" y="35" type="curve"/>
      <point x="316.0" y="71.4507935"/>
      <point x="286.4507935" y="101.0"/>
      <point x="250" y="101.0" type="curve"/>
      <point x="213.5492065" y="101.0"/>
      <point x="184.0" y="71.4507935"/>
      <point x="184.0" y="35" type="curve"/>
      <point x="184.0" y="-1.450793499999996"/>
      <point x="213.5492065" y="-31.0"/>
      <point x="250" y="-31.0" type="curve"/>
      <point x="286.4507935" y="-31.0"/>
      <point x="316.0" y="-1.450793499999996"/>
    </contour>
  </outline>
</glyph>
<glyph name="uni003F" format="2">
  <advance width="600"/>
  <unicode hex="003F"/>
  <outline>
    <contour>
      <point x="105" y="423" type="line"/>
      <point x="355" y="423" type="line"/>
      <point x="355" y="555" type="line"/>
      <point x="105" y="555" type="line"/>
    </contour>
    <contour>
      <point x="223" y="300" type="line"/>
      <point x="355" y="300" type="line"/>
      <point x="355" y="555" type="line"/>
      <point x="223" y="555" type="line"/>
    </contour>
    <contour>
      <point x="215" y="190" type="line"/>
      <point x="347" y="190" type="line"/>
      <point x="347" y="300" type="line"/>
      <point x="215" y="300" type="line"/>
    </contour>
    <contour>
      <point x="316.0" y="35" type="curve"/>
      <point x="316.0" y="71.4507935"/>
      <point x="286.4507935" y="101.0"/>
      <point x="250" y="101.0" type="curve"/>
      <point x="213.5492065" y="101.0"/>
      <point x="184.0" y="71.4507935"/>
      <point x="184.0" y="35" type="curve"/>
      <point x="184.0" y="-1.450793499999996"/>
      <point x="213.5492065" y="-31.0"/>
      <point x="250" y="-31.0" type="curve"/>
      <point x="286.4507935" y="-31.0"/>
      <point x="316.0" y="-1.450793499999996"/>
    </contour>
  </outline>
</glyph>
<glyph name="uni0040" format="2">
  <advance width="600"/>
  <unicode hex="0040"/>
  <outline>
    <contour>
      <point x="460" y="350" type="curve"/>
      <point x="460" y="504.63973"/>
      <point x="365.9797975" y="630"/>
      <point x="250" y="630" type="curve"/>
      <point x="134.02020249999998" y="630"/>
      <point x="40" y="504.63973"/>
      <point x="40" y="350" type="curve"/>
      <point x="40" y="195.36027"/>
      <point x="134.02020249999998" y="70"/>
      <point x="250" y="70" type="curve"/>
      <point x="365.9797975" y="70"/>
      <point x="460" y="195.36027"/>
    </contour>
    <contour>
      <point x="328" y="350" type="curve"/>
      <point x="328" y="268.261857"/>
      <point x="293.0782105" y="202"/>
      <point x="250" y="202" type="curve"/>
      <point x="206.9217895" y="202"/>
      <point x="172" y="268.261857"/>
      <point x="172" y="350" type="curve"/>
      <point x="172" y="431.738143"/>
      <point x="206.9217895" y="498"/>
      <point x="250" y="498" type="curve"/>
      <point x="293.0782105" y="498"/>
      <point x="328" y="431.738143"/>
    </contour>
    <contour>
      <point x="360" y="350" type="curve"/>
      <point x="360" y="416.27417"/>
      <point x="315.228475" y="470"/>
      <point x="260" y="470" type="curve"/>
      <point x="204.771525" y="470"/>
      <point x="160" y="416.27417"/>
      <point x="160" y="350" type="curve"/>
      <point x="160" y="283.72583"/>
      <point x="204.771525" y="230"/>
      <point x="260" y="230" type="curve"/>
      <point x="315.228475" y="230"/>
      <point x="360" y="283.72583"/>
    </contour>
    <contour>
      <point x="268" y="350" type="curve"/>
      <point x="268" y="345.581722"/>
      <point x="264.418278" y="342"/>
      <point x="260" y="342" type="curve"/>
      <point x="255.581722" y="342"/>
      <point x="252" y="345.581722"/>
      <point x="252" y="350" type="curve"/>
      <point x="252" y="354.418278"/>
      <point x="255.581722" y="358"/>
      <point x="260" y="358" type="curve"/>
      <point x="264.418278" y="358"/>
      <point x="268" y="354.418278"/>
    </contour>
    <contour>
      <point x="320" y="290" type="line"/>
      <point x="452" y="290" type="line"/>
      <point x="452" y="440" type="line"/>
      <point x="320" y="440" type="line"/>
    </contour>
  </outline>
</glyph>
<glyph name="A" format="2">
  <advance width="600"/>
  <unicode hex="0041"/>
  <outline>
    <contour>
      <point x="7.42748319245031" y="13.652474982167648" type="line"/>
      <point x="155.42748319245032" y="713.6524749821676" type="line"/>
      <point x="284.5725168075497" y="686.3475250178324" type="line"/>
      <point x="136.57251680754968" y="-13.652474982167648" type="line"/>
    </contour>
    <contour>
      <point x="363.4274831924503" y="-13.652474982167648" type="line"/>
      <point x="215.42748319245032" y="686.3475250178324" type="line"/>
      <point x="344.5725168075497" y="713.6524749821676" type="line"/>
      <point x="492.5725168075497" y="13.652474982167648" type="line"/>
    </contour>
    <contour>
      <point x="167" y="286" type="curve"/>
      <point x="333" y="286" type="line"/>
      <point x="341.836556" y="286"/>
      <point x="349" y="293.163444"/>
      <point x="349" y="302" type="curve"/>
      <point x="349" y="378.24" type="line"/>
      <point x="349" y="387.076556"/>
      <point x="341.836556" y="394.24"/>
      <point x="333" y="394.24" type="curve"/>
      <point x="167" y="394.24" type="line"/>
      <point x="158.163444" y="394.24"/>
      <point x="151" y="387.076556"/>
      <point x="151" y="378.24" type="curve"/>
      <point x="151" y="302" type="line"/>
      <point x="151" y="293.163444"/>
      <point x="158.163444" y="286"/>
    </contour>
  </outline>
</glyph>
<glyph name="B" format="2">
  <advance width="600"/>
  <unicode hex="0042"/>
  <outline>
    <contour>
      <point x="40" y="0" type="line"/>
      <point x="172" y="0" type="line"/>
      <point x="172" y="700" type="line"/>
      <point x="40" y="700" type="line"/>
    </contour>
    <contour>
      <point x="435" y="525" type="curve"/>
      <point x="435" y="613.36556"/>
      <point x="349.9341025" y="685"/>
      <point x="245" y="685" type="curve"/>
      <point x="140.0658975" y="685"/>
      <point x="55" y="613.36556"/>
      <point x="55" y="525" type="curve"/>
      <point x="55" y="436.63444"/>
      <point x="140.0658975" y="365"/>
      <point x="245" y="365" type="curve"/>
      <point x="349.9341025" y="365"/>
      <point x="435" y="436.63444"/>
    </contour>
    <contour>
      <point x="303" y="525" type="curve"/>
      <point x="303" y="509.536027"/>
      <point x="277.0325155" y="497"/>
      <point x="245" y="497" type="curve"/>
      <point x="212.9674845" y="497"/>
      <point x="187" y="509.536027"/>
      <point x="187" y="525" type="curve"/>
      <point x="187" y="540.463973"/>
      <point x="212.9674845" y="553"/>
      <point x="245" y="553" type="curve"/>
      <point x="277.0325155" y="553"/>
      <point x="303" y="540.463973"/>
    </contour>
    <contour>
      <point x="435" y="175" type="curve"/>
      <point x="435" y="263.36556"/>
      <point x="349.9341025" y="335"/>
      <point x="245" y="335" type="curve"/>
      <point x="140.0658975" y="335"/>
      <point x="55" y="263.36556"/>
      <point x="55" y="175" type="curve"/>
      <point x="55" y="86.63444"/>
      <point x="140.0658975" y="15"/>
      <point x="245" y="15" type="curve"/>
      <point x="349.9341025" y="15"/>
      <point x="435" y="86.63444"/>
    </contour>
    <contour>
      <point x="303" y="175" type="curve"/>
      <point x="303" y="159.536027"/>
      <point x="277.0325155" y="147"/>
      <point x="245" y="147" type="curve"/>
      <point x="212.9674845" y="147"/>
      <point x="187" y="159.536027"/>
      <point x="187" y="175" type="curve"/>
      <point x="187" y="190.463973"/>
      <point x="212.9674845" y="203"/>
      <point x="245" y="203" type="curve"/>
      <point x="277.0325155" y="203"/>
      <point x="303" y="190.463973"/>
    </contour>
  </outline>
</glyph>
<glyph name="C" format="2">
  <advance width="600"/>
  <unicode hex="0043"/>
  <outline>
    <contour>
      <point x="411.0" y="588.0" type="line"/>
      <point x="353.76" y="700"/>
      <point x="162.96" y="700"/>
      <point x="40" y="500.5" type="curve"/>
      <point x="40" y="199.5"/>
      <point x="162.96" y="0"/>
      <point x="353.76" y="0" type="curve"/>
      <point x="406.76" y="87.5"/>
      <point x="411.0" y="147.0"/>
      <point x="411.0" y="175.0" type="curve"/>
      <point x="312.0" y="213.5" type="line"/>
      <point x="332.56" y="132"/>
      <point x="172" y="238.0"/>
      <point x="172" y="350" type="curve"/>
      <point x="172" y="462.0"/>
      <point x="332.56" y="568"/>
      <point x="312.0" y="486.5" type="curve"/>
    </contour>
  </outline>
</glyph>
<glyph name="D" format="2">
  <advance width="600"/>
  <unicode hex="0044"/>
  <outline>
    <contour>
      <point x="460" y="350" type="curve"/>
      <point x="460" y="543.2996625000001"/>
      <point x="365.9797975" y="700"/>
      <point x="250" y="700" type="curve"/>
      <point x="134.02020249999998" y="700"/>
      <point x="40" y="543.2996625000001"/>
      <point x="40" y="350" type="curve"/>
      <point x="40" y="156.7003375"/>
      <point x="134.02020249999998" y="0"/>
      <point x="250" y="0" type="curve"/>
      <point x="365.9797975" y="0"/>
      <point x="460" y="156.7003375"/>
    </contour>
    <contour>
      <point x="328" y="350" type="curve"/>
      <point x="328" y="229.6019245"/>
      <point x="293.0782105" y="132"/>
      <point x="250" y="132" type="curve"/>
      <point x="206.9217895" y="132"/>
      <point x="172" y="229.6019245"/>
      <point x="172" y="350" type="curve"/>
      <point x="172" y="470.3980755"/>
      <point x="206.9217895" y="568"/>
      <point x="250" y="568" type="curve"/>
      <point x="293.0782105" y="568"/>
      <point x="328" y="470.3980755"/>
    </contour>
    <contour>
      <point x="40" y="0" type="line"/>
      <point x="172" y="0" type="line"/>
      <point x="172" y="700" type="line"/>
      <point x="40" y="700" type="line"/>
    </contour>
  </outline>
</glyph>
<glyph name="E" format="2">
  <advance width="600"/>
  <unicode hex="0045"/>
  <outline>
    <contour>
      <point x="40" y="0" type="line"/>
      <point x="172" y="0" type="line"/>
      <point x="172" y="700" type="line"/>
      <point x="40" y="700" type="line"/>
    </contour>
    <contour>
      <point x="40" y="568" type="line"/>
      <point x="430" y="568" type="line"/>
      <point x="430" y="700" type="line"/>
      <point x="40" y="700" type="line"/>
    </contour>
    <contour>
      <point x="40" y="310" type="line"/>
      <point x="350" y="310" type="line"/>
      <point x="350" y="442" type="line"/>
      <point x="40" y="442" type="line"/>
    </contour>
    <contour>
      <point x="40" y="0" type="line"/>
      <point x="430" y="0" type="line"/>
      <point x="430" y="132" type="line"/>
      <point x="40" y="132" type="line"/>
    </contour>
  </outline>
</glyph>
<glyph name="F" format="2">
  <advance width="600"/>
  <unicode hex="0046"/>
  <outline>
    <contour>
      <point x="40" y="0" type="line"/>
      <point x="172" y="0" type="line"/>
      <point x="172" y="700" type="line"/>
      <point x="40" y="700" type="line"/>
    </contour>
    <contour>
      <point x="40" y="568" type="line"/>
      <point x="430" y="568" type="line"/>
      <point x="430" y="700" type="line"/>
      <point x="40" y="700" type="line"/>
    </contour>
    <contour>
      <point x="40" y="310" type="line"/>
      <point x="310" y="310" type="line"/>
      <point x="310" y="442" type="line"/>
      <point x="40" y="442" type="line"/>
    </contour>
  </outline>
</glyph>
<glyph name="H" format="2">
  <advance width="600"/>
  <unicode hex="0048"/>
  <outline>
    <contour>
      <point x="40" y="0" type="line"/>
      <point x="172" y="0" type="line"/>
      <point x="172" y="700" type="line"/>
      <point x="40" y="700" type="line"/>
    </contour>
    <contour>
      <point x="396" y="0" type="line"/>
      <point x="528" y="0" type="line"/>
      <point x="528" y="700" type="line"/>
      <point x="396" y="700" type="line"/>
    </contour>
    <contour>
      <point x="40" y="320" type="line"/>
      <point x="460" y="320" type="line"/>
      <point x="460" y="452" type="line"/>
      <point x="40" y="452" type="line"/>
    </contour>
  </outline>
</glyph>
<glyph name="I" format="2">
  <advance width="600"/>
  <unicode hex="0049"/>
  <outline>
    <contour>
      <point x="218" y="0" type="line"/>
      <point x="350" y="0" type="line"/>
      <point x="350" y="700" type="line"/>
      <point x="218" y="700" type="line"/>
    </contour>
    <contour>
      <point x="180" y="0" type="line"/>
      <point x="320" y="0" type="line"/>
      <point x="320" y="72.60000000000001" type="line"/>
      <point x="180" y="72.60000000000001" type="line"/>
    </contour>
    <contour>
      <point x="180" y="627.4" type="line"/>
      <point x="320" y="627.4" type="line"/>
      <point x="320" y="700.0" type="line"/>
      <point x="180" y="700.0" type="line"/>
    </contour>
  </outline>
</glyph>
<glyph name="J" format="2">
  <advance width="600"/>
  <unicode hex="004A"/>
  <outline>
    <contour>
      <point x="363" y="150" type="curve"/>
      <point x="459" y="150" type="line"/>
      <point x="468.9411255" y="150"/>
      <point x="477" y="158.0588745"/>
      <point x="477" y="168" type="curve"/>
      <point x="477" y="682" type="line"/>
      <point x="477" y="691.9411255"/>
      <point x="468.9411255" y="700"/>
      <point x="459" y="700" type="curve"/>
      <point x="363" y="700" type="line"/>
      <point x="353.0588745" y="700"/>
      <point x="345" y="691.9411255"/>
      <point x="345" y="682" type="curve"/>
      <point x="345" y="168" type="line"/>
      <point x="345" y="158.0588745"/>
      <point x="353.0588745" y="150"/>
    </contour>
    <contour>
      <point x="409" y="150" type="line"/>
      <point x="409" y="42"/>
      <point x="328" y="-8"/>
      <point x="218" y="-8" type="curve"/>
      <point x="110" y="-8"/>
      <point x="48" y="47"/>
      <point x="48" y="160" type="curve"/>
      <point x="112" y="160" type="line"/>
      <point x="112" y="85"/>
      <point x="147" y="54"/>
      <point x="218" y="54" type="curve"/>
      <point x="286" y="54"/>
      <point x="345" y="83"/>
      <point x="345" y="150" type="curve"/>
    </contour>
  </outline>
</glyph>
<glyph name="K" format="2">
  <advance width="600"/>
  <unicode hex="004B"/>
  <outline>
    <contour>
      <point x="40" y="0" type="line"/>
      <point x="172" y="0" type="line"/>
      <point x="172" y="700" type="line"/>
      <point x="40" y="700" type="line"/>
    </contour>
    <contour>
      <point x="478.29550912558517" y="655.0161829287407" type="line"/>
      <point x="152.29550912558517" y="305.0161829287407" type="line"/>
      <point x="55.704490874414844" y="394.9838170712593" type="line"/>
      <point x="381.70449087441483" y="744.9838170712593" type="line"/>
    </contour>
    <contour>
      <point x="151.6115631880428" y="395.70710066052106" type="line"/>
      <point x="487.6115631880428" y="45.70710066052109" type="line"/>
      <point x="392.3884368119572" y="-45.70710066052109" type="line"/>
      <point x="56.38843681195719" y="304.29289933947894" type="line"/>
    </contour>
  </outline>
</glyph>
<glyph name="M" format="2">
  <advance width="600"/>
  <unicode hex="004D"/>
  <outline>
    <contour>
      <point x="40" y="0" type="line"/>
      <point x="172" y="0" type="line"/>
      <point x="172" y="700" type="line"/>
      <point x="40" y="700" type="line"/>
    </contour>
    <contour>
      <point x="430" y="0" type="line"/>
      <point x="562" y="0" type="line"/>
      <point x="562" y="700" type="line"/>
      <point x="430" y="700" type="line"/>
    </contour>
    <contour>
      <point x="164.91277389227923" y="725.4093285379222" type="line"/>
      <point x="310.91277389227923" y="375.4093285379222" type="line"/>
      <point x="189.08722610772077" y="324.5906714620778" type="line"/>
      <point x="43.08722610772078" y="674.5906714620778" type="line"/>
    </contour>
    <contour>
      <point x="456.91277389227923" y="674.5906714620778" type="line"/>
      <point x="310.91277389227923" y="324.5906714620778" type="line"/>
      <point x="189.08722610772077" y="375.4093285379222" type="line"/>
      <point x="335.08722610772077" y="725.4093285379222" type="line"/>
    </contour>
  </outline>
</glyph>
<glyph name="N" format="2">
  <advance width="600"/>
  <unicode hex="004E"/>
  <outline>
    <contour>
      <point x="40" y="0" type="line"/>
      <point x="172" y="0" type="line"/>
      <point x="172" y="700" type="line"/>
      <point x="40" y="700" type="line"/>
    </contour>
    <contour>
      <point x="396" y="0" type="line"/>
      <point x="528" y="0" type="line"/>
      <point x="528" y="700" type="line"/>
      <point x="396" y="700" type="line"/>
    </contour>
    <contour>
      <point x="164.91277389227923" y="725.4093285379222" type="line"/>
      <point x="456.91277389227923" y="25.40932853792219" type="line"/>
      <point x="335.08722610772077" y="-25.40932853792219" type="line"/>
      <point x="43.08722610772078" y="674.5906714620778" type="line"/>
    </contour>
  </outline>
</glyph>
<glyph name="O" format="2">
  <advance width="600"/>
  <unicode hex="004F"/>
  <outline>
    <contour>
      <point x="460" y="350" type="curve"/>
      <point x="460" y="543.2996625000001"/>
      <point x="365.9797975" y="700"/>
      <point x="250" y="700" type="curve"/>
      <point x="134.02020249999998" y="700"/>
      <point x="40" y="543.2996625000001"/>
      <point x="40" y="350" type="curve"/>
      <point x="40" y="156.7003375"/>
      <point x="134.02020249999998" y="0"/>
      <point x="250" y="0" type="curve"/>
      <point x="365.9797975" y="0"/>
      <point x="460" y="156.7003375"/>
    </contour>
    <contour>
      <point x="328" y="350" type="curve"/>
      <point x="328" y="229.6019245"/>
      <point x="293.0782105" y="132"/>
      <point x="250" y="132" type="curve"/>
      <point x="206.9217895" y="132"/>
      <point x="172" y="229.6019245"/>
      <point x="172" y="350" type="curve"/>
      <point x="172" y="470.3980755"/>
      <point x="206.9217895" y="568"/>
      <point x="250" y="568" type="curve"/>
      <point x="293.0782105" y="568"/>
      <point x="328" y="470.3980755"/>
    </contour>
    <contour>
      <point x="160" y="306" type="line"/>
      <point x="340" y="306" type="line"/>
      <point x="340" y="393.12" type="line"/>
      <point x="160" y="393.12" type="line"/>
    </contour>
  </outline>
</glyph>
<glyph name="P" format="2">
  <advance width="600"/>
  <unicode hex="0050"/>
  <outline>
    <contour>
      <point x="40" y="0" type="line"/>
      <point x="172" y="0" type="line"/>
      <point x="172" y="700" type="line"/>
      <point x="40" y="700" type="line"/>
    </contour>
    <contour>
      <point x="435" y="525" type="curve"/>
      <point x="435" y="613.36556"/>
      <point x="349.9341025" y="685"/>
      <point x="245" y="685" type="curve"/>
      <point x="140.0658975" y="685"/>
      <point x="55" y="613.36556"/>
      <point x="55" y="525" type="curve"/>
      <point x="55" y="436.63444"/>
      <point x="140.0658975" y="365"/>
      <point x="245" y="365" type="curve"/>
      <point x="349.9341025" y="365"/>
      <point x="435" y="436.63444"/>
    </contour>
    <contour>
      <point x="303" y="525" type="curve"/>
      <point x="303" y="509.536027"/>
      <point x="277.0325155" y="497"/>
      <point x="245" y="497" type="curve"/>
      <point x="212.9674845" y="497"/>
      <point x="187" y="509.536027"/>
      <point x="187" y="525" type="curve"/>
      <point x="187" y="540.463973"/>
      <point x="212.9674845" y="553"/>
      <point x="245" y="553" type="curve"/>
      <point x="277.0325155" y="553"/>
      <point x="303" y="540.463973"/>
    </contour>
  </outline>
</glyph>
<glyph name="Q" format="2">
  <advance width="600"/>
  <unicode hex="0051"/>
  <outline>
    <contour>
      <point x="460" y="350" type="curve"/>
      <point x="460" y="543.2996625000001"/>
      <point x="365.9797975" y="700"/>
      <point x="250" y="700" type="curve"/>
      <point x="134.02020249999998" y="700"/>
      <point x="40" y="543.2996625000001"/>
      <point x="40" y="350" type="curve"/>
      <point x="40" y="156.7003375"/>
      <point x="134.02020249999998" y="0"/>
      <point x="250" y="0" type="curve"/>
      <point x="365.9797975" y="0"/>
      <point x="460" y="156.7003375"/>
    </contour>
    <contour>
      <point x="328" y="350" type="curve"/>
      <point x="328" y="229.6019245"/>
      <point x="293.0782105" y="132"/>
      <point x="250" y="132" type="curve"/>
      <point x="206.9217895" y="132"/>
      <point x="172" y="229.6019245"/>
      <point x="172" y="350" type="curve"/>
      <point x="172" y="470.3980755"/>
      <point x="206.9217895" y="568"/>
      <point x="250" y="568" type="curve"/>
      <point x="293.0782105" y="568"/>
      <point x="328" y="470.3980755"/>
    </contour>
    <contour>
      <point x="343.0209008082302" y="180.27684933347416" type="line"/>
      <point x="508.0209008082302" y="5.2768493334741535" type="line"/>
      <point x="411.9790991917698" y="-85.27684933347416" type="line"/>
      <point x="246.97909919176982" y="89.72315066652584" type="line"/>
    </contour>
  </outline>
</glyph>
<glyph name="R" format="2">
  <advance width="600"/>
  <unicode hex="0052"/>
  <outline>
    <contour>
      <point x="40" y="0" type="line"/>
      <point x="172" y="0" type="line"/>
      <point x="172" y="700" type="line"/>
      <point x="40" y="700" type="line"/>
    </contour>
    <contour>
      <point x="435" y="525" type="curve"/>
      <point x="435" y="613.36556"/>
      <point x="349.9341025" y="685"/>
      <point x="245" y="685" type="curve"/>
      <point x="140.0658975" y="685"/>
      <point x="55" y="613.36556"/>
      <point x="55" y="525" type="curve"/>
      <point x="55" y="436.63444"/>
      <point x="140.0658975" y="365"/>
      <point x="245" y="365" type="curve"/>
      <point x="349.9341025" y="365"/>
      <point x="435" y="436.63444"/>
    </contour>
    <contour>
      <point x="303" y="525" type="curve"/>
      <point x="303" y="509.536027"/>
      <point x="277.0325155" y="497"/>
      <point x="245" y="497" type="curve"/>
      <point x="212.9674845" y="497"/>
      <point x="187" y="509.536027"/>
      <point x="187" y="525" type="curve"/>
      <point x="187" y="540.463973"/>
      <point x="212.9674845" y="553"/>
      <point x="245" y="553" type="curve"/>
      <point x="277.0325155" y="553"/>
      <point x="303" y="540.463973"/>
    </contour>
    <contour>
      <point x="308.3693936879" y="390.8060688908361" type="line"/>
      <point x="498.3693936879" y="30.80606889083611" type="line"/>
      <point x="381.6306063121" y="-30.80606889083611" type="line"/>
      <point x="191.6306063121" y="329.1939311091639" type="line"/>
    </contour>
  </outline>
</glyph>
<glyph name="S" format="2">
  <advance width="600"/>
  <unicode hex="0053"/>
  <outline>
    <contour>
      <point x="388.8" y="686.8" type="line"/>
      <point x="287.0" y="710.56"/>
      <point x="84.8" y="689.44"/>
      <point x="78.2" y="434.0" type="curve"/>
      <point x="71.6" y="357.0"/>
      <point x="227.8" y="360.56"/>
      <point x="246.3" y="350" type="curve"/>
      <point x="287.0" y="266.0"/>
      <point x="429.72" y="329.0"/>
      <point x="424.44" y="203.0" type="curve"/>
      <point x="419.16" y="6.6000000000000005"/>
      <point x="205.6" y="-7.92"/>
      <point x="71.6" y="18.48" type="curve"/>
      <point x="86.12" y="129.35999999999999" type="line"/>
      <point x="213.0" y="81.84"/>
      <point x="349.2" y="112.2"/>
      <point x="358.44" y="189.0" type="curve"/>
      <point x="363.72" y="315.0"/>
      <point x="268.5" y="308.0"/>
      <point x="235.2" y="353.96" type="curve"/>
      <point x="187.1" y="369.8"/>
      <point x="125.72" y="365.84"/>
      <point x="133.64" y="448.0" type="curve"/>
      <point x="141.56" y="618.16"/>
      <point x="279.6" y="640.6"/>
      <point x="392.76" y="570.64" type="curve"/>
    </contour>
  </outline>
</glyph>
<glyph name="U" format="2">
  <advance width="600"/>
  <unicode hex="0055"/>
  <outline>
    <contour>
      <point x="58" y="210" type="curve"/>
      <point x="154" y="210" type="line"/>
      <point x="163.9411255" y="210"/>
      <point x="172" y="218.0588745"/>
      <point x="172" y="228" type="curve"/>
      <point x="172" y="682" type="line"/>
      <point x="172" y="691.9411255"/>
      <point x="163.9411255" y="700"/>
      <point x="154" y="700" type="curve"/>
      <point x="58" y="700" type="line"/>
      <point x="48.0588745" y="700"/>
      <point x="40" y="691.9411255"/>
      <point x="40" y="682" type="curve"/>
      <point x="40" y="228" type="line"/>
      <point x="40" y="218.0588745"/>
      <point x="48.0588745" y="210"/>
    </contour>
    <contour>
      <point x="414" y="210" type="curve"/>
      <point x="510" y="210" type="line"/>
      <point x="519.9411255" y="210"/>
      <point x="528" y="218.0588745"/>
      <point x="528" y="228" type="curve"/>
      <point x="528" y="682" type="line"/>
      <point x="528" y="691.9411255"/>
      <point x="519.9411255" y="700"/>
      <point x="510" y="700" type="curve"/>
      <point x="414" y="700" type="line"/>
      <point x="404.0588745" y="700"/>
      <point x="396" y="691.9411255"/>
      <point x="396" y="682" type="curve"/>
      <point x="396" y="228" type="line"/>
      <point x="396" y="218.0588745"/>
      <point x="404.0588745" y="210"/>
    </contour>
    <contour>
      <point x="40" y="210" type="line"/>
      <point x="40" y="68"/>
      <point x="127" y="-8"/>
      <point x="250" y="-8" type="curve"/>
      <point x="373" y="-8"/>
      <point x="460" y="68"/>
      <point x="460" y="210" type="curve"/>
      <point x="396" y="210" type="line"/>
      <point x="396" y="104"/>
      <point x="345" y="54"/>
      <point x="250" y="54" type="curve"/>
      <point x="155" y="54"/>
      <point x="104" y="104"/>
      <point x="104" y="210" type="curve"/>
    </contour>
  </outline>
</glyph>
<glyph name="V" format="2">
  <advance width="600"/>
  <unicode hex="0056"/>
  <outline>
    <contour>
      <point x="139.0294050095919" y="716.0073512523979" type="line"/>
      <point x="314.02940500959187" y="16.007351252397974" type="line"/>
      <point x="185.9705949904081" y="-16.007351252397974" type="line"/>
      <point x="10.970594990408102" y="683.9926487476021" type="line"/>
    </contour>
    <contour>
      <point x="489.02940500959187" y="683.9926487476021" type="line"/>
      <point x="314.02940500959187" y="-16.007351252397974" type="line"/>
      <point x="185.9705949904081" y="16.007351252397974" type="line"/>
      <point x="360.97059499040813" y="716.0073512523979" type="line"/>
    </contour>
  </outline>
</glyph>
<glyph name="W" format="2">
  <advance width="600"/>
  <unicode hex="0057"/>
  <outline>
    <contour>
      <point x="110.40046314921062" y="708.8757771416786" type="line"/>
      <point x="205.40046314921062" y="8.875777141678583" type="line"/>
      <point x="74.59953685078938" y="-8.875777141678583" type="line"/>
      <point x="-20.400463149210623" y="691.1242228583214" type="line"/>
    </contour>
    <contour>
      <point x="520.4004631492106" y="691.1242228583214" type="line"/>
      <point x="425.4004631492106" y="-8.875777141678583" type="line"/>
      <point x="294.5995368507894" y="8.875777141678583" type="line"/>
      <point x="389.5995368507894" y="708.8757771416786" type="line"/>
    </contour>
    <contour>
      <point x="76.47832138489736" y="17.916370891439207" type="line"/>
      <point x="186.47832138489736" y="407.9163708914392" type="line"/>
      <point x="313.52167861510264" y="372.0836291085608" type="line"/>
      <point x="203.52167861510264" y="-17.916370891439207" type="line"/>
    </contour>
    <contour>
      <point x="296.47832138489736" y="-17.916370891439207" type="line"/>
      <point x="186.47832138489736" y="372.0836291085608" type="line"/>
      <point x="313.52167861510264" y="407.9163708914392" type="line"/>
      <point x="423.52167861510264" y="17.916370891439207" type="line"/>
    </contour>
  </outline>
</glyph>
<glyph name="X" format="2">
  <advance width="600"/>
  <unicode hex="0058"/>
  <outline>
    <contour>
      <point x="128.6929949529977" y="730.1849688329703" type="line"/>
      <point x="488.6929949529977" y="30.18496883297025" type="line"/>
      <point x="371.3070050470023" y="-30.18496883297025" type="line"/>
      <point x="11.307005047002292" y="669.8150311670297" type="line"/>
    </contour>
    <contour>
      <point x="488.6929949529977" y="669.8150311670297" type="line"/>
      <point x="128.6929949529977" y="-30.18496883297025" type="line"/>
      <point x="11.307005047002292" y="30.18496883297025" type="line"/>
      <point x="371.3070050470023" y="730.1849688329703" type="line"/>
    </contour>
  </outline>
</glyph>
<glyph name="Y" format="2">
  <advance width="600"/>
  <unicode hex="0059"/>
  <outline>
    <contour>
      <point x="128.6929949529977" y="730.1849688329703" type="line"/>
      <point x="308.6929949529977" y="380.18496883297024" type="line"/>
      <point x="191.3070050470023" y="319.81503116702976" type="line"/>
      <point x="11.307005047002292" y="669.8150311670297" type="line"/>
    </contour>
    <contour>
      <point x="488.6929949529977" y="669.8150311670297" type="line"/>
      <point x="308.6929949529977" y="319.81503116702976" type="line"/>
      <point x="191.3070050470023" y="380.18496883297024" type="line"/>
      <point x="371.3070050470023" y="730.1849688329703" type="line"/>
    </contour>
    <contour>
      <point x="218" y="0" type="line"/>
      <point x="350" y="0" type="line"/>
      <point x="350" y="350" type="line"/>
      <point x="218" y="350" type="line"/>
    </contour>
  </outline>
</glyph>
<glyph name="Z" format="2">
  <advance width="600"/>
  <unicode hex="005A"/>
  <outline>
    <contour>
      <point x="50" y="568" type="line"/>
      <point x="450" y="568" type="line"/>
      <point x="450" y="700" type="line"/>
      <point x="50" y="700" type="line"/>
    </contour>
    <contour>
      <point x="485.7462255610903" y="598.6678852077597" type="line"/>
      <point x="125.74622556109027" y="30.66788520775969" type="line"/>
      <point x="14.25377443890973" y="101.3321147922403" type="line"/>
      <point x="374.2537744389097" y="669.3321147922403" type="line"/>
    </contour>
    <contour>
      <point x="50" y="0" type="line"/>
      <point x="450" y="0" type="line"/>
      <point x="450" y="132" type="line"/>
      <point x="50" y="132" type="line"/>
    </contour>
  </outline>
</glyph>
<glyph name="uni005B" format="2">
  <advance width="600"/>
  <unicode hex="005B"/>
  <outline>
    <contour>
      <point x="150" y="80" type="line"/>
      <point x="282" y="80" type="line"/>
      <point x="282" y="620" type="line"/>
      <point x="150" y="620" type="line"/>
    </contour>
    <contour>
      <point x="150" y="620" type="line"/>
      <point x="250" y="620" type="line"/>
      <point x="250" y="752" type="line"/>
      <point x="150" y="752" type="line"/>
    </contour>
    <contour>
      <point x="150" y="80" type="line"/>
      <point x="250" y="80" type="line"/>
      <point x="250" y="212" type="line"/>
      <point x="150" y="212" type="line"/>
    </contour>
  </outline>
</glyph>
<glyph name="uni005C" format="2">
  <advance width="600"/>
  <unicode hex="005C"/>
  <outline>
    <contour>
      <point x="318.1299320473555" y="-22.98031095383939" type="line"/>
      <point x="58.12993204735549" y="677.0196890461606" type="line"/>
      <point x="181.87006795264452" y="722.9803109538394" type="line"/>
      <point x="441.8700679526445" y="22.98031095383939" type="line"/>
    </contour>
  </outline>
</glyph>
<glyph name="uni005D" format="2">
  <advance width="600"/>
  <unicode hex="005D"/>
  <outline>
    <contour>
      <point x="218" y="80" type="line"/>
      <point x="350" y="80" type="line"/>
      <point x="350" y="620" type="line"/>
      <point x="218" y="620" type="line"/>
    </contour>
    <contour>
      <point x="86" y="620" type="line"/>
      <point x="186" y="620" type="line"/>
      <point x="186" y="752" type="line"/>
      <point x="86" y="752" type="line"/>
    </contour>
    <contour>
      <point x="86" y="80" type="line"/>
      <point x="186" y="80" type="line"/>
      <point x="186" y="212" type="line"/>
      <point x="86" y="212" type="line"/>
    </contour>
  </outline>
</glyph>
<glyph name="uni0060" format="2">
  <advance width="600"/>
  <unicode hex="0060"/>
  <outline>
    <contour>
      <point x="280.1557811044685" y="541.5974306202362" type="line"/>
      <point x="240.15578110446847" y="451.59743062023625" type="line"/>
      <point x="179.84421889553153" y="478.40256937976375" type="line"/>
      <point x="219.84421889553153" y="568.4025693797638" type="line"/>
    </contour>
  </outline>
</glyph>
<glyph name="a" format="2">
  <advance width="600"/>
  <unicode hex="0061"/>
  <outline>
    <contour>
      <point x="378" y="244" type="curve"/>
      <point x="378" y="378.757479"/>
      <point x="310.8427125" y="488"/>
      <point x="228" y="488" type="curve"/>
      <point x="145.1572875" y="488"/>
      <point x="78" y="378.757479"/>
      <point x="78" y="244" type="curve"/>
      <point x="78" y="109.24252100000001"/>
      <point x="145.1572875" y="0"/>
      <point x="228" y="0" type="curve"/>
      <point x="310.8427125" y="0"/>
      <point x="378" y="109.24252100000001"/>
    </contour>
    <contour>
      <point x="246" y="244" type="curve"/>
      <point x="246" y="182.14410800000002"/>
      <point x="237.9411255" y="132"/>
      <point x="228" y="132" type="curve"/>
      <point x="218.0588745" y="132"/>
      <point x="210" y="182.14410800000002"/>
      <point x="210" y="244" type="curve"/>
      <point x="210" y="305.855892"/>
      <point x="218.0588745" y="356"/>
      <point x="228" y="356" type="curve"/>
      <point x="237.9411255" y="356"/>
      <point x="246" y="305.855892"/>
    </contour>
    <contour>
      <point x="362" y="0" type="curve"/>
      <point x="458" y="0" type="line"/>
      <point x="467.9411255" y="0"/>
      <point x="476" y="8.0588745"/>
      <point x="476" y="18" type="curve"/>
      <point x="476" y="537" type="line"/>
      <point x="476" y="546.9411255"/>
      <point x="467.9411255" y="555"/>
      <point x="458" y="555" type="curve"/>
      <point x="362" y="555" type="line"/>
      <point x="352.0588745" y="555"/>
      <point x="344" y="546.9411255"/>
      <point x="344" y="537" type="curve"/>
      <point x="344" y="18" type="line"/>
      <point x="344" y="8.0588745"/>
      <point x="352.0588745" y="0"/>
    </contour>
  </outline>
</glyph>
<glyph name="e" format="2">
  <advance width="600"/>
  <unicode hex="0065"/>
  <outline>
    <contour>
      <point x="388.6" y="467.04" type="line"/>
      <point x="336.4" y="556"/>
      <point x="174.4" y="556"/>
      <point x="70" y="397.53999999999996" type="curve"/>
      <point x="70" y="158.46"/>
      <point x="174.4" y="0"/>
      <point x="336.4" y="0" type="curve"/>
      <point x="381.4" y="69.5"/>
      <point x="388.6" y="116.76000000000002"/>
      <point x="388.6" y="139.0" type="curve"/>
      <point x="286.96" y="169.57999999999998" type="line"/>
      <point x="318.4" y="132"/>
      <point x="202" y="189.04"/>
      <point x="202" y="278" type="curve"/>
      <point x="202" y="366.96000000000004"/>
      <point x="318.4" y="424"/>
      <point x="286.96" y="386.42" type="curve"/>
    </contour>
    <contour>
      <point x="108" y="246" type="curve"/>
      <point x="386" y="246" type="line"/>
      <point x="394.836556" y="246"/>
      <point x="402" y="253.163444"/>
      <point x="402" y="262" type="curve"/>
      <point x="402" y="362" type="line"/>
      <point x="402" y="370.836556"/>
      <point x="394.836556" y="378"/>
      <point x="386" y="378" type="curve"/>
      <point x="108" y="378" type="line"/>
      <point x="99.163444" y="378"/>
      <point x="92" y="370.836556"/>
      <point x="92" y="362" type="curve"/>
      <point x="92" y="262" type="line"/>
      <point x="92" y="253.163444"/>
      <point x="99.163444" y="246"/>
    </contour>
  </outline>
</glyph>
<glyph name="f" format="2">
  <advance width="600"/>
  <unicode hex="0066"/>
  <outline>
    <contour>
      <point x="233" y="0" type="curve"/>
      <point x="329" y="0" type="line"/>
      <point x="338.9411255" y="0"/>
      <point x="347" y="8.0588745"/>
      <point x="347" y="18" type="curve"/>
      <point x="347" y="742" type="line"/>
      <point x="347" y="751.9411255"/>
      <point x="338.9411255" y="760"/>
      <point x="329" y="760" type="curve"/>
      <point x="233" y="760" type="line"/>
      <point x="223.0588745" y="760"/>
      <point x="215" y="751.9411255"/>
      <point x="215" y="742" type="curve"/>
      <point x="215" y="18" type="line"/>
      <point x="215" y="8.0588745"/>
      <point x="223.0588745" y="0"/>
    </contour>
    <contour>
      <point x="215" y="500" type="line"/>
      <point x="215" y="670"/>
      <point x="294" y="770"/>
      <point x="398" y="734" type="curve"/>
      <point x="398" y="670" type="line"/>
      <point x="325" y="687"/>
      <point x="279" y="632"/>
      <point x="279" y="500" type="curve"/>
    </contour>
    <contour>
      <point x="121" y="350" type="curve"/>
      <point x="379" y="350" type="line"/>
      <point x="387.836556" y="350"/>
      <point x="395" y="357.163444"/>
      <point x="395" y="366" type="curve"/>
      <point x="395" y="466" type="line"/>
      <point x="395" y="474.836556"/>
      <point x="387.836556" y="482"/>
      <point x="379" y="482" type="curve"/>
      <point x="121" y="482" type="line"/>
      <point x="112.163444" y="482"/>
      <point x="105" y="474.836556"/>
      <point x="105" y="466" type="curve"/>
      <point x="105" y="366" type="line"/>
      <point x="105" y="357.163444"/>
      <point x="112.163444" y="350"/>
    </contour>
  </outline>
</glyph>
<glyph name="g" format="2">
  <advance width="600"/>
  <unicode hex="0067"/>
  <outline>
    <contour>
      <point x="378" y="260" type="curve"/>
      <point x="378" y="392.54834"/>
      <point x="310.8427125" y="500"/>
      <point x="228" y="500" type="curve"/>
      <point x="145.1572875" y="500"/>
      <point x="78" y="392.54834"/>
      <point x="78" y="260" type="curve"/>
      <point x="78" y="127.45166"/>
      <point x="145.1572875" y="20"/>
      <point x="228" y="20" type="curve"/>
      <point x="310.8427125" y="20"/>
      <point x="378" y="127.45166"/>
    </contour>
    <contour>
      <point x="246" y="260" type="curve"/>
      <point x="246" y="200.353247"/>
      <point x="237.9411255" y="152"/>
      <point x="228" y="152" type="curve"/>
      <point x="218.0588745" y="152"/>
      <point x="210" y="200.353247"/>
      <point x="210" y="260" type="curve"/>
      <point x="210" y="319.646753"/>
      <point x="218.0588745" y="368"/>
      <point x="228" y="368" type="curve"/>
      <point x="237.9411255" y="368"/>
      <point x="246" y="319.646753"/>
    </contour>
    <contour>
      <point x="362" y="-210" type="curve"/>
      <point x="458" y="-210" type="line"/>
      <point x="467.9411255" y="-210"/>
      <point x="476" y="-201.9411255"/>
      <point x="476" y="-192" type="curve"/>
      <point x="476" y="537" type="line"/>
      <point x="476" y="546.9411255"/>
      <point x="467.9411255" y="555"/>
      <point x="458" y="555" type="curve"/>
      <point x="362" y="555" type="line"/>
      <point x="352.0588745" y="555"/>
      <point x="344" y="546.9411255"/>
      <point x="344" y="537" type="curve"/>
      <point x="344" y="-192" type="line"/>
      <point x="344" y="-201.9411255"/>
      <point x="352.0588745" y="-210"/>
    </contour>
    <contour>
      <point x="408" y="0" type="line"/>
      <point x="408" y="-210"/>
      <point x="324" y="-210"/>
      <point x="230" y="-210" type="curve"/>
      <point x="173" y="-210"/>
      <point x="139" y="-185"/>
      <point x="128" y="-146" type="curve"/>
      <point x="192" y="-146" type="line"/>
      <point x="205" y="-175"/>
      <point x="221" y="-180"/>
      <point x="245" y="-180" type="curve"/>
      <point x="305" y="-180"/>
      <point x="344" y="-138"/>
      <point x="344" y="0" type="curve"/>
    </contour>
  </outline>
</glyph>
<glyph name="i" format="2">
  <advance width="600"/>
  <unicode hex="0069"/>
  <outline>
    <contour>
      <point x="236" y="0" type="curve"/>
      <point x="332" y="0" type="line"/>
      <point x="341.9411255" y="0"/>
      <point x="350" y="8.0588745"/>
      <point x="350" y="18" type="curve"/>
      <point x="350" y="437" type="line"/>
      <point x="350" y="446.9411255"/>
      <point x="341.9411255" y="455"/>
      <point x="332" y="455" type="curve"/>
      <point x="236" y="455" type="line"/>
      <point x="226.0588745" y="455"/>
      <point x="218" y="446.9411255"/>
      <point x="218" y="437" type="curve"/>
      <point x="218" y="18" type="line"/>
      <point x="218" y="8.0588745"/>
      <point x="226.0588745" y="0"/>
    </contour>
    <contour>
      <point x="322.6" y="525" type="curve"/>
      <point x="322.6" y="565.09587285"/>
      <point x="290.09587285" y="597.6"/>
      <point x="250" y="597.6" type="curve"/>
      <point x="209.90412715" y="597.6"/>
      <point x="177.39999999999998" y="565.09587285"/>
      <point x="177.39999999999998" y="525" type="curve"/>
      <point x="177.39999999999998" y="484.90412715"/>
      <point x="209.90412715" y="452.4"/>
      <point x="250" y="452.4" type="curve"/>
      <point x="290.09587285" y="452.4"/>
      <point x="322.6" y="484.90412715"/>
    </contour>
  </outline>
</glyph>
<glyph name="j" format="2">
  <advance width="600"/>
  <unicode hex="006A"/>
  <outline>
    <contour>
      <point x="236" y="-190" type="curve"/>
      <point x="332" y="-190" type="line"/>
      <point x="341.9411255" y="-190"/>
      <point x="350" y="-181.9411255"/>
      <point x="350" y="-172" type="curve"/>
      <point x="350" y="437" type="line"/>
      <point x="350" y="446.9411255"/>
      <point x="341.9411255" y="455"/>
      <point x="332" y="455" type="curve"/>
      <point x="236" y="455" type="line"/>
      <point x="226.0588745" y="455"/>
      <point x="218" y="446.9411255"/>
      <point x="218" y="437" type="curve"/>
      <point x="218" y="-172" type="line"/>
      <point x="218" y="-181.9411255"/>
      <point x="226.0588745" y="-190"/>
    </contour>
    <contour>
      <point x="322.6" y="525" type="curve"/>
      <point x="322.6" y="565.09587285"/>
      <point x="290.09587285" y="597.6"/>
      <point x="250" y="597.6" type="curve"/>
      <point x="209.90412715" y="597.6"/>
      <point x="177.39999999999998" y="565.09587285"/>
      <point x="177.39999999999998" y="525" type="curve"/>
      <point x="177.39999999999998" y="484.90412715"/>
      <point x="209.90412715" y="452.4"/>
      <point x="250" y="452.4" type="curve"/>
      <point x="290.09587285" y="452.4"/>
      <point x="322.6" y="484.90412715"/>
    </contour>
    <contour>
      <point x="282" y="-190" type="line"/>
      <point x="282" y="-210"/>
      <point x="247" y="-210"/>
      <point x="201" y="-210" type="curve"/>
      <point x="177" y="-210" type="line"/>
      <point x="177" y="-185" type="line"/>
      <point x="201" y="-185" type="line"/>
      <point x="212" y="-185"/>
      <point x="218" y="-188"/>
      <point x="218" y="-190" type="curve"/>
    </contour>
  </outline>
</glyph>
<glyph name="k" format="2">
  <advance width="600"/>
  <unicode hex="006B"/>
  <outline>
    <contour>
      <point x="78" y="0" type="curve"/>
      <point x="174" y="0" type="line"/>
      <point x="183.9411255" y="0"/>
      <point x="192" y="8.0588745"/>
      <point x="192" y="18" type="curve"/>
      <point x="192" y="742" type="line"/>
      <point x="192" y="751.9411255"/>
      <point x="183.9411255" y="760"/>
      <point x="174" y="760" type="curve"/>
      <point x="78" y="760" type="line"/>
      <point x="68.0588745" y="760"/>
      <point x="60" y="751.9411255"/>
      <point x="60" y="742" type="curve"/>
      <point x="60" y="18" type="line"/>
      <point x="60" y="8.0588745"/>
      <point x="68.0588745" y="0"/>
    </contour>
    <contour>
      <point x="74.6513315478604" y="321.82589328240556" type="line"/>
      <point x="320.6513315478604" y="598.8258932824056" type="line"/>
      <point x="419.3486684521396" y="511.17410671759444" type="line"/>
      <point x="173.3486684521396" y="234.17410671759444" type="line"/>
    </contour>
    <contour>
      <point x="172.5505570381336" y="322.7084266250439" type="line"/>
      <point x="428.5505570381336" y="44.708426625043906" type="line"/>
      <point x="331.4494429618664" y="-44.708426625043906" type="line"/>
      <point x="75.4494429618664" y="233.2915733749561" type="line"/>
    </contour>
  </outline>
</glyph>
<glyph name="l" format="2">
  <advance width="600"/>
  <unicode hex="006C"/>
  <outline>
    <contour>
      <point x="236" y="0" type="curve"/>
      <point x="332" y="0" type="line"/>
      <point x="341.9411255" y="0"/>
      <point x="350" y="8.0588745"/>
      <point x="350" y="18" type="curve"/>
      <point x="350" y="742" type="line"/>
      <point x="350" y="751.9411255"/>
      <point x="341.9411255" y="760"/>
      <point x="332" y="760" type="curve"/>
      <point x="236" y="760" type="line"/>
      <point x="226.0588745" y="760"/>
      <point x="218" y="751.9411255"/>
      <point x="218" y="742" type="curve"/>
      <point x="218" y="18" type="line"/>
      <point x="218" y="8.0588745"/>
      <point x="226.0588745" y="0"/>
    </contour>
    <contour>
      <point x="180" y="0" type="line"/>
      <point x="320" y="0" type="line"/>
      <point x="320" y="72.60000000000001" type="line"/>
      <point x="180" y="72.60000000000001" type="line"/>
    </contour>
    <contour>
      <point x="180" y="627.4" type="line"/>
      <point x="320" y="627.4" type="line"/>
      <point x="320" y="700.0" type="line"/>
      <point x="180" y="700.0" type="line"/>
    </contour>
  </outline>
</glyph>
<glyph name="m" format="2">
  <advance width="600"/>
  <unicode hex="006D"/>
  <outline>
    <contour>
      <point x="58" y="0" type="curve"/>
      <point x="154" y="0" type="line"/>
      <point x="163.9411255" y="0"/>
      <point x="172" y="8.0588745"/>
      <point x="172" y="18" type="curve"/>
      <point x="172" y="537" type="line"/>
      <point x="172" y="546.9411255"/>
      <point x="163.9411255" y="555"/>
      <point x="154" y="555" type="curve"/>
      <point x="58" y="555" type="line"/>
      <point x="48.0588745" y="555"/>
      <point x="40" y="546.9411255"/>
      <point x="40" y="537" type="curve"/>
      <point x="40" y="18" type="line"/>
      <point x="40" y="8.0588745"/>
      <point x="48.0588745" y="0"/>
    </contour>
    <contour>
      <point x="104" y="0" type="line"/>
      <point x="104" y="555" type="line"/>
      <point x="153.64" y="565"/>
      <point x="250" y="460.65"/>
      <point x="250" y="349.65" type="curve"/>
      <point x="250" y="0" type="line"/>
      <point x="118" y="0" type="line"/>
      <point x="118" y="349.65" type="line"/>
      <point x="118" y="482.4"/>
      <point x="285.64" y="423"/>
      <point x="236" y="423" type="curve"/>
      <point x="236" y="0" type="line"/>
    </contour>
    <contour>
      <point x="239" y="0" type="line"/>
      <point x="239" y="555" type="line"/>
      <point x="284.9" y="565"/>
      <point x="374" y="460.65"/>
      <point x="374" y="349.65" type="curve"/>
      <point x="374" y="0" type="line"/>
      <point x="242" y="0" type="line"/>
      <point x="242" y="349.65" type="line"/>
      <point x="242" y="482.4"/>
      <point x="416.9" y="423"/>
      <point x="371" y="423" type="curve"/>
      <point x="371" y="0" type="line"/>
    </contour>
  </outline>
</glyph>
<glyph name="n" format="2">
  <advance width="600"/>
  <unicode hex="006E"/>
  <outline>
    <contour>
      <point x="78" y="0" type="curve"/>
      <point x="174" y="0" type="line"/>
      <point x="183.9411255" y="0"/>
      <point x="192" y="8.0588745"/>
      <point x="192" y="18" type="curve"/>
      <point x="192" y="537" type="line"/>
      <point x="192" y="546.9411255"/>
      <point x="183.9411255" y="555"/>
      <point x="174" y="555" type="curve"/>
      <point x="78" y="555" type="line"/>
      <point x="68.0588745" y="555"/>
      <point x="60" y="546.9411255"/>
      <point x="60" y="537" type="curve"/>
      <point x="60" y="18" type="line"/>
      <point x="60" y="8.0588745"/>
      <point x="68.0588745" y="0"/>
    </contour>
    <contour>
      <point x="124" y="0" type="line"/>
      <point x="124" y="555" type="line"/>
      <point x="198.8" y="565"/>
      <point x="344" y="460.65"/>
      <point x="344" y="349.65" type="curve"/>
      <point x="344" y="0" type="line"/>
      <point x="212" y="0" type="line"/>
      <point x="212" y="349.65" type="line"/>
      <point x="212" y="482.4"/>
      <point x="330.8" y="423"/>
      <point x="256" y="423" type="curve"/>
      <point x="256" y="0" type="line"/>
    </contour>
  </outline>
</glyph>
<glyph name="o" format="2">
  <advance width="600"/>
  <unicode hex="006F"/>
  <outline>
    <contour>
      <point x="430" y="278" type="curve"/>
      <point x="430" y="431.53516049999996"/>
      <point x="349.411255" y="556"/>
      <point x="250" y="556" type="curve"/>
      <point x="150.58874500000002" y="556"/>
      <point x="70" y="431.53516049999996"/>
      <point x="70" y="278" type="curve"/>
      <point x="70" y="124.46483950000001"/>
      <point x="150.58874500000002" y="0"/>
      <point x="250" y="0" type="curve"/>
      <point x="349.411255" y="0"/>
      <point x="430" y="124.46483950000001"/>
    </contour>
    <contour>
      <point x="298" y="278" type="curve"/>
      <point x="298" y="197.3664265"/>
      <point x="276.509668" y="132"/>
      <point x="250" y="132" type="curve"/>
      <point x="223.490332" y="132"/>
      <point x="202" y="197.3664265"/>
      <point x="202" y="278" type="curve"/>
      <point x="202" y="358.6335735"/>
      <point x="223.490332" y="424"/>
      <point x="250" y="424" type="curve"/>
      <point x="276.509668" y="424"/>
      <point x="298" y="358.6335735"/>
    </contour>
  </outline>
</glyph>
<glyph name="p" format="2">
  <advance width="600"/>
  <unicode hex="0070"/>
  <outline>
    <contour>
      <point x="78" y="-210" type="curve"/>
      <point x="174" y="-210" type="line"/>
      <point x="183.9411255" y="-210"/>
      <point x="192" y="-201.9411255"/>
      <point x="192" y="-192" type="curve"/>
      <point x="192" y="537" type="line"/>
      <point x="192" y="546.9411255"/>
      <point x="183.9411255" y="555"/>
      <point x="174" y="555" type="curve"/>
      <point x="78" y="555" type="line"/>
      <point x="68.0588745" y="555"/>
      <point x="60" y="546.9411255"/>
      <point x="60" y="537" type="curve"/>
      <point x="60" y="-192" type="line"/>
      <point x="60" y="-201.9411255"/>
      <point x="68.0588745" y="-210"/>
    </contour>
    <contour>
      <point x="430" y="278" type="curve"/>
      <point x="430" y="431.53516049999996"/>
      <point x="349.411255" y="556"/>
      <point x="250" y="556" type="curve"/>
      <point x="150.58874500000002" y="556"/>
      <point x="70" y="431.53516049999996"/>
      <point x="70" y="278" type="curve"/>
      <point x="70" y="124.46483950000001"/>
      <point x="150.58874500000002" y="0"/>
      <point x="250" y="0" type="curve"/>
      <point x="349.411255" y="0"/>
      <point x="430" y="124.46483950000001"/>
    </contour>
    <contour>
      <point x="298" y="278" type="curve"/>
      <point x="298" y="197.3664265"/>
      <point x="276.509668" y="132"/>
      <point x="250" y="132" type="curve"/>
      <point x="223.490332" y="132"/>
      <point x="202" y="197.3664265"/>
      <point x="202" y="278" type="curve"/>
      <point x="202" y="358.6335735"/>
      <point x="223.490332" y="424"/>
      <point x="250" y="424" type="curve"/>
      <point x="276.509668" y="424"/>
      <point x="298" y="358.6335735"/>
    </contour>
  </outline>
</glyph>
<glyph name="r" format="2">
  <advance width="600"/>
  <unicode hex="0072"/>
  <outline>
    <contour>
      <point x="78" y="0" type="curve"/>
      <point x="174" y="0" type="line"/>
      <point x="183.9411255" y="0"/>
      <point x="192" y="8.0588745"/>
      <point x="192" y="18" type="curve"/>
      <point x="192" y="537" type="line"/>
      <point x="192" y="546.9411255"/>
      <point x="183.9411255" y="555"/>
      <point x="174" y="555" type="curve"/>
      <point x="78" y="555" type="line"/>
      <point x="68.0588745" y="555"/>
      <point x="60" y="546.9411255"/>
      <point x="60" y="537" type="curve"/>
      <point x="60" y="18" type="line"/>
      <point x="60" y="8.0588745"/>
      <point x="68.0588745" y="0"/>
    </contour>
    <contour>
      <point x="124" y="305" type="line"/>
      <point x="154" y="474"/>
      <point x="270" y="555"/>
      <point x="390" y="472" type="curve"/>
      <point x="390" y="400" type="line"/>
      <point x="284" y="450"/>
      <point x="205" y="417"/>
      <point x="188" y="305" type="curve"/>
    </contour>
  </outline>
</glyph>
<glyph name="t" format="2">
  <advance width="600"/>
  <unicode hex="0074"/>
  <outline>
    <contour>
      <point x="233" y="0" type="curve"/>
      <point x="329" y="0" type="line"/>
      <point x="338.9411255" y="0"/>
      <point x="347" y="8.0588745"/>
      <point x="347" y="18" type="curve"/>
      <point x="347" y="742" type="line"/>
      <point x="347" y="751.9411255"/>
      <point x="338.9411255" y="760"/>
      <point x="329" y="760" type="curve"/>
      <point x="233" y="760" type="line"/>
      <point x="223.0588745" y="760"/>
      <point x="215" y="751.9411255"/>
      <point x="215" y="742" type="curve"/>
      <point x="215" y="18" type="line"/>
      <point x="215" y="8.0588745"/>
      <point x="223.0588745" y="0"/>
    </contour>
    <contour>
      <point x="121" y="360" type="curve"/>
      <point x="359" y="360" type="line"/>
      <point x="367.836556" y="360"/>
      <point x="375" y="367.163444"/>
      <point x="375" y="376" type="curve"/>
      <point x="375" y="476" type="line"/>
      <point x="375" y="484.836556"/>
      <point x="367.836556" y="492"/>
      <point x="359" y="492" type="curve"/>
      <point x="121" y="492" type="line"/>
      <point x="112.163444" y="492"/>
      <point x="105" y="484.836556"/>
      <point x="105" y="476" type="curve"/>
      <point x="105" y="376" type="line"/>
      <point x="105" y="367.163444"/>
      <point x="112.163444" y="360"/>
    </contour>
  </outline>
</glyph>
<glyph name="u" format="2">
  <advance width="600"/>
  <unicode hex="0075"/>
  <outline>
    <contour>
      <point x="78" y="190" type="curve"/>
      <point x="174" y="190" type="line"/>
      <point x="183.9411255" y="190"/>
      <point x="192" y="198.0588745"/>
      <point x="192" y="208" type="curve"/>
      <point x="192" y="537" type="line"/>
      <point x="192" y="546.9411255"/>
      <point x="183.9411255" y="555"/>
      <point x="174" y="555" type="curve"/>
      <point x="78" y="555" type="line"/>
      <point x="68.0588745" y="555"/>
      <point x="60" y="546.9411255"/>
      <point x="60" y="537" type="curve"/>
      <point x="60" y="208" type="line"/>
      <point x="60" y="198.0588745"/>
      <point x="68.0588745" y="190"/>
    </contour>
    <contour>
      <point x="230" y="0" type="curve"/>
      <point x="326" y="0" type="line"/>
      <point x="335.9411255" y="0"/>
      <point x="344" y="8.0588745"/>
      <point x="344" y="18" type="curve"/>
      <point x="344" y="537" type="line"/>
      <point x="344" y="546.9411255"/>
      <point x="335.9411255" y="555"/>
      <point x="326" y="555" type="curve"/>
      <point x="230" y="555" type="line"/>
      <point x="220.0588745" y="555"/>
      <point x="212" y="546.9411255"/>
      <point x="212" y="537" type="curve"/>
      <point x="212" y="18" type="line"/>
      <point x="212" y="8.0588745"/>
      <point x="220.0588745" y="0"/>
    </contour>
    <contour>
      <point x="60" y="190" type="line"/>
      <point x="60" y="67"/>
      <point x="125" y="-4"/>
      <point x="234" y="-4" type="curve"/>
      <point x="320" y="-4"/>
      <point x="344" y="67"/>
      <point x="344" y="190" type="curve"/>
      <point x="280" y="190" type="line"/>
      <point x="280" y="91"/>
      <point x="263" y="54"/>
      <point x="234" y="54" type="curve"/>
      <point x="201" y="54"/>
      <point x="124" y="91"/>
      <point x="124" y="190" type="curve"/>
    </contour>
  </outline>
</glyph>
<glyph name="v" format="2">
  <advance width="600"/>
  <unicode hex="0076"/>
  <outline>
    <contour>
      <point x="137.94502040885658" y="574.8475289577476" type="line"/>
      <point x="312.9450204088566" y="19.84752895774757" type="line"/>
      <point x="187.05497959114342" y="-19.84752895774757" type="line"/>
      <point x="12.054979591143415" y="535.1524710422524" type="line"/>
    </contour>
    <contour>
      <point x="487.9450204088566" y="535.1524710422524" type="line"/>
      <point x="312.9450204088566" y="-19.84752895774757" type="line"/>
      <point x="187.05497959114342" y="19.84752895774757" type="line"/>
      <point x="362.0549795911434" y="574.8475289577476" type="line"/>
    </contour>
  </outline>
</glyph>
<glyph name="w" format="2">
  <advance width="600"/>
  <unicode hex="0077"/>
  <outline>
    <contour>
      <point x="110.23931179381562" y="564.9916063107646" type="line"/>
      <point x="195.2393117938156" y="9.991606310764553" type="line"/>
      <point x="64.76068820618438" y="-9.991606310764553" type="line"/>
      <point x="-20.239311793815617" y="545.0083936892354" type="line"/>
    </contour>
    <contour>
      <point x="520.2393117938157" y="545.0083936892354" type="line"/>
      <point x="435.2393117938156" y="-9.991606310764553" type="line"/>
      <point x="304.7606882061844" y="9.991606310764553" type="line"/>
      <point x="389.7606882061844" y="564.9916063107646" type="line"/>
    </contour>
    <contour>
      <point x="68.7205384015729" y="24.511784639370845" type="line"/>
      <point x="188.7205384015729" y="324.51178463937083" type="line"/>
      <point x="311.27946159842713" y="275.48821536062917" type="line"/>
      <point x="191.2794615984271" y="-24.511784639370845" type="line"/>
    </contour>
    <contour>
      <point x="308.72053840157287" y="-24.511784639370845" type="line"/>
      <point x="188.7205384015729" y="275.48821536062917" type="line"/>
      <point x="311.27946159842713" y="324.51178463937083" type="line"/>
      <point x="431.27946159842713" y="24.511784639370845" type="line"/>
    </contour>
  </outline>
</glyph>
<glyph name="x" format="2">
  <advance width="600"/>
  <unicode hex="0078"/>
  <outline>
    <contour>
      <point x="125.37144494382547" y="590.9166129365354" type="line"/>
      <point x="485.37144494382545" y="35.91661293653544" type="line"/>
      <point x="374.62855505617455" y="-35.91661293653544" type="line"/>
      <point x="14.628555056174534" y="519.0833870634646" type="line"/>
    </contour>
    <contour>
      <point x="485.37144494382545" y="519.0833870634646" type="line"/>
      <point x="125.37144494382547" y="-35.91661293653544" type="line"/>
      <point x="14.628555056174534" y="35.91661293653544" type="line"/>
      <point x="374.62855505617455" y="590.9166129365354" type="line"/>
    </contour>
  </outline>
</glyph>
<glyph name="y" format="2">
  <advance width="600"/>
  <unicode hex="0079"/>
  <outline>
    <contour>
      <point x="137.94502040885658" y="574.8475289577476" type="line"/>
      <point x="312.9450204088566" y="19.84752895774757" type="line"/>
      <point x="187.05497959114342" y="-19.84752895774757" type="line"/>
      <point x="12.054979591143415" y="535.1524710422524" type="line"/>
    </contour>
    <contour>
      <point x="487.9450204088566" y="535.1524710422524" type="line"/>
      <point x="312.9450204088566" y="-19.84752895774757" type="line"/>
      <point x="187.05497959114342" y="19.84752895774757" type="line"/>
      <point x="362.0549795911434" y="574.8475289577476" type="line"/>
    </contour>
    <contour>
      <point x="218" y="-210" type="line"/>
      <point x="350" y="-210" type="line"/>
      <point x="350" y="-110" type="line"/>
      <point x="218" y="-110" type="line"/>
    </contour>
  </outline>
</glyph>
<glyph name="z" format="2">
  <advance width="600"/>
  <unicode hex="007A"/>
  <outline>
    <contour>
      <point x="70" y="423" type="line"/>
      <point x="430" y="423" type="line"/>
      <point x="430" y="555" type="line"/>
      <point x="70" y="555" type="line"/>
    </contour>
    <contour>
      <point x="462.6352938302092" y="449.1813380007874" type="line"/>
      <point x="142.6352938302092" y="26.181338000787356" type="line"/>
      <point x="37.36470616979079" y="105.81866199921265" type="line"/>
      <point x="357.3647061697908" y="528.8186619992126" type="line"/>
    </contour>
    <contour>
      <point x="70" y="0" type="line"/>
      <point x="430" y="0" type="line"/>
      <point x="430" y="132" type="line"/>
      <point x="70" y="132" type="line"/>
    </contour>
  </outline>
</glyph>
<glyph name="uni007B" format="2">
  <advance width="600"/>
  <unicode hex="007B"/>
  <outline>
    <contour>
      <point x="150" y="80" type="line"/>
      <point x="282" y="80" type="line"/>
      <point x="282" y="620" type="line"/>
      <point x="150" y="620" type="line"/>
    </contour>
  </outline>
</glyph>
<glyph name="uni007D" format="2">
  <advance width="600"/>
  <unicode hex="007D"/>
  <outline>
    <contour>
      <point x="218" y="80" type="line"/>
      <point x="350" y="80" type="line"/>
      <point x="350" y="620" type="line"/>
      <point x="218" y="620" type="line"/>
    </contour>
  </outline>
</glyph>
<glyph name="uni007E" format="2">
  <advance width="600"/>
  <unicode hex="007E"/>
  <outline>
    <contour>
      <point x="80" y="0" type="line"/>
      <point x="420" y="0" type="line"/>
      <point x="420" y="132" type="line"/>
      <point x="80" y="132" type="line"/>
    </contour>
    <contour>
      <point x="80" y="568" type="line"/>
      <point x="420" y="568" type="line"/>
      <point x="420" y="700" type="line"/>
      <point x="80" y="700" type="line"/>
    </contour>
    <contour>
      <point x="80" y="0" type="line"/>
      <point x="212" y="0" type="line"/>
      <point x="212" y="700" type="line"/>
      <point x="80" y="700" type="line"/>
    </contour>
    <contour>
      <point x="288" y="0" type="line"/>
      <point x="420" y="0" type="line"/>
      <point x="420" y="700" type="line"/>
      <point x="288" y="700" type="line"/>
    </contour>
  </outline>
</glyph>
<glyph name="uni00A1" format="2">
  <advance width="600"/>
  <unicode hex="00A1"/>
  <outline>
    <contour>
      <point x="234.0" y="0" type="line"/>
      <point x="366.0" y="0" type="line"/>
      <point x="366.0" y="425" type="line"/>
      <point x="234.0" y="425" type="line"/>
    </contour>
    <contour>
      <point x="366.0" y="520" type="curve" smooth="yes"/>
      <point x="366.0" y="556.4507935"/>
      <point x="336.4507935" y="586.0"/>
      <point x="300.0" y="586.0" type="curve" smooth="yes"/>
      <point x="263.5492065" y="586.0"/>
      <point x="234.0" y="556.4507935"/>
      <point x="234.0" y="520" type="curve" smooth="yes"/>
      <point x="234.0" y="483.5492065"/>
      <point x="263.5492065" y="454.0"/>
      <point x="300.0" y="454.0" type="curve" smooth="yes"/>
      <point x="336.4507935" y="454.0"/>
      <point x="366.0" y="483.5492065"/>
    </contour>
  </outline>
</glyph>
<glyph name="uni00AE" format="2">
  <advance width="600"/>
  <unicode hex="00AE"/>
  <outline>
    <contour>
      <point x="490.0" y="350" type="curve" smooth="yes"/>
      <point x="490.0" y="493.59403499999996"/>
      <point x="404.9341025" y="610"/>
      <point x="300.0" y="610" type="curve" smooth="yes"/>
      <point x="195.0658975" y="610"/>
      <point x="110.0" y="493.59403499999996"/>
      <point x="110.0" y="350" type="curve" smooth="yes"/>
      <point x="110.0" y="206.405965"/>
      <point x="195.0658975" y="90"/>
      <point x="300.0" y="90" type="curve" smooth="yes"/>
      <point x="404.9341025" y="90"/>
      <point x="490.0" y="206.405965"/>
    </contour>
    <contour>
      <point x="436.0" y="350" type="curve" smooth="yes"/>
      <point x="436.0" y="236.2293415"/>
      <point x="375.110726" y="144"/>
      <point x="300.0" y="144" type="curve" smooth="yes"/>
      <point x="224.889274" y="144"/>
      <point x="164.0" y="236.2293415"/>
      <point x="164.0" y="350" type="curve" smooth="yes"/>
      <point x="164.0" y="463.77065849999997"/>
      <point x="224.889274" y="556"/>
      <point x="300.0" y="556" type="curve" smooth="yes"/>
      <point x="375.110726" y="556"/>
      <point x="436.0" y="463.77065849999997"/>
    </contour>
    <contour>
      <point x="238.0" y="225" type="line"/>
      <point x="370.0" y="225" type="line"/>
      <point x="370.0" y="450" type="line"/>
      <point x="238.0" y="450" type="line"/>
    </contour>
    <contour>
      <point x="238.0" y="410" type="line"/>
      <point x="326.0" y="410" type="line"/>
      <point x="326.0" y="542" type="line"/>
      <point x="238.0" y="542" type="line"/>
    </contour>
    <contour>
      <point x="308.0" y="340" type="line"/>
      <point x="440.0" y="340" type="line"/>
      <point x="440.0" y="435" type="line"/>
      <point x="308.0" y="435" type="line"/>
    </contour>
    <contour>
      <point x="354.0948636437986" y="371.3207090949175" type="line"/>
      <point x="416.0948636437986" y="256.3207090949175" type="line"/>
      <point x="299.9051363562014" y="193.6792909050825" type="line"/>
      <point x="237.9051363562014" y="308.6792909050825" type="line"/>
    </contour>
  </outline>
</glyph>
<glyph name="uni00B0" format="2">
  <advance width="600"/>
  <unicode hex="00B0"/>
  <outline>
    <contour>
      <point x="370.0" y="500" type="curve" smooth="yes"/>
      <point x="370.0" y="538.6599325"/>
      <point x="338.65993249999997" y="570"/>
      <point x="300.0" y="570" type="curve" smooth="yes"/>
      <point x="261.34006750000003" y="570"/>
      <point x="230.0" y="538.6599325"/>
      <point x="230.0" y="500" type="curve" smooth="yes"/>
      <point x="230.0" y="461.34006750000003"/>
      <point x="261.34006750000003" y="430"/>
      <point x="300.0" y="430" type="curve" smooth="yes"/>
      <point x="338.65993249999997" y="430"/>
      <point x="370.0" y="461.34006750000003"/>
    </contour>
    <contour>
      <point x="308.0" y="500" type="curve" smooth="yes"/>
      <point x="308.0" y="495.581722"/>
      <point x="304.418278" y="492"/>
      <point x="300.0" y="492" type="curve" smooth="yes"/>
      <point x="295.581722" y="492"/>
      <point x="292.0" y="495.581722"/>
      <point x="292.0" y="500" type="curve" smooth="yes"/>
      <point x="292.0" y="504.418278"/>
      <point x="295.581722" y="508"/>
      <point x="300.0" y="508" type="curve" smooth="yes"/>
      <point x="304.418278" y="508"/>
      <point x="308.0" y="504.418278"/>
    </contour>
  </outline>
</glyph>
<glyph name="uni00B1" format="2">
  <advance width="600"/>
  <unicode hex="00B1"/>
  <outline>
    <contour>
      <point x="150.0" y="410" type="line"/>
      <point x="450.0" y="410" type="line"/>
      <point x="450.0" y="542" type="line"/>
      <point x="150.0" y="542" type="line"/>
    </contour>
    <contour>
      <point x="234.0" y="270" type="line"/>
      <point x="366.0" y="270" type="line"/>
      <point x="366.0" y="550" type="line"/>
      <point x="234.0" y="550" type="line"/>
    </contour>
    <contour>
      <point x="150.0" y="120" type="line"/>
      <point x="450.0" y="120" type="line"/>
      <point x="450.0" y="252" type="line"/>
      <point x="150.0" y="252" type="line"/>
    </contour>
  </outline>
</glyph>
<glyph name="uni00B5" format="2">
  <advance width="600"/>
  <unicode hex="00B5"/>
  <outline>
    <contour>
      <point x="80" y="0" type="line"/>
      <point x="212" y="0" type="line"/>
      <point x="212" y="555" type="line"/>
      <point x="80" y="555" type="line"/>
    </contour>
    <contour>
      <point x="388" y="-210" type="line"/>
      <point x="520" y="-210" type="line"/>
      <point x="520" y="555" type="line"/>
      <point x="388" y="555" type="line"/>
    </contour>
    <contour>
      <point x="145" y="0" type="line"/>
      <point x="520" y="0" type="line"/>
      <point x="520" y="132" type="line"/>
      <point x="145" y="132" type="line"/>
    </contour>
  </outline>
</glyph>
<glyph name="uni00B7" format="2">
  <advance width="600"/>
  <unicode hex="00B7"/>
  <outline>
    <contour>
      <point x="366.0" y="280" type="curve" smooth="yes"/>
      <point x="366.0" y="316.4507935"/>
      <point x="336.4507935" y="346.0"/>
      <point x="300.0" y="346.0" type="curve" smooth="yes"/>
      <point x="263.5492065" y="346.0"/>
      <point x="234.0" y="316.4507935"/>
      <point x="234.0" y="280" type="curve" smooth="yes"/>
      <point x="234.0" y="243.5492065"/>
      <point x="263.5492065" y="214.0"/>
      <point x="300.0" y="214.0" type="curve" smooth="yes"/>
      <point x="336.4507935" y="214.0"/>
      <point x="366.0" y="243.5492065"/>
    </contour>
  </outline>
</glyph>
<glyph name="uni00D1" format="2">
  <advance width="600"/>
  <unicode hex="00D1"/>
  <outline>
    <contour>
      <point x="219.92169974201187" y="787.540428939983" type="line"/>
      <point x="259.92169974201187" y="815.540428939983" type="line"/>
      <point x="304.07830025798813" y="752.459571060017" type="line"/>
      <point x="264.07830025798813" y="724.459571060017" type="line"/>
    </contour>
    <contour>
      <point x="304.07830025798813" y="815.540428939983" type="line"/>
      <point x="344.07830025798813" y="787.540428939983" type="line"/>
      <point x="299.92169974201187" y="724.459571060017" type="line"/>
      <point x="259.92169974201187" y="752.459571060017" type="line"/>
    </contour>
    <contour>
      <point x="299.1618370350808" y="786.9946497381046" type="line"/>
      <point x="337.1618370350808" y="814.9946497381046" type="line"/>
      <point x="382.8381629649192" y="753.0053502618954" type="line"/>
      <point x="344.8381629649192" y="725.0053502618954" type="line"/>
    </contour>
    <component base="N"/>
  </outline>
</glyph>
<glyph name="uni00D7" format="2">
  <advance width="600"/>
  <unicode hex="00D7"/>
  <outline>
    <contour>
      <point x="123.33095244168787" y="256.6690475583121" type="line"/>
      <point x="383.3309524416879" y="516.6690475583122" type="line"/>
      <point x="476.6690475583121" y="423.3309524416879" type="line"/>
      <point x="216.66904755831212" y="163.33095244168788" type="line"/>
    </contour>
    <contour>
      <point x="383.3309524416879" y="163.33095244168788" type="line"/>
      <point x="123.33095244168787" y="423.3309524416879" type="line"/>
      <point x="216.66904755831212" y="516.6690475583122" type="line"/>
      <point x="476.6690475583121" y="256.6690475583121" type="line"/>
    </contour>
  </outline>
</glyph>
<glyph name="uni00E3" format="2">
  <advance width="600"/>
  <unicode hex="00E3"/>
  <outline>
    <contour>
      <point x="238.0" y="605" type="line"/>
      <point x="262.0" y="631" type="line"/>
      <point x="286.0" y="631" type="line"/>
      <point x="310.0" y="605" type="line"/>
      <point x="334.0" y="605" type="line"/>
      <point x="362.0" y="631" type="line"/>
      <point x="362.0" y="586.34" type="line"/>
      <point x="334.0" y="560.34" type="line"/>
      <point x="310.0" y="560.34" type="line"/>
      <point x="286.0" y="586.34" type="line"/>
      <point x="262.0" y="586.34" type="line"/>
      <point x="238.0" y="560.34" type="line"/>
    </contour>
    <component base="a"/>
  </outline>
</glyph>
<glyph name="uni00E7" format="2">
  <advance width="600"/>
  <unicode hex="00E7"/>
  <outline>
    <contour>
      <point x="338.5" y="-105.0" type="curve" smooth="yes"/>
      <point x="338.5" y="-83.737037125"/>
      <point x="321.26296287499997" y="-66.5"/>
      <point x="300.0" y="-66.5" type="curve" smooth="yes"/>
      <point x="278.73703712500003" y="-66.5"/>
      <point x="261.5" y="-83.737037125"/>
      <point x="261.5" y="-105.0" type="curve" smooth="yes"/>
      <point x="261.5" y="-126.262962875"/>
      <point x="278.73703712500003" y="-143.5"/>
      <point x="300.0" y="-143.5" type="curve" smooth="yes"/>
      <point x="321.26296287499997" y="-143.5"/>
      <point x="338.5" y="-126.262962875"/>
    </contour>
    <contour>
      <point x="337.9425675655239" y="-18.527753559660027" type="line"/>
      <point x="305.9425675655239" y="-204.52775355966003" type="line"/>
      <point x="230.0574324344761" y="-191.47224644033997" type="line"/>
      <point x="262.0574324344761" y="-5.472246440339974" type="line"/>
    </contour>
    <component base="c"/>
  </outline>
</glyph>
<glyph name="uni00EF" format="2">
  <advance width="600"/>
  <unicode hex="00EF"/>
  <outline>
    <contour>
      <point x="300.5" y="615" type="curve" smooth="yes"/>
      <point x="300.5" y="636.262962875"/>
      <point x="283.26296287499997" y="653.5"/>
      <point x="262.0" y="653.5" type="curve" smooth="yes"/>
      <point x="240.737037125" y="653.5"/>
      <point x="223.5" y="636.262962875"/>
      <point x="223.5" y="615" type="curve" smooth="yes"/>
      <point x="223.5" y="593.737037125"/>
      <point x="240.737037125" y="576.5"/>
      <point x="262.0" y="576.5" type="curve" smooth="yes"/>
      <point x="283.26296287499997" y="576.5"/>
      <point x="300.5" y="593.737037125"/>
    </contour>
    <contour>
      <point x="376.5" y="615" type="curve" smooth="yes"/>
      <point x="376.5" y="636.262962875"/>
      <point x="359.26296287499997" y="653.5"/>
      <point x="338.0" y="653.5" type="curve" smooth="yes"/>
      <point x="316.73703712500003" y="653.5"/>
      <point x="299.5" y="636.262962875"/>
      <point x="299.5" y="615" type="curve" smooth="yes"/>
      <point x="299.5" y="593.737037125"/>
      <point x="316.73703712500003" y="576.5"/>
      <point x="338.0" y="576.5" type="curve" smooth="yes"/>
      <point x="359.26296287499997" y="576.5"/>
      <point x="376.5" y="593.737037125"/>
    </contour>
    <component base="i"/>
  </outline>
</glyph>
<glyph name="uni00F5" format="2">
  <advance width="600"/>
  <unicode hex="00F5"/>
  <outline>
    <contour>
      <point x="219.92169974201187" y="638.540428939983" type="line"/>
      <point x="259.92169974201187" y="666.540428939983" type="line"/>
      <point x="304.07830025798813" y="603.459571060017" type="line"/>
      <point x="264.07830025798813" y="575.459571060017" type="line"/>
    </contour>
    <contour>
      <point x="304.07830025798813" y="666.540428939983" type="line"/>
      <point x="344.07830025798813" y="638.540428939983" type="line"/>
      <point x="299.92169974201187" y="575.459571060017" type="line"/>
      <point x="259.92169974201187" y="603.459571060017" type="line"/>
    </contour>
    <contour>
      <point x="299.1618370350808" y="637.9946497381046" type="line"/>
      <point x="337.1618370350808" y="665.9946497381046" type="line"/>
      <point x="382.8381629649192" y="604.0053502618954" type="line"/>
      <point x="344.8381629649192" y="576.0053502618954" type="line"/>
    </contour>
    <component base="o"/>
  </outline>
</glyph>
<glyph name="uni00F7" format="2">
  <advance width="600"/>
  <unicode hex="00F7"/>
  <outline>
    <contour>
      <point x="150.0" y="320" type="line"/>
      <point x="450.0" y="320" type="line"/>
      <point x="450.0" y="452" type="line"/>
      <point x="150.0" y="452" type="line"/>
    </contour>
    <contour>
      <point x="366.0" y="500" type="curve" smooth="yes"/>
      <point x="366.0" y="536.4507935"/>
      <point x="336.4507935" y="566.0"/>
      <point x="300.0" y="566.0" type="curve" smooth="yes"/>
      <point x="263.5492065" y="566.0"/>
      <point x="234.0" y="536.4507935"/>
      <point x="234.0" y="500" type="curve" smooth="yes"/>
      <point x="234.0" y="463.5492065"/>
      <point x="263.5492065" y="434.0"/>
      <point x="300.0" y="434.0" type="curve" smooth="yes"/>
      <point x="336.4507935" y="434.0"/>
      <point x="366.0" y="463.5492065"/>
    </contour>
    <contour>
      <point x="366.0" y="140" type="curve" smooth="yes"/>
      <point x="366.0" y="176.4507935"/>
      <point x="336.4507935" y="206.0"/>
      <point x="300.0" y="206.0" type="curve" smooth="yes"/>
      <point x="263.5492065" y="206.0"/>
      <point x="234.0" y="176.4507935"/>
      <point x="234.0" y="140" type="curve" smooth="yes"/>
      <point x="234.0" y="103.5492065"/>
      <point x="263.5492065" y="74.0"/>
      <point x="300.0" y="74.0" type="curve" smooth="yes"/>
      <point x="336.4507935" y="74.0"/>
      <point x="366.0" y="103.5492065"/>
    </contour>
  </outline>
</glyph>
<glyph name="uni0110" format="2">
  <advance width="600"/>
  <unicode hex="0110"/>
  <outline>
    <contour>
      <point x="129.93651486375472" y="117.01831134154557" type="line"/>
      <point x="405.9365148637547" y="637.0183113415455" type="line"/>
      <point x="470.0634851362453" y="602.9816886584545" type="line"/>
      <point x="194.06348513624528" y="82.98168865845443" type="line"/>
    </contour>
    <component base="D"/>
  </outline>
</glyph>
<glyph name="uni0112" format="2">
  <advance width="600"/>
  <unicode hex="0112"/>
  <outline>
    <contour>
      <point x="232.0" y="746" type="line"/>
      <point x="368.0" y="746" type="line"/>
      <point x="368.0" y="823" type="line"/>
      <point x="232.0" y="823" type="line"/>
    </contour>
    <component base="E"/>
  </outline>
</glyph>
<glyph name="uni0118" format="2">
  <advance width="600"/>
  <unicode hex="0118"/>
  <outline>
    <contour>
      <point x="349.45521047809217" y="18.908266275870574" type="line"/>
      <point x="393.45521047809217" y="-166.09173372412943" type="line"/>
      <point x="318.54478952190783" y="-183.90826627587057" type="line"/>
      <point x="274.54478952190783" y="1.0917337241294263" type="line"/>
    </contour>
    <component base="E"/>
  </outline>
</glyph>
<glyph name="uni0125" format="2">
  <advance width="600"/>
  <unicode hex="0125"/>
  <outline>
    <contour>
      <point x="212.89164026619738" y="597.1982815606052" type="line"/>
      <point x="270.8916402661974" y="664.1982815606052" type="line"/>
      <point x="329.1083597338026" y="613.8017184393948" type="line"/>
      <point x="271.1083597338026" y="546.8017184393948" type="line"/>
    </contour>
    <contour>
      <point x="329.1083597338026" y="664.1982815606052" type="line"/>
      <point x="387.1083597338026" y="597.1982815606052" type="line"/>
      <point x="328.8916402661974" y="546.8017184393948" type="line"/>
      <point x="270.8916402661974" y="613.8017184393948" type="line"/>
    </contour>
    <component base="h"/>
  </outline>
</glyph>
<glyph name="uni013F" format="2">
  <advance width="600"/>
  <unicode hex="013F"/>
  <outline>
    <contour>
      <point x="477.6" y="266.4" type="curve" smooth="yes"/>
      <point x="477.6" y="288.2704761"/>
      <point x="459.8704761" y="306.0"/>
      <point x="438.0" y="306.0" type="curve" smooth="yes"/>
      <point x="416.1295239" y="306.0"/>
      <point x="398.4" y="288.2704761"/>
      <point x="398.4" y="266.4" type="curve" smooth="yes"/>
      <point x="398.4" y="244.5295239"/>
      <point x="416.1295239" y="226.79999999999998"/>
      <point x="438.0" y="226.79999999999998" type="curve" smooth="yes"/>
      <point x="459.8704761" y="226.79999999999998"/>
      <point x="477.6" y="244.5295239"/>
    </contour>
    <component base="L"/>
  </outline>
</glyph>
<glyph name="uni0149" format="2">
  <advance width="600"/>
  <unicode hex="0149"/>
  <outline>
    <contour>
      <point x="161.50555310017447" y="553.2038078401197" type="line"/>
      <point x="113.50555310017445" y="623.2038078401197" type="line"/>
      <point x="162.49444689982553" y="656.7961921598803" type="line"/>
      <point x="210.49444689982553" y="586.7961921598803" type="line"/>
    </contour>
    <component base="n"/>
  </outline>
</glyph>
<glyph name="uni0151" format="2">
  <advance width="600"/>
  <unicode hex="0151"/>
  <outline>
    <contour>
      <point x="213.48168725139365" y="594.1098611818582" type="line"/>
      <point x="260.4816872513937" y="661.1098611818582" type="line"/>
      <point x="323.5183127486063" y="616.8901388181418" type="line"/>
      <point x="276.5183127486063" y="549.8901388181418" type="line"/>
    </contour>
    <contour>
      <point x="276.4816872513937" y="594.1098611818582" type="line"/>
      <point x="323.4816872513937" y="661.1098611818582" type="line"/>
      <point x="386.5183127486063" y="616.8901388181418" type="line"/>
      <point x="339.5183127486063" y="549.8901388181418" type="line"/>
    </contour>
    <component base="o"/>
  </outline>
</glyph>
<glyph name="uni0169" format="2">
  <advance width="600"/>
  <unicode hex="0169"/>
  <outline>
    <contour>
      <point x="238.0" y="605" type="line"/>
      <point x="262.0" y="631" type="line"/>
      <point x="286.0" y="631" type="line"/>
      <point x="310.0" y="605" type="line"/>
      <point x="334.0" y="605" type="line"/>
      <point x="362.0" y="631" type="line"/>
      <point x="362.0" y="586.34" type="line"/>
      <point x="334.0" y="560.34" type="line"/>
      <point x="310.0" y="560.34" type="line"/>
      <point x="286.0" y="586.34" type="line"/>
      <point x="262.0" y="586.34" type="line"/>
      <point x="238.0" y="560.34" type="line"/>
    </contour>
    <component base="u"/>
  </outline>
</glyph>
<glyph name="uni0174" format="2">
  <advance width="600"/>
  <unicode hex="0174"/>
  <outline>
    <contour>
      <point x="212.89164026619738" y="746.1982815606052" type="line"/>
      <point x="270.8916402661974" y="813.1982815606052" type="line"/>
      <point x="329.1083597338026" y="762.8017184393948" type="line"/>
      <point x="271.1083597338026" y="695.8017184393948" type="line"/>
    </contour>
    <contour>
      <point x="329.1083597338026" y="813.1982815606052" type="line"/>
      <point x="387.1083597338026" y="746.1982815606052" type="line"/>
      <point x="328.8916402661974" y="695.8017184393948" type="line"/>
      <point x="270.8916402661974" y="762.8017184393948" type="line"/>
    </contour>
    <component base="W"/>
  </outline>
</glyph>
<glyph name="uni0178" format="2">
  <advance width="600"/>
  <unicode hex="0178"/>
  <outline>
    <contour>
      <point x="300.5" y="764" type="curve" smooth="yes"/>
      <point x="300.5" y="785.262962875"/>
      <point x="283.26296287499997" y="802.5"/>
      <point x="262.0" y="802.5" type="curve" smooth="yes"/>
      <point x="240.737037125" y="802.5"/>
      <point x="223.5" y="785.262962875"/>
      <point x="223.5" y="764" type="curve" smooth="yes"/>
      <point x="223.5" y="742.737037125"/>
      <point x="240.737037125" y="725.5"/>
      <point x="262.0" y="725.5" type="curve" smooth="yes"/>
      <point x="283.26296287499997" y="725.5"/>
      <point x="300.5" y="742.737037125"/>
    </contour>
    <contour>
      <point x="376.5" y="764" type="curve" smooth="yes"/>
      <point x="376.5" y="785.262962875"/>
      <point x="359.26296287499997" y="802.5"/>
      <point x="338.0" y="802.5" type="curve" smooth="yes"/>
      <point x="316.73703712500003" y="802.5"/>
      <point x="299.5" y="785.262962875"/>
      <point x="299.5" y="764" type="curve" smooth="yes"/>
      <point x="299.5" y="742.737037125"/>
      <point x="316.73703712500003" y="725.5"/>
      <point x="338.0" y="725.5" type="curve" smooth="yes"/>
      <point x="359.26296287499997" y="725.5"/>
      <point x="376.5" y="742.737037125"/>
    </contour>
    <component base="Y"/>
  </outline>
</glyph>
<glyph name="uni017B" format="2">
  <advance width="600"/>
  <unicode hex="017B"/>
  <outline>
    <contour>
      <point x="338.5" y="764" type="curve" smooth="yes"/>
      <point x="338.5" y="785.262962875"/>
      <point x="321.26296287499997" y="802.5"/>
      <point x="300.0" y="802.5" type="curve" smooth="yes"/>
      <point x="278.73703712500003" y="802.5"/>
      <point x="261.5" y="785.262962875"/>
      <point x="261.5" y="764" type="curve" smooth="yes"/>
      <point x="261.5" y="742.737037125"/>
      <point x="278.73703712500003" y="725.5"/>
      <point x="300.0" y="725.5" type="curve" smooth="yes"/>
      <point x="321.26296287499997" y="725.5"/>
      <point x="338.5" y="742.737037125"/>
    </contour>
    <component base="Z"/>
  </outline>
</glyph>
<glyph name="uni017C" format="2">
  <advance width="600"/>
  <unicode hex="017C"/>
  <outline>
    <contour>
      <point x="338.5" y="615" type="curve" smooth="yes"/>
      <point x="338.5" y="636.262962875"/>
      <point x="321.26296287499997" y="653.5"/>
      <point x="300.0" y="653.5" type="curve" smooth="yes"/>
      <point x="278.73703712500003" y="653.5"/>
      <point x="261.5" y="636.262962875"/>
      <point x="261.5" y="615" type="curve" smooth="yes"/>
      <point x="261.5" y="593.737037125"/>
      <point x="278.73703712500003" y="576.5"/>
      <point x="300.0" y="576.5" type="curve" smooth="yes"/>
      <point x="321.26296287499997" y="576.5"/>
      <point x="338.5" y="593.737037125"/>
    </contour>
    <component base="z"/>
  </outline>
</glyph>
<glyph name="uni01A0" format="2">
  <advance width="600"/>
  <unicode hex="01A0"/>
  <outline>
    <contour>
      <point x="362.0" y="752" type="line"/>
      <point x="384.0" y="760" type="line"/>
      <point x="416.0" y="794" type="line"/>
      <point x="381.35" y="794" type="line"/>
      <point x="345.35" y="766" type="line"/>
      <point x="362.0" y="717.35" type="line"/>
    </contour>
    <component base="O"/>
  </outline>
</glyph>
<glyph name="uni01A1" format="2">
  <advance width="600"/>
  <unicode hex="01A1"/>
  <outline>
    <contour>
      <point x="362.0" y="603" type="line"/>
      <point x="384.0" y="611" type="line"/>
      <point x="416.0" y="645" type="line"/>
      <point x="381.35" y="645" type="line"/>
      <point x="345.35" y="617" type="line"/>
      <point x="362.0" y="568.35" type="line"/>
    </contour>
    <component base="o"/>
  </outline>
</glyph>
<glyph name="uni01AF" format="2">
  <advance width="600"/>
  <unicode hex="01AF"/>
  <outline>
    <contour>
      <point x="362.0" y="752" type="line"/>
      <point x="384.0" y="760" type="line"/>
      <point x="416.0" y="794" type="line"/>
      <point x="381.35" y="794" type="line"/>
      <point x="345.35" y="766" type="line"/>
      <point x="362.0" y="717.35" type="line"/>
    </contour>
    <component base="U"/>
  </outline>
</glyph>
<glyph name="uni01B0" format="2">
  <advance width="600"/>
  <unicode hex="01B0"/>
  <outline>
    <contour>
      <point x="362.0" y="603" type="line"/>
      <point x="384.0" y="611" type="line"/>
      <point x="416.0" y="645" type="line"/>
      <point x="381.35" y="645" type="line"/>
      <point x="345.35" y="617" type="line"/>
      <point x="362.0" y="568.35" type="line"/>
    </contour>
    <component base="u"/>
  </outline>
</glyph>
<glyph name="uni021A" format="2">
  <advance width="600"/>
  <unicode hex="021A"/>
  <outline>
    <contour>
      <point x="338.5" y="-105.0" type="curve" smooth="yes"/>
      <point x="338.5" y="-83.737037125"/>
      <point x="321.26296287499997" y="-66.5"/>
      <point x="300.0" y="-66.5" type="curve" smooth="yes"/>
      <point x="278.73703712500003" y="-66.5"/>
      <point x="261.5" y="-83.737037125"/>
      <point x="261.5" y="-105.0" type="curve" smooth="yes"/>
      <point x="261.5" y="-126.262962875"/>
      <point x="278.73703712500003" y="-143.5"/>
      <point x="300.0" y="-143.5" type="curve" smooth="yes"/>
      <point x="321.26296287499997" y="-143.5"/>
      <point x="338.5" y="-126.262962875"/>
    </contour>
    <contour>
      <point x="342.18344786540996" y="-16.926896498762577" type="line"/>
      <point x="318.18344786540996" y="-202.92689649876257" type="line"/>
      <point x="241.81655213459004" y="-193.07310350123743" type="line"/>
      <point x="265.81655213459004" y="-7.073103501237423" type="line"/>
    </contour>
    <component base="T"/>
  </outline>
</glyph>
<glyph name="uni038A" format="2">
  <advance width="600"/>
  <unicode hex="038A"/>
  <outline>
    <contour>
      <point x="234.42516085642083" y="730.8677919860515" type="line"/>
      <point x="310.4251608564208" y="808.8677919860515" type="line"/>
      <point x="365.5748391435792" y="755.1322080139485" type="line"/>
      <point x="289.5748391435792" y="677.1322080139485" type="line"/>
    </contour>
    <component base="I"/>
  </outline>
</glyph>
<glyph name="uni0393" format="2">
  <advance width="600"/>
  <unicode hex="0393"/>
  <outline>
    <contour>
      <point x="76" y="0" type="curve"/>
      <point x="172" y="0" type="line"/>
      <point x="181.9411255" y="0"/>
      <point x="190" y="8.0588745"/>
      <point x="190" y="18" type="curve"/>
      <point x="190" y="682" type="line"/>
      <point x="190" y="691.9411255"/>
      <point x="181.9411255" y="700"/>
      <point x="172" y="700" type="curve"/>
      <point x="76" y="700" type="line"/>
      <point x="66.0588745" y="700"/>
      <point x="58" y="691.9411255"/>
      <point x="58" y="682" type="curve"/>
      <point x="58" y="18" type="line"/>
      <point x="58" y="8.0588745"/>
      <point x="66.0588745" y="0"/>
    </contour>
    <contour>
      <point x="58" y="568" type="line"/>
      <point x="408" y="568" type="line"/>
      <point x="408" y="700" type="line"/>
      <point x="58" y="700" type="line"/>
    </contour>
  </outline>
</glyph>
<glyph name="uni0394" format="2">
  <advance width="600"/>
  <unicode hex="0394"/>
  <outline>
    <contour>
      <point x="4.123714551974047" y="16.607834216486747" type="line"/>
      <point x="186.12371455197405" y="716.6078342164867" type="line"/>
      <point x="313.87628544802595" y="683.3921657835133" type="line"/>
      <point x="131.87628544802595" y="-16.607834216486747" type="line"/>
    </contour>
    <contour>
      <point x="368.12371455197405" y="-16.607834216486747" type="line"/>
      <point x="186.12371455197405" y="683.3921657835133" type="line"/>
      <point x="313.87628544802595" y="716.6078342164867" type="line"/>
      <point x="495.87628544802595" y="16.607834216486747" type="line"/>
    </contour>
    <contour>
      <point x="90" y="0" type="curve"/>
      <point x="410" y="0" type="line"/>
      <point x="419.9411255" y="0"/>
      <point x="428" y="8.0588745"/>
      <point x="428" y="18" type="curve"/>
      <point x="428" y="114" type="line"/>
      <point x="428" y="123.9411255"/>
      <point x="419.9411255" y="132"/>
      <point x="410" y="132" type="curve"/>
      <point x="90" y="132" type="line"/>
      <point x="80.0588745" y="132"/>
      <point x="72" y="123.9411255"/>
      <point x="72" y="114" type="curve"/>
      <point x="72" y="18" type="line"/>
      <point x="72" y="8.0588745"/>
      <point x="80.0588745" y="0"/>
    </contour>
  </outline>
</glyph>
<glyph name="uni039B" format="2">
  <advance width="600"/>
  <unicode hex="039B"/>
  <outline>
    <contour>
      <point x="4.123714551974047" y="16.607834216486747" type="line"/>
      <point x="186.12371455197405" y="716.6078342164867" type="line"/>
      <point x="313.87628544802595" y="683.3921657835133" type="line"/>
      <point x="131.87628544802595" y="-16.607834216486747" type="line"/>
    </contour>
    <contour>
      <point x="368.12371455197405" y="-16.607834216486747" type="line"/>
      <point x="186.12371455197405" y="683.3921657835133" type="line"/>
      <point x="313.87628544802595" y="716.6078342164867" type="line"/>
      <point x="495.87628544802595" y="16.607834216486747" type="line"/>
    </contour>
  </outline>
</glyph>
<glyph name="uni03A0" format="2">
  <advance width="600"/>
  <unicode hex="03A0"/>
  <outline>
    <contour>
      <point x="78" y="0" type="curve"/>
      <point x="174" y="0" type="line"/>
      <point x="183.9411255" y="0"/>
      <point x="192" y="8.0588745"/>
      <point x="192" y="18" type="curve"/>
      <point x="192" y="682" type="line"/>
      <point x="192" y="691.9411255"/>
      <point x="183.9411255" y="700"/>
      <point x="174" y="700" type="curve"/>
      <point x="78" y="700" type="line"/>
      <point x="68.0588745" y="700"/>
      <point x="60" y="691.9411255"/>
      <point x="60" y="682" type="curve"/>
      <point x="60" y="18" type="line"/>
      <point x="60" y="8.0588745"/>
      <point x="68.0588745" y="0"/>
    </contour>
    <contour>
      <point x="394" y="0" type="curve"/>
      <point x="490" y="0" type="line"/>
      <point x="499.9411255" y="0"/>
      <point x="508" y="8.0588745"/>
      <point x="508" y="18" type="curve"/>
      <point x="508" y="682" type="line"/>
      <point x="508" y="691.9411255"/>
      <point x="499.9411255" y="700"/>
      <point x="490" y="700" type="curve"/>
      <point x="394" y="700" type="line"/>
      <point x="384.0588745" y="700"/>
      <point x="376" y="691.9411255"/>
      <point x="376" y="682" type="curve"/>
      <point x="376" y="18" type="line"/>
      <point x="376" y="8.0588745"/>
      <point x="384.0588745" y="0"/>
    </contour>
    <contour>
      <point x="60" y="568" type="line"/>
      <point x="440" y="568" type="line"/>
      <point x="440" y="700" type="line"/>
      <point x="60" y="700" type="line"/>
    </contour>
  </outline>
</glyph>
<glyph name="uni03A3" format="2">
  <advance width="600"/>
  <unicode hex="03A3"/>
  <outline>
    <contour>
      <point x="100" y="568" type="curve"/>
      <point x="404" y="568" type="line"/>
      <point x="413.9411255" y="568"/>
      <point x="422" y="576.0588745"/>
      <point x="422" y="586" type="curve"/>
      <point x="422" y="682" type="line"/>
      <point x="422" y="691.9411255"/>
      <point x="413.9411255" y="700"/>
      <point x="404" y="700" type="curve"/>
      <point x="100" y="700" type="line"/>
      <point x="90.0588745" y="700"/>
      <point x="82" y="691.9411255"/>
      <point x="82" y="682" type="curve"/>
      <point x="82" y="586" type="line"/>
      <point x="82" y="576.0588745"/>
      <point x="90.0588745" y="568"/>
    </contour>
    <contour>
      <point x="447.7134116480929" y="590.5882884199752" type="line"/>
      <point x="199.71341164809292" y="306.5882884199752" type="line"/>
      <point x="100.28658835190708" y="393.4117115800248" type="line"/>
      <point x="348.2865883519071" y="677.4117115800248" type="line"/>
    </contour>
    <contour>
      <point x="199.71341164809292" y="393.4117115800248" type="line"/>
      <point x="447.7134116480929" y="109.4117115800248" type="line"/>
      <point x="348.2865883519071" y="22.5882884199752" type="line"/>
      <point x="100.28658835190708" y="306.5882884199752" type="line"/>
    </contour>
    <contour>
      <point x="100" y="0" type="curve"/>
      <point x="404" y="0" type="line"/>
      <point x="413.9411255" y="0"/>
      <point x="422" y="8.0588745"/>
      <point x="422" y="18" type="curve"/>
      <point x="422" y="114" type="line"/>
      <point x="422" y="123.9411255"/>
      <point x="413.9411255" y="132"/>
      <point x="404" y="132" type="curve"/>
      <point x="100" y="132" type="line"/>
      <point x="90.0588745" y="132"/>
      <point x="82" y="123.9411255"/>
      <point x="82" y="114" type="curve"/>
      <point x="82" y="18" type="line"/>
      <point x="82" y="8.0588745"/>
      <point x="90.0588745" y="0"/>
    </contour>
  </outline>
</glyph>
<glyph name="uni03A6" format="2">
  <advance width="600"/>
  <unicode hex="03A6"/>
  <outline>
    <contour>
      <point x="428" y="350.0" type="curve"/>
      <point x="428" y="488.0711875"/>
      <point x="348.3066855" y="600.0"/>
      <point x="250" y="600.0" type="curve"/>
      <point x="151.69331449999999" y="600.0"/>
      <point x="72" y="488.0711875"/>
      <point x="72" y="350.0" type="curve"/>
      <point x="72" y="211.9288125"/>
      <point x="151.69331449999999" y="100.0"/>
      <point x="250" y="100.0" type="curve"/>
      <point x="348.3066855" y="100.0"/>
      <point x="428" y="211.9288125"/>
    </contour>
    <contour>
      <point x="296" y="350.0" type="curve"/>
      <point x="296" y="284.8303995"/>
      <point x="275.4050985" y="232.0"/>
      <point x="250" y="232.0" type="curve"/>
      <point x="224.5949015" y="232.0"/>
      <point x="204" y="284.8303995"/>
      <point x="204" y="350.0" type="curve"/>
      <point x="204" y="415.1696005"/>
      <point x="224.5949015" y="468.0"/>
      <point x="250" y="468.0" type="curve"/>
      <point x="275.4050985" y="468.0"/>
      <point x="296" y="415.1696005"/>
    </contour>
    <contour>
      <point x="202.0" y="-56" type="curve"/>
      <point x="298.0" y="-56" type="line"/>
      <point x="307.9411255" y="-56"/>
      <point x="316.0" y="-47.9411255"/>
      <point x="316.0" y="-38" type="curve"/>
      <point x="316.0" y="738" type="line"/>
      <point x="316.0" y="747.9411255"/>
      <point x="307.9411255" y="756"/>
      <point x="298.0" y="756" type="curve"/>
      <point x="202.0" y="756" type="line"/>
      <point x="192.0588745" y="756"/>
      <point x="184.0" y="747.9411255"/>
      <point x="184.0" y="738" type="curve"/>
      <point x="184.0" y="-38" type="line"/>
      <point x="184.0" y="-47.9411255"/>
      <point x="192.0588745" y="-56"/>
    </contour>
  </outline>
</glyph>
<glyph name="uni03A8" format="2">
  <advance width="600"/>
  <unicode hex="03A8"/>
  <outline>
    <contour>
      <point x="428" y="478" type="curve"/>
      <point x="428" y="575.202116"/>
      <point x="348.3066855" y="654"/>
      <point x="250" y="654" type="curve"/>
      <point x="151.69331449999999" y="654"/>
      <point x="72" y="575.202116"/>
      <point x="72" y="478" type="curve"/>
      <point x="72" y="380.797884"/>
      <point x="151.69331449999999" y="302"/>
      <point x="250" y="302" type="curve"/>
      <point x="348.3066855" y="302"/>
      <point x="428" y="380.797884"/>
    </contour>
    <contour>
      <point x="296" y="478" type="curve"/>
      <point x="296" y="453.699471"/>
      <point x="275.4050985" y="434"/>
      <point x="250" y="434" type="curve"/>
      <point x="224.5949015" y="434"/>
      <point x="204" y="453.699471"/>
      <point x="204" y="478" type="curve"/>
      <point x="204" y="502.300529"/>
      <point x="224.5949015" y="522"/>
      <point x="250" y="522" type="curve"/>
      <point x="275.4050985" y="522"/>
      <point x="296" y="502.300529"/>
    </contour>
    <contour>
      <point x="202.0" y="0" type="curve"/>
      <point x="298.0" y="0" type="line"/>
      <point x="307.9411255" y="0"/>
      <point x="316.0" y="8.0588745"/>
      <point x="316.0" y="18" type="curve"/>
      <point x="316.0" y="452" type="line"/>
      <point x="316.0" y="461.9411255"/>
      <point x="307.9411255" y="470"/>
      <point x="298.0" y="470" type="curve"/>
      <point x="202.0" y="470" type="line"/>
      <point x="192.0588745" y="470"/>
      <point x="184.0" y="461.9411255"/>
      <point x="184.0" y="452" type="curve"/>
      <point x="184.0" y="18" type="line"/>
      <point x="184.0" y="8.0588745"/>
      <point x="192.0588745" y="0"/>
    </contour>
  </outline>
</glyph>
<glyph name="uni03A9" format="2">
  <advance width="600"/>
  <unicode hex="03A9"/>
  <outline>
    <contour>
      <point x="76" y="0" type="curve"/>
      <point x="152" y="0" type="line"/>
      <point x="161.9411255" y="0"/>
      <point x="170" y="8.0588745"/>
      <point x="170" y="18" type="curve"/>
      <point x="170" y="114" type="line"/>
      <point x="170" y="123.9411255"/>
      <point x="161.9411255" y="132"/>
      <point x="152" y="132" type="curve"/>
      <point x="76" y="132" type="line"/>
      <point x="66.0588745" y="132"/>
      <point x="58" y="123.9411255"/>
      <point x="58" y="114" type="curve"/>
      <point x="58" y="18" type="line"/>
      <point x="58" y="8.0588745"/>
      <point x="66.0588745" y="0"/>
    </contour>
    <contour>
      <point x="348" y="0" type="curve"/>
      <point x="424" y="0" type="line"/>
      <point x="433.9411255" y="0"/>
      <point x="442" y="8.0588745"/>
      <point x="442" y="18" type="curve"/>
      <point x="442" y="114" type="line"/>
      <point x="442" y="123.9411255"/>
      <point x="433.9411255" y="132"/>
      <point x="424" y="132" type="curve"/>
      <point x="348" y="132" type="line"/>
      <point x="338.0588745" y="132"/>
      <point x="330" y="123.9411255"/>
      <point x="330" y="114" type="curve"/>
      <point x="330" y="18" type="line"/>
      <point x="330" y="8.0588745"/>
      <point x="338.0588745" y="0"/>
    </contour>
    <contour>
      <point x="92" y="44" type="line"/>
      <point x="38" y="190"/>
      <point x="68" y="708"/>
      <point x="250" y="708" type="curve"/>
      <point x="432" y="708"/>
      <point x="462" y="190"/>
      <point x="408" y="44" type="curve"/>
      <point x="344" y="44" type="line"/>
      <point x="384" y="172"/>
      <point x="360" y="642"/>
      <point x="250" y="642" type="curve"/>
      <point x="140" y="642"/>
      <point x="116" y="172"/>
      <point x="156" y="44" type="curve"/>
    </contour>
  </outline>
</glyph>
<glyph name="uni03AD" format="2">
  <advance width="600"/>
  <unicode hex="03AD"/>
  <outline>
    <contour>
      <point x="396.15999999999997" y="443.92" type="line"/>
      <point x="333.52" y="522"/>
      <point x="176.92000000000002" y="522"/>
      <point x="76" y="382.92" type="curve"/>
      <point x="76" y="173.07999999999998"/>
      <point x="176.92000000000002" y="34"/>
      <point x="333.52" y="34" type="curve"/>
      <point x="377.02" y="95.0"/>
      <point x="396.15999999999997" y="136.48000000000002"/>
      <point x="396.15999999999997" y="156.0" type="curve"/>
      <point x="285.28" y="182.84" type="line"/>
      <point x="316.12" y="166"/>
      <point x="208" y="199.92000000000002"/>
      <point x="208" y="278" type="curve"/>
      <point x="208" y="356.08"/>
      <point x="316.12" y="390"/>
      <point x="285.28" y="373.15999999999997" type="curve"/>
    </contour>
    <contour>
      <point x="236" y="246" type="curve"/>
      <point x="364" y="246" type="line"/>
      <point x="372.836556" y="246"/>
      <point x="380" y="253.163444"/>
      <point x="380" y="262" type="curve"/>
      <point x="380" y="362" type="line"/>
      <point x="380" y="370.836556"/>
      <point x="372.836556" y="378"/>
      <point x="364" y="378" type="curve"/>
      <point x="236" y="378" type="line"/>
      <point x="227.163444" y="378"/>
      <point x="220" y="370.836556"/>
      <point x="220" y="362" type="curve"/>
      <point x="220" y="262" type="line"/>
      <point x="220" y="253.163444"/>
      <point x="227.163444" y="246"/>
    </contour>
    <contour>
      <point x="234.42516085642083" y="581.8677919860515" type="line"/>
      <point x="310.4251608564208" y="659.8677919860515" type="line"/>
      <point x="365.5748391435792" y="606.1322080139485" type="line"/>
      <point x="289.5748391435792" y="528.1322080139485" type="line"/>
    </contour>
  </outline>
</glyph>
<glyph name="uni03AE" format="2">
  <advance width="600"/>
  <unicode hex="03AE"/>
  <outline>
    <contour>
      <point x="78" y="0" type="curve"/>
      <point x="174" y="0" type="line"/>
      <point x="183.9411255" y="0"/>
      <point x="192" y="8.0588745"/>
      <point x="192" y="18" type="curve"/>
      <point x="192" y="537" type="line"/>
      <point x="192" y="546.9411255"/>
      <point x="183.9411255" y="555"/>
      <point x="174" y="555" type="curve"/>
      <point x="78" y="555" type="line"/>
      <point x="68.0588745" y="555"/>
      <point x="60" y="546.9411255"/>
      <point x="60" y="537" type="curve"/>
      <point x="60" y="18" type="line"/>
      <point x="60" y="8.0588745"/>
      <point x="68.0588745" y="0"/>
    </contour>
    <contour>
      <point x="124" y="-210" type="line"/>
      <point x="124" y="555" type="line"/>
      <point x="198.8" y="565"/>
      <point x="344" y="424.95"/>
      <point x="344" y="271.95" type="curve"/>
      <point x="344" y="-210" type="line"/>
      <point x="212" y="-210" type="line"/>
      <point x="212" y="271.95" type="line"/>
      <point x="212" y="482.4"/>
      <point x="330.8" y="423"/>
      <point x="256" y="423" type="curve"/>
      <point x="256" y="-210" type="line"/>
    </contour>
    <contour>
      <point x="234.42516085642083" y="581.8677919860515" type="line"/>
      <point x="310.4251608564208" y="659.8677919860515" type="line"/>
      <point x="365.5748391435792" y="606.1322080139485" type="line"/>
      <point x="289.5748391435792" y="528.1322080139485" type="line"/>
    </contour>
  </outline>
</glyph>
<glyph name="uni03B0" format="2">
  <advance width="600"/>
  <unicode hex="03B0"/>
  <outline>
    <contour>
      <point x="300.5" y="615" type="curve"/>
      <point x="300.5" y="636.262962875"/>
      <point x="283.26296287499997" y="653.5"/>
      <point x="262.0" y="653.5" type="curve"/>
      <point x="240.737037125" y="653.5"/>
      <point x="223.5" y="636.262962875"/>
      <point x="223.5" y="615" type="curve"/>
      <point x="223.5" y="593.737037125"/>
      <point x="240.737037125" y="576.5"/>
      <point x="262.0" y="576.5" type="curve"/>
      <point x="283.26296287499997" y="576.5"/>
      <point x="300.5" y="593.737037125"/>
    </contour>
    <contour>
      <point x="376.5" y="615" type="curve"/>
      <point x="376.5" y="636.262962875"/>
      <point x="359.26296287499997" y="653.5"/>
      <point x="338.0" y="653.5" type="curve"/>
      <point x="316.73703712500003" y="653.5"/>
      <point x="299.5" y="636.262962875"/>
      <point x="299.5" y="615" type="curve"/>
      <point x="299.5" y="593.737037125"/>
      <point x="316.73703712500003" y="576.5"/>
      <point x="338.0" y="576.5" type="curve"/>
      <point x="359.26296287499997" y="576.5"/>
      <point x="376.5" y="593.737037125"/>
    </contour>
    <contour>
      <point x="234.42516085642083" y="581.8677919860515" type="line"/>
      <point x="310.4251608564208" y="659.8677919860515" type="line"/>
      <point x="365.5748391435792" y="606.1322080139485" type="line"/>
      <point x="289.5748391435792" y="528.1322080139485" type="line"/>
    </contour>
    <component base="u"/>
  </outline>
</glyph>
<glyph name="uni03B1" format="2">
  <advance width="600"/>
  <unicode hex="03B1"/>
  <outline>
    <contour>
      <point x="359" y="246" type="curve"/>
      <point x="359" y="381.8620485"/>
      <point x="294.08128875" y="492"/>
      <point x="214" y="492" type="curve"/>
      <point x="133.91871125" y="492"/>
      <point x="69" y="381.8620485"/>
      <point x="69" y="246" type="curve"/>
      <point x="69" y="110.13795150000001"/>
      <point x="133.91871125" y="0"/>
      <point x="214" y="0" type="curve"/>
      <point x="294.08128875" y="0"/>
      <point x="359" y="110.13795150000001"/>
    </contour>
    <contour>
      <point x="227" y="246" type="curve"/>
      <point x="227" y="183.0395385"/>
      <point x="221.17970175" y="132"/>
      <point x="214" y="132" type="curve"/>
      <point x="206.82029825" y="132"/>
      <point x="201" y="183.0395385"/>
      <point x="201" y="246" type="curve"/>
      <point x="201" y="308.9604615"/>
      <point x="206.82029825" y="360"/>
      <point x="214" y="360" type="curve"/>
      <point x="221.17970175" y="360"/>
      <point x="227" y="308.9604615"/>
    </contour>
    <contour>
      <point x="383" y="0" type="curve"/>
      <point x="479" y="0" type="line"/>
      <point x="488.9411255" y="0"/>
      <point x="497" y="8.0588745"/>
      <point x="497" y="18" type="curve"/>
      <point x="497" y="537" type="line"/>
      <point x="497" y="546.9411255"/>
      <point x="488.9411255" y="555"/>
      <point x="479" y="555" type="curve"/>
      <point x="383" y="555" type="line"/>
      <point x="373.0588745" y="555"/>
      <point x="365" y="546.9411255"/>
      <point x="365" y="537" type="curve"/>
      <point x="365" y="18" type="line"/>
      <point x="365" y="8.0588745"/>
      <point x="373.0588745" y="0"/>
    </contour>
    <contour>
      <point x="365" y="0" type="line"/>
      <point x="430" y="0" type="line"/>
      <point x="430" y="132" type="line"/>
      <point x="365" y="132" type="line"/>
    </contour>
  </outline>
</glyph>
<glyph name="uni03B2" format="2">
  <advance width="600"/>
  <unicode hex="03B2"/>
  <outline>
    <contour>
      <point x="90" y="-210" type="curve"/>
      <point x="186" y="-210" type="line"/>
      <point x="195.9411255" y="-210"/>
      <point x="204" y="-201.9411255"/>
      <point x="204" y="-192" type="curve"/>
      <point x="204" y="742" type="line"/>
      <point x="204" y="751.9411255"/>
      <point x="195.9411255" y="760"/>
      <point x="186" y="760" type="curve"/>
      <point x="90" y="760" type="line"/>
      <point x="80.0588745" y="760"/>
      <point x="72" y="751.9411255"/>
      <point x="72" y="742" type="curve"/>
      <point x="72" y="-192" type="line"/>
      <point x="72" y="-201.9411255"/>
      <point x="80.0588745" y="-210"/>
    </contour>
    <contour>
      <point x="382" y="386" type="curve"/>
      <point x="382" y="478.783838"/>
      <point x="316.6335735" y="554"/>
      <point x="236" y="554" type="curve"/>
      <point x="155.3664265" y="554"/>
      <point x="90" y="478.783838"/>
      <point x="90" y="386" type="curve"/>
      <point x="90" y="293.216162"/>
      <point x="155.3664265" y="218"/>
      <point x="236" y="218" type="curve"/>
      <point x="316.6335735" y="218"/>
      <point x="382" y="293.216162"/>
    </contour>
    <contour>
      <point x="250" y="386" type="curve"/>
      <point x="250" y="366.117749"/>
      <point x="243.7319865" y="350"/>
      <point x="236" y="350" type="curve"/>
      <point x="228.2680135" y="350"/>
      <point x="222" y="366.117749"/>
      <point x="222" y="386" type="curve"/>
      <point x="222" y="405.882251"/>
      <point x="228.2680135" y="422"/>
      <point x="236" y="422" type="curve"/>
      <point x="243.7319865" y="422"/>
      <point x="250" y="405.882251"/>
    </contour>
    <contour>
      <point x="382" y="142" type="curve"/>
      <point x="382" y="224.8427125"/>
      <point x="316.6335735" y="292"/>
      <point x="236" y="292" type="curve"/>
      <point x="155.3664265" y="292"/>
      <point x="90" y="224.8427125"/>
      <point x="90" y="142" type="curve"/>
      <point x="90" y="59.157287499999995"/>
      <point x="155.3664265" y="-8"/>
      <point x="236" y="-8" type="curve"/>
      <point x="316.6335735" y="-8"/>
      <point x="382" y="59.157287499999995"/>
    </contour>
    <contour>
      <point x="250" y="142" type="curve"/>
      <point x="250" y="132.0588745"/>
      <point x="243.7319865" y="124"/>
      <point x="236" y="124" type="curve"/>
      <point x="228.2680135" y="124"/>
      <point x="222" y="132.0588745"/>
      <point x="222" y="142" type="curve"/>
      <point x="222" y="151.9411255"/>
      <point x="228.2680135" y="160"/>
      <point x="236" y="160" type="curve"/>
      <point x="243.7319865" y="160"/>
      <point x="250" y="151.9411255"/>
    </contour>
  </outline>
</glyph>
<glyph name="uni03B3" format="2">
  <advance width="600"/>
  <unicode hex="03B3"/>
  <outline>
    <contour>
      <point x="135.58279694067383" y="578.7394001812121" type="line"/>
      <point x="305.5827969406738" y="137.73940018121215" type="line"/>
      <point x="182.41720305932617" y="90.26059981878787" type="line"/>
      <point x="12.417203059326177" y="531.2605998187879" type="line"/>
    </contour>
    <contour>
      <point x="487.0086796133084" y="529.8218147627616" type="line"/>
      <point x="305.0086796133084" y="88.82181476276162" type="line"/>
      <point x="182.9913203866916" y="139.17818523723838" type="line"/>
      <point x="364.9913203866916" y="580.1781852372384" type="line"/>
    </contour>
    <contour>
      <point x="230" y="-210" type="curve"/>
      <point x="326" y="-210" type="line"/>
      <point x="335.9411255" y="-210"/>
      <point x="344" y="-201.9411255"/>
      <point x="344" y="-192" type="curve"/>
      <point x="344" y="-74" type="line"/>
      <point x="344" y="-64.0588745"/>
      <point x="335.9411255" y="-56"/>
      <point x="326" y="-56" type="curve"/>
      <point x="230" y="-56" type="line"/>
      <point x="220.0588745" y="-56"/>
      <point x="212" y="-64.0588745"/>
      <point x="212" y="-74" type="curve"/>
      <point x="212" y="-192" type="line"/>
      <point x="212" y="-201.9411255"/>
      <point x="220.0588745" y="-210"/>
    </contour>
  </outline>
</glyph>
<glyph name="uni03B4" format="2">
  <advance width="600"/>
  <unicode hex="03B4"/>
  <outline>
    <contour>
      <point x="396" y="226" type="curve"/>
      <point x="396" y="350.8163535"/>
      <point x="328.8427125" y="452"/>
      <point x="246" y="452" type="curve"/>
      <point x="163.1572875" y="452"/>
      <point x="96" y="350.8163535"/>
      <point x="96" y="226" type="curve"/>
      <point x="96" y="101.18364650000001"/>
      <point x="163.1572875" y="0"/>
      <point x="246" y="0" type="curve"/>
      <point x="328.8427125" y="0"/>
      <point x="396" y="101.18364650000001"/>
    </contour>
    <contour>
      <point x="264" y="226" type="curve"/>
      <point x="264" y="174.08523350000002"/>
      <point x="255.9411255" y="132"/>
      <point x="246" y="132" type="curve"/>
      <point x="236.0588745" y="132"/>
      <point x="228" y="174.08523350000002"/>
      <point x="228" y="226" type="curve"/>
      <point x="228" y="277.9147665"/>
      <point x="236.0588745" y="320"/>
      <point x="246" y="320" type="curve"/>
      <point x="255.9411255" y="320"/>
      <point x="264" y="277.9147665"/>
    </contour>
    <contour>
      <point x="154" y="420" type="line"/>
      <point x="120" y="620"/>
      <point x="220" y="748"/>
      <point x="374" y="706" type="curve"/>
      <point x="356" y="642" type="line"/>
      <point x="258" y="658"/>
      <point x="214" y="586"/>
      <point x="218" y="438" type="curve"/>
    </contour>
  </outline>
</glyph>
<glyph name="uni03B7" format="2">
  <advance width="600"/>
  <unicode hex="03B7"/>
  <outline>
    <contour>
      <point x="78" y="0" type="curve"/>
      <point x="174" y="0" type="line"/>
      <point x="183.9411255" y="0"/>
      <point x="192" y="8.0588745"/>
      <point x="192" y="18" type="curve"/>
      <point x="192" y="537" type="line"/>
      <point x="192" y="546.9411255"/>
      <point x="183.9411255" y="555"/>
      <point x="174" y="555" type="curve"/>
      <point x="78" y="555" type="line"/>
      <point x="68.0588745" y="555"/>
      <point x="60" y="546.9411255"/>
      <point x="60" y="537" type="curve"/>
      <point x="60" y="18" type="line"/>
      <point x="60" y="8.0588745"/>
      <point x="68.0588745" y="0"/>
    </contour>
    <contour>
      <point x="124" y="-210" type="line"/>
      <point x="124" y="555" type="line"/>
      <point x="198.8" y="565"/>
      <point x="344" y="424.95"/>
      <point x="344" y="271.95" type="curve"/>
      <point x="344" y="-210" type="line"/>
      <point x="212" y="-210" type="line"/>
      <point x="212" y="271.95" type="line"/>
      <point x="212" y="482.4"/>
      <point x="330.8" y="423"/>
      <point x="256" y="423" type="curve"/>
      <point x="256" y="-210" type="line"/>
    </contour>
  </outline>
</glyph>
<glyph name="uni03B8" format="2">
  <advance width="600"/>
  <unicode hex="03B8"/>
  <outline>
    <contour>
      <point x="420" y="278" type="curve"/>
      <point x="420" y="431.53516049999996"/>
      <point x="343.88840749999997" y="556"/>
      <point x="250" y="556" type="curve"/>
      <point x="156.1115925" y="556"/>
      <point x="80" y="431.53516049999996"/>
      <point x="80" y="278" type="curve"/>
      <point x="80" y="124.46483950000001"/>
      <point x="156.1115925" y="0"/>
      <point x="250" y="0" type="curve"/>
      <point x="343.88840749999997" y="0"/>
      <point x="420" y="124.46483950000001"/>
    </contour>
    <contour>
      <point x="288" y="278" type="curve"/>
      <point x="288" y="197.3664265"/>
      <point x="270.9868205" y="132"/>
      <point x="250" y="132" type="curve"/>
      <point x="229.0131795" y="132"/>
      <point x="212" y="197.3664265"/>
      <point x="212" y="278" type="curve"/>
      <point x="212" y="358.6335735"/>
      <point x="229.0131795" y="424"/>
      <point x="250" y="424" type="curve"/>
      <point x="270.9868205" y="424"/>
      <point x="288" y="358.6335735"/>
    </contour>
    <contour>
      <point x="120" y="246" type="curve"/>
      <point x="380" y="246" type="line"/>
      <point x="388.836556" y="246"/>
      <point x="396" y="253.163444"/>
      <point x="396" y="262" type="curve"/>
      <point x="396" y="362" type="line"/>
      <point x="396" y="370.836556"/>
      <point x="388.836556" y="378"/>
      <point x="380" y="378" type="curve"/>
      <point x="120" y="378" type="line"/>
      <point x="111.163444" y="378"/>
      <point x="104" y="370.836556"/>
      <point x="104" y="362" type="curve"/>
      <point x="104" y="262" type="line"/>
      <point x="104" y="253.163444"/>
      <point x="111.163444" y="246"/>
    </contour>
  </outline>
</glyph>
<glyph name="uni03BC" format="2">
  <advance width="600"/>
  <unicode hex="03BC"/>
  <outline>
    <contour>
      <point x="78" y="-210" type="curve"/>
      <point x="174" y="-210" type="line"/>
      <point x="183.9411255" y="-210"/>
      <point x="192" y="-201.9411255"/>
      <point x="192" y="-192" type="curve"/>
      <point x="192" y="537" type="line"/>
      <point x="192" y="546.9411255"/>
      <point x="183.9411255" y="555"/>
      <point x="174" y="555" type="curve"/>
      <point x="78" y="555" type="line"/>
      <point x="68.0588745" y="555"/>
      <point x="60" y="546.9411255"/>
      <point x="60" y="537" type="curve"/>
      <point x="60" y="-192" type="line"/>
      <point x="60" y="-201.9411255"/>
      <point x="68.0588745" y="-210"/>
    </contour>
    <contour>
      <point x="230" y="0" type="curve"/>
      <point x="326" y="0" type="line"/>
      <point x="335.9411255" y="0"/>
      <point x="344" y="8.0588745"/>
      <point x="344" y="18" type="curve"/>
      <point x="344" y="537" type="line"/>
      <point x="344" y="546.9411255"/>
      <point x="335.9411255" y="555"/>
      <point x="326" y="555" type="curve"/>
      <point x="230" y="555" type="line"/>
      <point x="220.0588745" y="555"/>
      <point x="212" y="546.9411255"/>
      <point x="212" y="537" type="curve"/>
      <point x="212" y="18" type="line"/>
      <point x="212" y="8.0588745"/>
      <point x="220.0588745" y="0"/>
    </contour>
    <contour>
      <point x="124" y="180" type="line"/>
      <point x="124" y="70"/>
      <point x="160" y="48"/>
      <point x="234" y="48" type="curve"/>
      <point x="306" y="48"/>
      <point x="344" y="92"/>
      <point x="344" y="190" type="curve"/>
      <point x="280" y="190" type="line"/>
      <point x="280" y="106"/>
      <point x="264" y="54"/>
      <point x="234" y="54" type="curve"/>
      <point x="202" y="54"/>
      <point x="124" y="96"/>
      <point x="124" y="190" type="curve"/>
    </contour>
  </outline>
</glyph>
<glyph name="uni03C0" format="2">
  <advance width="600"/>
  <unicode hex="03C0"/>
  <outline>
    <contour>
      <point x="76" y="423" type="curve"/>
      <point x="424" y="423" type="line"/>
      <point x="433.9411255" y="423"/>
      <point x="442" y="431.0588745"/>
      <point x="442" y="441" type="curve"/>
      <point x="442" y="537" type="line"/>
      <point x="442" y="546.9411255"/>
      <point x="433.9411255" y="555"/>
      <point x="424" y="555" type="curve"/>
      <point x="76" y="555" type="line"/>
      <point x="66.0588745" y="555"/>
      <point x="58" y="546.9411255"/>
      <point x="58" y="537" type="curve"/>
      <point x="58" y="441" type="line"/>
      <point x="58" y="431.0588745"/>
      <point x="66.0588745" y="423"/>
    </contour>
    <contour>
      <point x="118" y="0" type="curve"/>
      <point x="214" y="0" type="line"/>
      <point x="223.9411255" y="0"/>
      <point x="232" y="8.0588745"/>
      <point x="232" y="18" type="curve"/>
      <point x="232" y="537" type="line"/>
      <point x="232" y="546.9411255"/>
      <point x="223.9411255" y="555"/>
      <point x="214" y="555" type="curve"/>
      <point x="118" y="555" type="line"/>
      <point x="108.0588745" y="555"/>
      <point x="100" y="546.9411255"/>
      <point x="100" y="537" type="curve"/>
      <point x="100" y="18" type="line"/>
      <point x="100" y="8.0588745"/>
      <point x="108.0588745" y="0"/>
    </contour>
    <contour>
      <point x="360" y="0" type="curve"/>
      <point x="456" y="0" type="line"/>
      <point x="465.9411255" y="0"/>
      <point x="474" y="8.0588745"/>
      <point x="474" y="18" type="curve"/>
      <point x="474" y="537" type="line"/>
      <point x="474" y="546.9411255"/>
      <point x="465.9411255" y="555"/>
      <point x="456" y="555" type="curve"/>
      <point x="360" y="555" type="line"/>
      <point x="350.0588745" y="555"/>
      <point x="342" y="546.9411255"/>
      <point x="342" y="537" type="curve"/>
      <point x="342" y="18" type="line"/>
      <point x="342" y="8.0588745"/>
      <point x="350.0588745" y="0"/>
    </contour>
  </outline>
</glyph>
<glyph name="uni03C1" format="2">
  <advance width="600"/>
  <unicode hex="03C1"/>
  <outline>
    <contour>
      <point x="84" y="-210" type="curve"/>
      <point x="180" y="-210" type="line"/>
      <point x="189.9411255" y="-210"/>
      <point x="198" y="-201.9411255"/>
      <point x="198" y="-192" type="curve"/>
      <point x="198" y="537" type="line"/>
      <point x="198" y="546.9411255"/>
      <point x="189.9411255" y="555"/>
      <point x="180" y="555" type="curve"/>
      <point x="84" y="555" type="line"/>
      <point x="74.0588745" y="555"/>
      <point x="66" y="546.9411255"/>
      <point x="66" y="537" type="curve"/>
      <point x="66" y="-192" type="line"/>
      <point x="66" y="-201.9411255"/>
      <point x="74.0588745" y="-210"/>
    </contour>
    <contour>
      <point x="382" y="278" type="curve"/>
      <point x="382" y="413.8620485"/>
      <point x="314.8427125" y="524"/>
      <point x="232" y="524" type="curve"/>
      <point x="149.1572875" y="524"/>
      <point x="82" y="413.8620485"/>
      <point x="82" y="278" type="curve"/>
      <point x="82" y="142.1379515"/>
      <point x="149.1572875" y="32"/>
      <point x="232" y="32" type="curve"/>
      <point x="314.8427125" y="32"/>
      <point x="382" y="142.1379515"/>
    </contour>
    <contour>
      <point x="250" y="278" type="curve"/>
      <point x="250" y="215.0395385"/>
      <point x="241.9411255" y="164"/>
      <point x="232" y="164" type="curve"/>
      <point x="222.0588745" y="164"/>
      <point x="214" y="215.0395385"/>
      <point x="214" y="278" type="curve"/>
      <point x="214" y="340.9604615"/>
      <point x="222.0588745" y="392"/>
      <point x="232" y="392" type="curve"/>
      <point x="241.9411255" y="392"/>
      <point x="250" y="340.9604615"/>
    </contour>
  </outline>
</glyph>
<glyph name="uni03C4" format="2">
  <advance width="600"/>
  <unicode hex="03C4"/>
  <outline>
    <contour>
      <point x="90" y="423" type="curve"/>
      <point x="410" y="423" type="line"/>
      <point x="419.9411255" y="423"/>
      <point x="428" y="431.0588745"/>
      <point x="428" y="441" type="curve"/>
      <point x="428" y="537" type="line"/>
      <point x="428" y="546.9411255"/>
      <point x="419.9411255" y="555"/>
      <point x="410" y="555" type="curve"/>
      <point x="90" y="555" type="line"/>
      <point x="80.0588745" y="555"/>
      <point x="72" y="546.9411255"/>
      <point x="72" y="537" type="curve"/>
      <point x="72" y="441" type="line"/>
      <point x="72" y="431.0588745"/>
      <point x="80.0588745" y="423"/>
    </contour>
    <contour>
      <point x="236" y="0" type="curve"/>
      <point x="332" y="0" type="line"/>
      <point x="341.9411255" y="0"/>
      <point x="350" y="8.0588745"/>
      <point x="350" y="18" type="curve"/>
      <point x="350" y="537" type="line"/>
      <point x="350" y="546.9411255"/>
      <point x="341.9411255" y="555"/>
      <point x="332" y="555" type="curve"/>
      <point x="236" y="555" type="line"/>
      <point x="226.0588745" y="555"/>
      <point x="218" y="546.9411255"/>
      <point x="218" y="537" type="curve"/>
      <point x="218" y="18" type="line"/>
      <point x="218" y="8.0588745"/>
      <point x="226.0588745" y="0"/>
    </contour>
  </outline>
</glyph>
<glyph name="uni03C6" format="2">
  <advance width="600"/>
  <unicode hex="03C6"/>
  <outline>
    <contour>
      <point x="428" y="278" type="curve"/>
      <point x="428" y="411.65290949999996"/>
      <point x="348.3066855" y="520"/>
      <point x="250" y="520" type="curve"/>
      <point x="151.69331449999999" y="520"/>
      <point x="72" y="411.65290949999996"/>
      <point x="72" y="278" type="curve"/>
      <point x="72" y="144.3470905"/>
      <point x="151.69331449999999" y="36"/>
      <point x="250" y="36" type="curve"/>
      <point x="348.3066855" y="36"/>
      <point x="428" y="144.3470905"/>
    </contour>
    <contour>
      <point x="296" y="278" type="curve"/>
      <point x="296" y="217.24867749999999"/>
      <point x="275.4050985" y="168"/>
      <point x="250" y="168" type="curve"/>
      <point x="224.5949015" y="168"/>
      <point x="204" y="217.24867749999999"/>
      <point x="204" y="278" type="curve"/>
      <point x="204" y="338.7513225"/>
      <point x="224.5949015" y="388"/>
      <point x="250" y="388" type="curve"/>
      <point x="275.4050985" y="388"/>
      <point x="296" y="338.7513225"/>
    </contour>
    <contour>
      <point x="202.0" y="-210" type="curve"/>
      <point x="298.0" y="-210" type="line"/>
      <point x="307.9411255" y="-210"/>
      <point x="316.0" y="-201.9411255"/>
      <point x="316.0" y="-192" type="curve"/>
      <point x="316.0" y="742" type="line"/>
      <point x="316.0" y="751.9411255"/>
      <point x="307.9411255" y="760"/>
      <point x="298.0" y="760" type="curve"/>
      <point x="202.0" y="760" type="line"/>
      <point x="192.0588745" y="760"/>
      <point x="184.0" y="751.9411255"/>
      <point x="184.0" y="742" type="curve"/>
      <point x="184.0" y="-192" type="line"/>
      <point x="184.0" y="-201.9411255"/>
      <point x="192.0588745" y="-210"/>
    </contour>
  </outline>
</glyph>
<glyph name="uni03C8" format="2">
  <advance width="600"/>
  <unicode hex="03C8"/>
  <outline>
    <contour>
      <point x="202.0" y="-210" type="curve"/>
      <point x="298.0" y="-210" type="line"/>
      <point x="307.9411255" y="-210"/>
      <point x="316.0" y="-201.9411255"/>
      <point x="316.0" y="-192" type="curve"/>
      <point x="316.0" y="537" type="line"/>
      <point x="316.0" y="546.9411255"/>
      <point x="307.9411255" y="555"/>
      <point x="298.0" y="555" type="curve"/>
      <point x="202.0" y="555" type="line"/>
      <point x="192.0588745" y="555"/>
      <point x="184.0" y="546.9411255"/>
      <point x="184.0" y="537" type="curve"/>
      <point x="184.0" y="-192" type="line"/>
      <point x="184.0" y="-201.9411255"/>
      <point x="192.0588745" y="-210"/>
    </contour>
    <contour>
      <point x="225.2" y="482.8" type="line"/>
      <point x="208.4" y="550"/>
      <point x="113.9" y="550"/>
      <point x="53" y="430.3" type="curve"/>
      <point x="53" y="249.7"/>
      <point x="113.9" y="130"/>
      <point x="208.4" y="130" type="curve"/>
      <point x="234.64999999999998" y="182.5"/>
      <point x="225.2" y="218.2"/>
      <point x="225.2" y="235.0" type="curve"/>
      <point x="163.12" y="258.1" type="line"/>
      <point x="197.9" y="262"/>
      <point x="185" y="272.8"/>
      <point x="185" y="340" type="curve"/>
      <point x="185" y="407.2"/>
      <point x="197.9" y="418"/>
      <point x="163.12" y="421.9" type="curve"/>
    </contour>
    <contour>
      <point x="409.2" y="482.8" type="line"/>
      <point x="392.4" y="550"/>
      <point x="297.9" y="550"/>
      <point x="237" y="430.3" type="curve"/>
      <point x="237" y="249.7"/>
      <point x="297.9" y="130"/>
      <point x="392.4" y="130" type="curve"/>
      <point x="418.65" y="182.5"/>
      <point x="409.2" y="218.2"/>
      <point x="409.2" y="235.0" type="curve"/>
      <point x="347.12" y="258.1" type="line"/>
      <point x="381.9" y="262"/>
      <point x="369" y="272.8"/>
      <point x="369" y="340" type="curve"/>
      <point x="369" y="407.2"/>
      <point x="381.9" y="418"/>
      <point x="347.12" y="421.9" type="curve"/>
    </contour>
  </outline>
</glyph>
<glyph name="uni03C9" format="2">
  <advance width="600"/>
  <unicode hex="03C9"/>
  <outline>
    <contour>
      <point x="74" y="0" type="curve"/>
      <point x="170" y="0" type="line"/>
      <point x="179.9411255" y="0"/>
      <point x="188" y="8.0588745"/>
      <point x="188" y="18" type="curve"/>
      <point x="188" y="232" type="line"/>
      <point x="188" y="241.9411255"/>
      <point x="179.9411255" y="250"/>
      <point x="170" y="250" type="curve"/>
      <point x="74" y="250" type="line"/>
      <point x="64.0588745" y="250"/>
      <point x="56" y="241.9411255"/>
      <point x="56" y="232" type="curve"/>
      <point x="56" y="18" type="line"/>
      <point x="56" y="8.0588745"/>
      <point x="64.0588745" y="0"/>
    </contour>
    <contour>
      <point x="298" y="0" type="curve"/>
      <point x="394" y="0" type="line"/>
      <point x="403.9411255" y="0"/>
      <point x="412" y="8.0588745"/>
      <point x="412" y="18" type="curve"/>
      <point x="412" y="232" type="line"/>
      <point x="412" y="241.9411255"/>
      <point x="403.9411255" y="250"/>
      <point x="394" y="250" type="curve"/>
      <point x="298" y="250" type="line"/>
      <point x="288.0588745" y="250"/>
      <point x="280" y="241.9411255"/>
      <point x="280" y="232" type="curve"/>
      <point x="280" y="18" type="line"/>
      <point x="280" y="8.0588745"/>
      <point x="288.0588745" y="0"/>
    </contour>
    <contour>
      <point x="56" y="248" type="line"/>
      <point x="56" y="480"/>
      <point x="154" y="560"/>
      <point x="250" y="394" type="curve"/>
      <point x="346" y="560"/>
      <point x="444" y="480"/>
      <point x="444" y="248" type="curve"/>
      <point x="380" y="248" type="line"/>
      <point x="380" y="413"/>
      <point x="326" y="452"/>
      <point x="250" y="276" type="curve"/>
      <point x="174" y="452"/>
      <point x="120" y="413"/>
      <point x="120" y="248" type="curve"/>
    </contour>
  </outline>
</glyph>
<glyph name="uni03CC" format="2">
  <advance width="600"/>
  <unicode hex="03CC"/>
  <outline>
    <contour>
      <point x="234.42516085642083" y="581.8677919860515" type="line"/>
      <point x="310.4251608564208" y="659.8677919860515" type="line"/>
      <point x="365.5748391435792" y="606.1322080139485" type="line"/>
      <point x="289.5748391435792" y="528.1322080139485" type="line"/>
    </contour>
    <component base="o"/>
  </outline>
</glyph>
<glyph name="uni03D3" format="2">
  <advance width="600"/>
  <unicode hex="03D3"/>
  <outline>
    <contour>
      <point x="234.42516085642083" y="730.8677919860515" type="line"/>
      <point x="310.4251608564208" y="808.8677919860515" type="line"/>
      <point x="365.5748391435792" y="755.1322080139485" type="line"/>
      <point x="289.5748391435792" y="677.1322080139485" type="line"/>
    </contour>
    <component base="A"/>
  </outline>
</glyph>
<glyph name="uni0414" format="2">
  <advance width="600"/>
  <unicode hex="0414"/>
  <outline>
    <contour>
      <point x="26.980118808118505" y="11.332036436299344" type="line"/>
      <point x="148.9801188081185" y="711.3320364362993" type="line"/>
      <point x="279.0198811918815" y="688.6679635637007" type="line"/>
      <point x="157.0198811918815" y="-11.332036436299344" type="line"/>
    </contour>
    <contour>
      <point x="342.9801188081185" y="-11.332036436299344" type="line"/>
      <point x="220.9801188081185" y="688.6679635637007" type="line"/>
      <point x="351.0198811918815" y="711.3320364362993" type="line"/>
      <point x="473.0198811918815" y="11.332036436299344" type="line"/>
    </contour>
    <contour>
      <point x="70" y="0" type="curve"/>
      <point x="430" y="0" type="line"/>
      <point x="439.9411255" y="0"/>
      <point x="448" y="8.0588745"/>
      <point x="448" y="18" type="curve"/>
      <point x="448" y="114" type="line"/>
      <point x="448" y="123.9411255"/>
      <point x="439.9411255" y="132"/>
      <point x="430" y="132" type="curve"/>
      <point x="70" y="132" type="line"/>
      <point x="60.0588745" y="132"/>
      <point x="52" y="123.9411255"/>
      <point x="52" y="114" type="curve"/>
      <point x="52" y="18" type="line"/>
      <point x="52" y="8.0588745"/>
      <point x="60.0588745" y="0"/>
    </contour>
  </outline>
</glyph>
<glyph name="uni0416" format="2">
  <advance width="600"/>
  <unicode hex="0416"/>
  <outline>
    <contour>
      <point x="202.0" y="0" type="curve"/>
      <point x="298.0" y="0" type="line"/>
      <point x="307.9411255" y="0"/>
      <point x="316.0" y="8.0588745"/>
      <point x="316.0" y="18" type="curve"/>
      <point x="316.0" y="682" type="line"/>
      <point x="316.0" y="691.9411255"/>
      <point x="307.9411255" y="700"/>
      <point x="298.0" y="700" type="curve"/>
      <point x="202.0" y="700" type="line"/>
      <point x="192.0588745" y="700"/>
      <point x="184.0" y="691.9411255"/>
      <point x="184.0" y="682" type="curve"/>
      <point x="184.0" y="18" type="line"/>
      <point x="184.0" y="8.0588745"/>
      <point x="192.0588745" y="0"/>
    </contour>
    <contour>
      <point x="132.96465257754122" y="729.6507967247064" type="line"/>
      <point x="484.9646525775412" y="29.65079672470644" type="line"/>
      <point x="367.0353474224588" y="-29.65079672470644" type="line"/>
      <point x="15.035347422458784" y="670.3492032752936" type="line"/>
    </contour>
    <contour>
      <point x="484.9646525775412" y="670.3492032752936" type="line"/>
      <point x="132.96465257754122" y="-29.65079672470644" type="line"/>
      <point x="15.035347422458784" y="29.65079672470644" type="line"/>
      <point x="367.0353474224588" y="729.6507967247064" type="line"/>
    </contour>
  </outline>
</glyph>
<glyph name="uni0417" format="2">
  <advance width="600"/>
  <unicode hex="0417"/>
  <outline>
    <contour>
      <point x="378.8" y="686.8" type="line"/>
      <point x="285.0" y="710.56"/>
      <point x="94.8" y="689.44"/>
      <point x="88.2" y="434.0" type="curve"/>
      <point x="81.6" y="357.0"/>
      <point x="229.0" y="360.56"/>
      <point x="246.5" y="350" type="curve"/>
      <point x="285.0" y="266.0"/>
      <point x="419.72" y="329.0"/>
      <point x="414.44" y="203.0" type="curve"/>
      <point x="409.16" y="6.6000000000000005"/>
      <point x="208.0" y="-7.92"/>
      <point x="81.6" y="18.48" type="curve"/>
      <point x="96.12" y="129.35999999999999" type="line"/>
      <point x="215.0" y="81.84"/>
      <point x="339.2" y="112.2"/>
      <point x="348.44" y="189.0" type="curve"/>
      <point x="353.72" y="315.0"/>
      <point x="267.5" y="308.0"/>
      <point x="236.0" y="353.96" type="curve"/>
      <point x="190.5" y="369.8"/>
      <point x="135.72" y="365.84"/>
      <point x="143.64" y="448.0" type="curve"/>
      <point x="151.56" y="618.16"/>
      <point x="278.0" y="640.6"/>
      <point x="382.76" y="570.64" type="curve"/>
    </contour>
  </outline>
</glyph>
<glyph name="uni0426" format="2">
  <advance width="600"/>
  <unicode hex="0426"/>
  <outline>
    <contour>
      <point x="76" y="150" type="curve"/>
      <point x="172" y="150" type="line"/>
      <point x="181.9411255" y="150"/>
      <point x="190" y="158.0588745"/>
      <point x="190" y="168" type="curve"/>
      <point x="190" y="682" type="line"/>
      <point x="190" y="691.9411255"/>
      <point x="181.9411255" y="700"/>
      <point x="172" y="700" type="curve"/>
      <point x="76" y="700" type="line"/>
      <point x="66.0588745" y="700"/>
      <point x="58" y="691.9411255"/>
      <point x="58" y="682" type="curve"/>
      <point x="58" y="168" type="line"/>
      <point x="58" y="158.0588745"/>
      <point x="66.0588745" y="150"/>
    </contour>
    <contour>
      <point x="394" y="0" type="curve"/>
      <point x="490" y="0" type="line"/>
      <point x="499.9411255" y="0"/>
      <point x="508" y="8.0588745"/>
      <point x="508" y="18" type="curve"/>
      <point x="508" y="682" type="line"/>
      <point x="508" y="691.9411255"/>
      <point x="499.9411255" y="700"/>
      <point x="490" y="700" type="curve"/>
      <point x="394" y="700" type="line"/>
      <point x="384.0588745" y="700"/>
      <point x="376" y="691.9411255"/>
      <point x="376" y="682" type="curve"/>
      <point x="376" y="18" type="line"/>
      <point x="376" y="8.0588745"/>
      <point x="384.0588745" y="0"/>
    </contour>
    <contour>
      <point x="58" y="0" type="line"/>
      <point x="440" y="0" type="line"/>
      <point x="440" y="132" type="line"/>
      <point x="58" y="132" type="line"/>
    </contour>
    <contour>
      <point x="394" y="-210" type="curve"/>
      <point x="490" y="-210" type="line"/>
      <point x="499.9411255" y="-210"/>
      <point x="508" y="-201.9411255"/>
      <point x="508" y="-192" type="curve"/>
      <point x="508" y="-68" type="line"/>
      <point x="508" y="-58.0588745"/>
      <point x="499.9411255" y="-50"/>
      <point x="490" y="-50" type="curve"/>
      <point x="394" y="-50" type="line"/>
      <point x="384.0588745" y="-50"/>
      <point x="376" y="-58.0588745"/>
      <point x="376" y="-68" type="curve"/>
      <point x="376" y="-192" type="line"/>
      <point x="376" y="-201.9411255"/>
      <point x="384.0588745" y="-210"/>
    </contour>
  </outline>
</glyph>
<glyph name="uni0427" format="2">
  <advance width="600"/>
  <unicode hex="0427"/>
  <outline>
    <contour>
      <point x="76" y="330" type="curve"/>
      <point x="172" y="330" type="line"/>
      <point x="181.9411255" y="330"/>
      <point x="190" y="338.0588745"/>
      <point x="190" y="348" type="curve"/>
      <point x="190" y="682" type="line"/>
      <point x="190" y="691.9411255"/>
      <point x="181.9411255" y="700"/>
      <point x="172" y="700" type="curve"/>
      <point x="76" y="700" type="line"/>
      <point x="66.0588745" y="700"/>
      <point x="58" y="691.9411255"/>
      <point x="58" y="682" type="curve"/>
      <point x="58" y="348" type="line"/>
      <point x="58" y="338.0588745"/>
      <point x="66.0588745" y="330"/>
    </contour>
    <contour>
      <point x="394" y="0" type="curve"/>
      <point x="490" y="0" type="line"/>
      <point x="499.9411255" y="0"/>
      <point x="508" y="8.0588745"/>
      <point x="508" y="18" type="curve"/>
      <point x="508" y="682" type="line"/>
      <point x="508" y="691.9411255"/>
      <point x="499.9411255" y="700"/>
      <point x="490" y="700" type="curve"/>
      <point x="394" y="700" type="line"/>
      <point x="384.0588745" y="700"/>
      <point x="376" y="691.9411255"/>
      <point x="376" y="682" type="curve"/>
      <point x="376" y="18" type="line"/>
      <point x="376" y="8.0588745"/>
      <point x="384.0588745" y="0"/>
    </contour>
    <contour>
      <point x="76" y="300" type="curve"/>
      <point x="422" y="300" type="line"/>
      <point x="431.9411255" y="300"/>
      <point x="440" y="308.0588745"/>
      <point x="440" y="318" type="curve"/>
      <point x="440" y="414" type="line"/>
      <point x="440" y="423.9411255"/>
      <point x="431.9411255" y="432"/>
      <point x="422" y="432" type="curve"/>
      <point x="76" y="432" type="line"/>
      <point x="66.0588745" y="432"/>
      <point x="58" y="423.9411255"/>
      <point x="58" y="414" type="curve"/>
      <point x="58" y="318" type="line"/>
      <point x="58" y="308.0588745"/>
      <point x="66.0588745" y="300"/>
    </contour>
  </outline>
</glyph>
<glyph name="uni0428" format="2">
  <advance width="600"/>
  <unicode hex="0428"/>
  <outline>
    <contour>
      <point x="76" y="0" type="curve"/>
      <point x="172" y="0" type="line"/>
      <point x="181.9411255" y="0"/>
      <point x="190" y="8.0588745"/>
      <point x="190" y="18" type="curve"/>
      <point x="190" y="682" type="line"/>
      <point x="190" y="691.9411255"/>
      <point x="181.9411255" y="700"/>
      <point x="172" y="700" type="curve"/>
      <point x="76" y="700" type="line"/>
      <point x="66.0588745" y="700"/>
      <point x="58" y="691.9411255"/>
      <point x="58" y="682" type="curve"/>
      <point x="58" y="18" type="line"/>
      <point x="58" y="8.0588745"/>
      <point x="66.0588745" y="0"/>
    </contour>
    <contour>
      <point x="236" y="0" type="curve"/>
      <point x="332" y="0" type="line"/>
      <point x="341.9411255" y="0"/>
      <point x="350" y="8.0588745"/>
      <point x="350" y="18" type="curve"/>
      <point x="350" y="682" type="line"/>
      <point x="350" y="691.9411255"/>
      <point x="341.9411255" y="700"/>
      <point x="332" y="700" type="curve"/>
      <point x="236" y="700" type="line"/>
      <point x="226.0588745" y="700"/>
      <point x="218" y="691.9411255"/>
      <point x="218" y="682" type="curve"/>
      <point x="218" y="18" type="line"/>
      <point x="218" y="8.0588745"/>
      <point x="226.0588745" y="0"/>
    </contour>
    <contour>
      <point x="394" y="0" type="curve"/>
      <point x="490" y="0" type="line"/>
      <point x="499.9411255" y="0"/>
      <point x="508" y="8.0588745"/>
      <point x="508" y="18" type="curve"/>
      <point x="508" y="682" type="line"/>
      <point x="508" y="691.9411255"/>
      <point x="499.9411255" y="700"/>
      <point x="490" y="700" type="curve"/>
      <point x="394" y="700" type="line"/>
      <point x="384.0588745" y="700"/>
      <point x="376" y="691.9411255"/>
      <point x="376" y="682" type="curve"/>
      <point x="376" y="18" type="line"/>
      <point x="376" y="8.0588745"/>
      <point x="384.0588745" y="0"/>
    </contour>
    <contour>
      <point x="58" y="0" type="line"/>
      <point x="440" y="0" type="line"/>
      <point x="440" y="132" type="line"/>
      <point x="58" y="132" type="line"/>
    </contour>
  </outline>
</glyph>
<glyph name="uni042E" format="2">
  <advance width="600"/>
  <unicode hex="042E"/>
  <outline>
    <contour>
      <point x="72" y="0" type="curve"/>
      <point x="168" y="0" type="line"/>
      <point x="177.9411255" y="0"/>
      <point x="186" y="8.0588745"/>
      <point x="186" y="18" type="curve"/>
      <point x="186" y="682" type="line"/>
      <point x="186" y="691.9411255"/>
      <point x="177.9411255" y="700"/>
      <point x="168" y="700" type="curve"/>
      <point x="72" y="700" type="line"/>
      <point x="62.0588745" y="700"/>
      <point x="54" y="691.9411255"/>
      <point x="54" y="682" type="curve"/>
      <point x="54" y="18" type="line"/>
      <point x="54" y="8.0588745"/>
      <point x="62.0588745" y="0"/>
    </contour>
    <contour>
      <point x="72" y="320" type="curve"/>
      <point x="174" y="320" type="line"/>
      <point x="183.9411255" y="320"/>
      <point x="192" y="328.0588745"/>
      <point x="192" y="338" type="curve"/>
      <point x="192" y="434" type="line"/>
      <point x="192" y="443.9411255"/>
      <point x="183.9411255" y="452"/>
      <point x="174" y="452" type="curve"/>
      <point x="72" y="452" type="line"/>
      <point x="62.0588745" y="452"/>
      <point x="54" y="443.9411255"/>
      <point x="54" y="434" type="curve"/>
      <point x="54" y="338" type="line"/>
      <point x="54" y="328.0588745"/>
      <point x="62.0588745" y="320"/>
    </contour>
    <contour>
      <point x="438" y="350" type="curve"/>
      <point x="438" y="488.0711875"/>
      <point x="378.901587" y="600"/>
      <point x="306" y="600" type="curve"/>
      <point x="233.098413" y="600"/>
      <point x="174" y="488.0711875"/>
      <point x="174" y="350" type="curve"/>
      <point x="174" y="211.9288125"/>
      <point x="233.098413" y="100"/>
      <point x="306" y="100" type="curve"/>
      <point x="378.901587" y="100"/>
      <point x="438" y="211.9288125"/>
    </contour>
    <contour>
      <point x="314" y="350" type="curve"/>
      <point x="314" y="284.8303995"/>
      <point x="310.418278" y="232"/>
      <point x="306" y="232" type="curve"/>
      <point x="301.581722" y="232"/>
      <point x="298" y="284.8303995"/>
      <point x="298" y="350" type="curve"/>
      <point x="298" y="415.1696005"/>
      <point x="301.581722" y="468"/>
      <point x="306" y="468" type="curve"/>
      <point x="310.418278" y="468"/>
      <point x="314" y="415.1696005"/>
    </contour>
  </outline>
</glyph>
<glyph name="uni042F" format="2">
  <advance width="600"/>
  <unicode hex="042F"/>
  <outline>
    <contour>
      <point x="262" y="0" type="curve"/>
      <point x="358" y="0" type="line"/>
      <point x="367.9411255" y="0"/>
      <point x="376" y="8.0588745"/>
      <point x="376" y="18" type="curve"/>
      <point x="376" y="682" type="line"/>
      <point x="376" y="691.9411255"/>
      <point x="367.9411255" y="700"/>
      <point x="358" y="700" type="curve"/>
      <point x="262" y="700" type="line"/>
      <point x="252.0588745" y="700"/>
      <point x="244" y="691.9411255"/>
      <point x="244" y="682" type="curve"/>
      <point x="244" y="18" type="line"/>
      <point x="244" y="8.0588745"/>
      <point x="252.0588745" y="0"/>
    </contour>
    <contour>
      <point x="406" y="512" type="curve"/>
      <point x="406" y="598.156421"/>
      <point x="334.36556" y="668"/>
      <point x="246" y="668" type="curve"/>
      <point x="157.63443999999998" y="668"/>
      <point x="86" y="598.156421"/>
      <point x="86" y="512" type="curve"/>
      <point x="86" y="425.843579"/>
      <point x="157.63443999999998" y="356"/>
      <point x="246" y="356" type="curve"/>
      <point x="334.36556" y="356"/>
      <point x="406" y="425.843579"/>
    </contour>
    <contour>
      <point x="274" y="512" type="curve"/>
      <point x="274" y="498.745166"/>
      <point x="261.463973" y="488"/>
      <point x="246" y="488" type="curve"/>
      <point x="230.536027" y="488"/>
      <point x="218" y="498.745166"/>
      <point x="218" y="512" type="curve"/>
      <point x="218" y="525.254834"/>
      <point x="230.536027" y="536"/>
      <point x="246" y="536" type="curve"/>
      <point x="261.463973" y="536"/>
      <point x="274" y="525.254834"/>
    </contour>
    <contour>
      <point x="320.15323875143207" y="322.78780970968336" type="line"/>
      <point x="130.15323875143207" y="-31.212190290316656" type="line"/>
      <point x="13.846761248567915" y="31.212190290316656" type="line"/>
      <point x="203.84676124856793" y="385.21219029031664" type="line"/>
    </contour>
  </outline>
</glyph>
<glyph name="uni0434" format="2">
  <advance width="600"/>
  <unicode hex="0434"/>
  <outline>
    <contour>
      <point x="392" y="234" type="curve"/>
      <point x="392" y="363.2346315"/>
      <point x="328.4244345" y="468"/>
      <point x="250" y="468" type="curve"/>
      <point x="171.57556549999998" y="468"/>
      <point x="108" y="363.2346315"/>
      <point x="108" y="234" type="curve"/>
      <point x="108" y="104.7653685"/>
      <point x="171.57556549999998" y="0"/>
      <point x="250" y="0" type="curve"/>
      <point x="328.4244345" y="0"/>
      <point x="392" y="104.7653685"/>
    </contour>
    <contour>
      <point x="260" y="234" type="curve"/>
      <point x="260" y="177.6669555"/>
      <point x="255.5228475" y="132"/>
      <point x="250" y="132" type="curve"/>
      <point x="244.4771525" y="132"/>
      <point x="240" y="177.6669555"/>
      <point x="240" y="234" type="curve"/>
      <point x="240" y="290.3330445"/>
      <point x="244.4771525" y="336"/>
      <point x="250" y="336" type="curve"/>
      <point x="255.5228475" y="336"/>
      <point x="260" y="290.3330445"/>
    </contour>
    <contour>
      <point x="211.27365648422307" y="-18.773502473340905" type="line"/>
      <point x="157.27365648422307" y="-200.7735024733409" type="line"/>
      <point x="30.726343515776946" y="-163.2264975266591" type="line"/>
      <point x="84.72634351577695" y="18.773502473340905" type="line"/>
    </contour>
    <contour>
      <point x="415.27365648422307" y="18.773502473340905" type="line"/>
      <point x="469.27365648422307" y="-163.2264975266591" type="line"/>
      <point x="342.72634351577693" y="-200.7735024733409" type="line"/>
      <point x="288.72634351577693" y="-18.773502473340905" type="line"/>
    </contour>
    <contour>
      <point x="90" y="-190" type="curve"/>
      <point x="410" y="-190" type="line"/>
      <point x="419.9411255" y="-190"/>
      <point x="428" y="-181.9411255"/>
      <point x="428" y="-172" type="curve"/>
      <point x="428" y="-76" type="line"/>
      <point x="428" y="-66.0588745"/>
      <point x="419.9411255" y="-58"/>
      <point x="410" y="-58" type="curve"/>
      <point x="90" y="-58" type="line"/>
      <point x="80.0588745" y="-58"/>
      <point x="72" y="-66.0588745"/>
      <point x="72" y="-76" type="curve"/>
      <point x="72" y="-172" type="line"/>
      <point x="72" y="-181.9411255"/>
      <point x="80.0588745" y="-190"/>
    </contour>
  </outline>
</glyph>
<glyph name="uni0436" format="2">
  <advance width="600"/>
  <unicode hex="0436"/>
  <outline>
    <contour>
      <point x="202.0" y="0" type="curve"/>
      <point x="298.0" y="0" type="line"/>
      <point x="307.9411255" y="0"/>
      <point x="316.0" y="8.0588745"/>
      <point x="316.0" y="18" type="curve"/>
      <point x="316.0" y="537" type="line"/>
      <point x="316.0" y="546.9411255"/>
      <point x="307.9411255" y="555"/>
      <point x="298.0" y="555" type="curve"/>
      <point x="202.0" y="555" type="line"/>
      <point x="192.0588745" y="555"/>
      <point x="184.0" y="546.9411255"/>
      <point x="184.0" y="537" type="curve"/>
      <point x="184.0" y="18" type="line"/>
      <point x="184.0" y="8.0588745"/>
      <point x="192.0588745" y="0"/>
    </contour>
    <contour>
      <point x="125.37144494382547" y="590.9166129365354" type="line"/>
      <point x="485.37144494382545" y="35.91661293653544" type="line"/>
      <point x="374.62855505617455" y="-35.91661293653544" type="line"/>
      <point x="14.628555056174534" y="519.0833870634646" type="line"/>
    </contour>
    <contour>
      <point x="485.37144494382545" y="519.0833870634646" type="line"/>
      <point x="125.37144494382547" y="-35.91661293653544" type="line"/>
      <point x="14.628555056174534" y="35.91661293653544" type="line"/>
      <point x="374.62855505617455" y="590.9166129365354" type="line"/>
    </contour>
  </outline>
</glyph>
<glyph name="uni0437" format="2">
  <advance width="600"/>
  <unicode hex="0437"/>
  <outline>
    <contour>
      <point x="368.8" y="542.3" type="line"/>
      <point x="283.0" y="566.06"/>
      <point x="104.8" y="544.94"/>
      <point x="98.2" y="344.6" type="curve"/>
      <point x="91.6" y="283.55"/>
      <point x="230.2" y="288.56"/>
      <point x="246.7" y="278" type="curve"/>
      <point x="283.0" y="211.4"/>
      <point x="409.72" y="261.35"/>
      <point x="404.44" y="161.45" type="curve"/>
      <point x="399.16" y="7.1000000000000005"/>
      <point x="210.4" y="-7.42"/>
      <point x="91.6" y="18.98" type="curve"/>
      <point x="106.12" y="129.85999999999999" type="line"/>
      <point x="217.0" y="82.34"/>
      <point x="329.2" y="112.7"/>
      <point x="338.44" y="150.35" type="curve"/>
      <point x="343.72" y="250.25"/>
      <point x="266.5" y="244.7"/>
      <point x="236.8" y="281.96" type="curve"/>
      <point x="193.9" y="297.8"/>
      <point x="145.72" y="293.84"/>
      <point x="153.64" y="355.7" type="curve"/>
      <point x="161.56" y="473.65999999999997"/>
      <point x="276.4" y="496.1"/>
      <point x="372.76" y="426.14" type="curve"/>
    </contour>
  </outline>
</glyph>
<glyph name="uni0446" format="2">
  <advance width="600"/>
  <unicode hex="0446"/>
  <outline>
    <contour>
      <point x="76" y="150" type="curve"/>
      <point x="172" y="150" type="line"/>
      <point x="181.9411255" y="150"/>
      <point x="190" y="158.0588745"/>
      <point x="190" y="168" type="curve"/>
      <point x="190" y="537" type="line"/>
      <point x="190" y="546.9411255"/>
      <point x="181.9411255" y="555"/>
      <point x="172" y="555" type="curve"/>
      <point x="76" y="555" type="line"/>
      <point x="66.0588745" y="555"/>
      <point x="58" y="546.9411255"/>
      <point x="58" y="537" type="curve"/>
      <point x="58" y="168" type="line"/>
      <point x="58" y="158.0588745"/>
      <point x="66.0588745" y="150"/>
    </contour>
    <contour>
      <point x="262" y="0" type="curve"/>
      <point x="358" y="0" type="line"/>
      <point x="367.9411255" y="0"/>
      <point x="376" y="8.0588745"/>
      <point x="376" y="18" type="curve"/>
      <point x="376" y="537" type="line"/>
      <point x="376" y="546.9411255"/>
      <point x="367.9411255" y="555"/>
      <point x="358" y="555" type="curve"/>
      <point x="262" y="555" type="line"/>
      <point x="252.0588745" y="555"/>
      <point x="244" y="546.9411255"/>
      <point x="244" y="537" type="curve"/>
      <point x="244" y="18" type="line"/>
      <point x="244" y="8.0588745"/>
      <point x="252.0588745" y="0"/>
    </contour>
    <contour>
      <point x="58" y="0" type="line"/>
      <point x="440" y="0" type="line"/>
      <point x="440" y="132" type="line"/>
      <point x="58" y="132" type="line"/>
    </contour>
    <contour>
      <point x="262" y="-210" type="curve"/>
      <point x="358" y="-210" type="line"/>
      <point x="367.9411255" y="-210"/>
      <point x="376" y="-201.9411255"/>
      <point x="376" y="-192" type="curve"/>
      <point x="376" y="-68" type="line"/>
      <point x="376" y="-58.0588745"/>
      <point x="367.9411255" y="-50"/>
      <point x="358" y="-50" type="curve"/>
      <point x="262" y="-50" type="line"/>
      <point x="252.0588745" y="-50"/>
      <point x="244" y="-58.0588745"/>
      <point x="244" y="-68" type="curve"/>
      <point x="244" y="-192" type="line"/>
      <point x="244" y="-201.9411255"/>
      <point x="252.0588745" y="-210"/>
    </contour>
  </outline>
</glyph>
<glyph name="uni0447" format="2">
  <advance width="600"/>
  <unicode hex="0447"/>
  <outline>
    <contour>
      <point x="76" y="250" type="curve"/>
      <point x="172" y="250" type="line"/>
      <point x="181.9411255" y="250"/>
      <point x="190" y="258.0588745"/>
      <point x="190" y="268" type="curve"/>
      <point x="190" y="537" type="line"/>
      <point x="190" y="546.9411255"/>
      <point x="181.9411255" y="555"/>
      <point x="172" y="555" type="curve"/>
      <point x="76" y="555" type="line"/>
      <point x="66.0588745" y="555"/>
      <point x="58" y="546.9411255"/>
      <point x="58" y="537" type="curve"/>
      <point x="58" y="268" type="line"/>
      <point x="58" y="258.0588745"/>
      <point x="66.0588745" y="250"/>
    </contour>
    <contour>
      <point x="262" y="0" type="curve"/>
      <point x="358" y="0" type="line"/>
      <point x="367.9411255" y="0"/>
      <point x="376" y="8.0588745"/>
      <point x="376" y="18" type="curve"/>
      <point x="376" y="537" type="line"/>
      <point x="376" y="546.9411255"/>
      <point x="367.9411255" y="555"/>
      <point x="358" y="555" type="curve"/>
      <point x="262" y="555" type="line"/>
      <point x="252.0588745" y="555"/>
      <point x="244" y="546.9411255"/>
      <point x="244" y="537" type="curve"/>
      <point x="244" y="18" type="line"/>
      <point x="244" y="8.0588745"/>
      <point x="252.0588745" y="0"/>
    </contour>
    <contour>
      <point x="76" y="220" type="curve"/>
      <point x="422" y="220" type="line"/>
      <point x="431.9411255" y="220"/>
      <point x="440" y="228.0588745"/>
      <point x="440" y="238" type="curve"/>
      <point x="440" y="334" type="line"/>
      <point x="440" y="343.9411255"/>
      <point x="431.9411255" y="352"/>
      <point x="422" y="352" type="curve"/>
      <point x="76" y="352" type="line"/>
      <point x="66.0588745" y="352"/>
      <point x="58" y="343.9411255"/>
      <point x="58" y="334" type="curve"/>
      <point x="58" y="238" type="line"/>
      <point x="58" y="228.0588745"/>
      <point x="66.0588745" y="220"/>
    </contour>
  </outline>
</glyph>
<glyph name="uni0449" format="2">
  <advance width="600"/>
  <unicode hex="0449"/>
  <outline>
    <contour>
      <point x="76" y="0" type="curve"/>
      <point x="172" y="0" type="line"/>
      <point x="181.9411255" y="0"/>
      <point x="190" y="8.0588745"/>
      <point x="190" y="18" type="curve"/>
      <point x="190" y="537" type="line"/>
      <point x="190" y="546.9411255"/>
      <point x="181.9411255" y="555"/>
      <point x="172" y="555" type="curve"/>
      <point x="76" y="555" type="line"/>
      <point x="66.0588745" y="555"/>
      <point x="58" y="546.9411255"/>
      <point x="58" y="537" type="curve"/>
      <point x="58" y="18" type="line"/>
      <point x="58" y="8.0588745"/>
      <point x="66.0588745" y="0"/>
    </contour>
    <contour>
      <point x="236" y="0" type="curve"/>
      <point x="332" y="0" type="line"/>
      <point x="341.9411255" y="0"/>
      <point x="350" y="8.0588745"/>
      <point x="350" y="18" type="curve"/>
      <point x="350" y="537" type="line"/>
      <point x="350" y="546.9411255"/>
      <point x="341.9411255" y="555"/>
      <point x="332" y="555" type="curve"/>
      <point x="236" y="555" type="line"/>
      <point x="226.0588745" y="555"/>
      <point x="218" y="546.9411255"/>
      <point x="218" y="537" type="curve"/>
      <point x="218" y="18" type="line"/>
      <point x="218" y="8.0588745"/>
      <point x="226.0588745" y="0"/>
    </contour>
    <contour>
      <point x="262" y="0" type="curve"/>
      <point x="358" y="0" type="line"/>
      <point x="367.9411255" y="0"/>
      <point x="376" y="8.0588745"/>
      <point x="376" y="18" type="curve"/>
      <point x="376" y="537" type="line"/>
      <point x="376" y="546.9411255"/>
      <point x="367.9411255" y="555"/>
      <point x="358" y="555" type="curve"/>
      <point x="262" y="555" type="line"/>
      <point x="252.0588745" y="555"/>
      <point x="244" y="546.9411255"/>
      <point x="244" y="537" type="curve"/>
      <point x="244" y="18" type="line"/>
      <point x="244" y="8.0588745"/>
      <point x="252.0588745" y="0"/>
    </contour>
    <contour>
      <point x="58" y="0" type="line"/>
      <point x="440" y="0" type="line"/>
      <point x="440" y="132" type="line"/>
      <point x="58" y="132" type="line"/>
    </contour>
    <contour>
      <point x="262" y="-210" type="curve"/>
      <point x="358" y="-210" type="line"/>
      <point x="367.9411255" y="-210"/>
      <point x="376" y="-201.9411255"/>
      <point x="376" y="-192" type="curve"/>
      <point x="376" y="-68" type="line"/>
      <point x="376" y="-58.0588745"/>
      <point x="367.9411255" y="-50"/>
      <point x="358" y="-50" type="curve"/>
      <point x="262" y="-50" type="line"/>
      <point x="252.0588745" y="-50"/>
      <point x="244" y="-58.0588745"/>
      <point x="244" y="-68" type="curve"/>
      <point x="244" y="-192" type="line"/>
      <point x="244" y="-201.9411255"/>
      <point x="252.0588745" y="-210"/>
    </contour>
  </outline>
</glyph>
<glyph name="uni044E" format="2">
  <advance width="600"/>
  <unicode hex="044E"/>
  <outline>
    <contour>
      <point x="72" y="0" type="curve"/>
      <point x="168" y="0" type="line"/>
      <point x="177.9411255" y="0"/>
      <point x="186" y="8.0588745"/>
      <point x="186" y="18" type="curve"/>
      <point x="186" y="537" type="line"/>
      <point x="186" y="546.9411255"/>
      <point x="177.9411255" y="555"/>
      <point x="168" y="555" type="curve"/>
      <point x="72" y="555" type="line"/>
      <point x="62.0588745" y="555"/>
      <point x="54" y="546.9411255"/>
      <point x="54" y="537" type="curve"/>
      <point x="54" y="18" type="line"/>
      <point x="54" y="8.0588745"/>
      <point x="62.0588745" y="0"/>
    </contour>
    <contour>
      <point x="72" y="246" type="curve"/>
      <point x="156" y="246" type="line"/>
      <point x="165.9411255" y="246"/>
      <point x="174" y="254.0588745"/>
      <point x="174" y="264" type="curve"/>
      <point x="174" y="360" type="line"/>
      <point x="174" y="369.9411255"/>
      <point x="165.9411255" y="378"/>
      <point x="156" y="378" type="curve"/>
      <point x="72" y="378" type="line"/>
      <point x="62.0588745" y="378"/>
      <point x="54" y="369.9411255"/>
      <point x="54" y="360" type="curve"/>
      <point x="54" y="264" type="line"/>
      <point x="54" y="254.0588745"/>
      <point x="62.0588745" y="246"/>
    </contour>
    <contour>
      <point x="432" y="278" type="curve"/>
      <point x="432" y="412.757479"/>
      <point x="375.5878785" y="522"/>
      <point x="306" y="522" type="curve"/>
      <point x="236.4121215" y="522"/>
      <point x="180" y="412.757479"/>
      <point x="180" y="278" type="curve"/>
      <point x="180" y="143.242521"/>
      <point x="236.4121215" y="34"/>
      <point x="306" y="34" type="curve"/>
      <point x="375.5878785" y="34"/>
      <point x="432" y="143.242521"/>
    </contour>
    <contour>
      <point x="314" y="278" type="curve"/>
      <point x="314" y="216.14410800000002"/>
      <point x="310.418278" y="166"/>
      <point x="306" y="166" type="curve"/>
      <point x="301.581722" y="166"/>
      <point x="298" y="216.14410800000002"/>
      <point x="298" y="278" type="curve"/>
      <point x="298" y="339.855892"/>
      <point x="301.581722" y="390"/>
      <point x="306" y="390" type="curve"/>
      <point x="310.418278" y="390"/>
      <point x="314" y="339.855892"/>
    </contour>
  </outline>
</glyph>
<glyph name="uni044F" format="2">
  <advance width="600"/>
  <unicode hex="044F"/>
  <outline>
    <contour>
      <point x="262" y="0" type="curve"/>
      <point x="358" y="0" type="line"/>
      <point x="367.9411255" y="0"/>
      <point x="376" y="8.0588745"/>
      <point x="376" y="18" type="curve"/>
      <point x="376" y="537" type="line"/>
      <point x="376" y="546.9411255"/>
      <point x="367.9411255" y="555"/>
      <point x="358" y="555" type="curve"/>
      <point x="262" y="555" type="line"/>
      <point x="252.0588745" y="555"/>
      <point x="244" y="546.9411255"/>
      <point x="244" y="537" type="curve"/>
      <point x="244" y="18" type="line"/>
      <point x="244" y="8.0588745"/>
      <point x="252.0588745" y="0"/>
    </contour>
    <contour>
      <point x="398" y="398" type="curve"/>
      <point x="398" y="480.8427125"/>
      <point x="329.947282" y="548"/>
      <point x="246" y="548" type="curve"/>
      <point x="162.052718" y="548"/>
      <point x="94" y="480.8427125"/>
      <point x="94" y="398" type="curve"/>
      <point x="94" y="315.1572875"/>
      <point x="162.052718" y="248"/>
      <point x="246" y="248" type="curve"/>
      <point x="329.947282" y="248"/>
      <point x="398" y="315.1572875"/>
    </contour>
    <contour>
      <point x="266" y="398" type="curve"/>
      <point x="266" y="388.0588745"/>
      <point x="257.045695" y="380"/>
      <point x="246" y="380" type="curve"/>
      <point x="234.954305" y="380"/>
      <point x="226" y="388.0588745"/>
      <point x="226" y="398" type="curve"/>
      <point x="226" y="407.9411255"/>
      <point x="234.954305" y="416"/>
      <point x="246" y="416" type="curve"/>
      <point x="257.045695" y="416"/>
      <point x="266" y="407.9411255"/>
    </contour>
    <contour>
      <point x="304.502864803653" y="208.77853135360286" type="line"/>
      <point x="136.50286480365298" y="-37.22146864639715" type="line"/>
      <point x="27.49713519634703" y="37.22146864639715" type="line"/>
      <point x="195.49713519634702" y="283.22146864639717" type="line"/>
    </contour>
  </outline>
</glyph>
<glyph name="uni04C2" format="2">
  <advance width="600"/>
  <unicode hex="04C2"/>
  <outline>
    <contour>
      <point x="202.0" y="0" type="curve"/>
      <point x="298.0" y="0" type="line"/>
      <point x="307.9411255" y="0"/>
      <point x="316.0" y="8.0588745"/>
      <point x="316.0" y="18" type="curve"/>
      <point x="316.0" y="537" type="line"/>
      <point x="316.0" y="546.9411255"/>
      <point x="307.9411255" y="555"/>
      <point x="298.0" y="555" type="curve"/>
      <point x="202.0" y="555" type="line"/>
      <point x="192.0588745" y="555"/>
      <point x="184.0" y="546.9411255"/>
      <point x="184.0" y="537" type="curve"/>
      <point x="184.0" y="18" type="line"/>
      <point x="184.0" y="8.0588745"/>
      <point x="192.0588745" y="0"/>
    </contour>
    <contour>
      <point x="125.37144494382547" y="590.9166129365354" type="line"/>
      <point x="485.37144494382545" y="35.91661293653544" type="line"/>
      <point x="374.62855505617455" y="-35.91661293653544" type="line"/>
      <point x="14.628555056174534" y="519.0833870634646" type="line"/>
    </contour>
    <contour>
      <point x="485.37144494382545" y="519.0833870634646" type="line"/>
      <point x="125.37144494382547" y="-35.91661293653544" type="line"/>
      <point x="14.628555056174534" y="35.91661293653544" type="line"/>
      <point x="374.62855505617455" y="590.9166129365354" type="line"/>
    </contour>
    <contour>
      <point x="364.0" y="615" type="curve"/>
      <point x="364.0" y="595.67003375"/>
      <point x="335.346224" y="580"/>
      <point x="300.0" y="580" type="curve"/>
      <point x="264.653776" y="580"/>
      <point x="236.0" y="595.67003375"/>
      <point x="236.0" y="615" type="curve"/>
      <point x="236.0" y="634.32996625"/>
      <point x="264.653776" y="650"/>
      <point x="300.0" y="650" type="curve"/>
      <point x="335.346224" y="650"/>
      <point x="364.0" y="634.32996625"/>
    </contour>
    <contour>
      <point x="230.0" y="579" type="line"/>
      <point x="370.0" y="579" type="line"/>
      <point x="370.0" y="617" type="line"/>
      <point x="230.0" y="617" type="line"/>
    </contour>
  </outline>
</glyph>
<glyph name="uni04DC" format="2">
  <advance width="600"/>
  <unicode hex="04DC"/>
  <outline>
    <contour>
      <point x="202.0" y="0" type="curve"/>
      <point x="298.0" y="0" type="line"/>
      <point x="307.9411255" y="0"/>
      <point x="316.0" y="8.0588745"/>
      <point x="316.0" y="18" type="curve"/>
      <point x="316.0" y="682" type="line"/>
      <point x="316.0" y="691.9411255"/>
      <point x="307.9411255" y="700"/>
      <point x="298.0" y="700" type="curve"/>
      <point x="202.0" y="700" type="line"/>
      <point x="192.0588745" y="700"/>
      <point x="184.0" y="691.9411255"/>
      <point x="184.0" y="682" type="curve"/>
      <point x="184.0" y="18" type="line"/>
      <point x="184.0" y="8.0588745"/>
      <point x="192.0588745" y="0"/>
    </contour>
    <contour>
      <point x="132.96465257754122" y="729.6507967247064" type="line"/>
      <point x="484.9646525775412" y="29.65079672470644" type="line"/>
      <point x="367.0353474224588" y="-29.65079672470644" type="line"/>
      <point x="15.035347422458784" y="670.3492032752936" type="line"/>
    </contour>
    <contour>
      <point x="484.9646525775412" y="670.3492032752936" type="line"/>
      <point x="132.96465257754122" y="-29.65079672470644" type="line"/>
      <point x="15.035347422458784" y="29.65079672470644" type="line"/>
      <point x="367.0353474224588" y="729.6507967247064" type="line"/>
    </contour>
    <contour>
      <point x="300.5" y="764" type="curve"/>
      <point x="300.5" y="785.262962875"/>
      <point x="283.26296287499997" y="802.5"/>
      <point x="262.0" y="802.5" type="curve"/>
      <point x="240.737037125" y="802.5"/>
      <point x="223.5" y="785.262962875"/>
      <point x="223.5" y="764" type="curve"/>
      <point x="223.5" y="742.737037125"/>
      <point x="240.737037125" y="725.5"/>
      <point x="262.0" y="725.5" type="curve"/>
      <point x="283.26296287499997" y="725.5"/>
      <point x="300.5" y="742.737037125"/>
    </contour>
    <contour>
      <point x="376.5" y="764" type="curve"/>
      <point x="376.5" y="785.262962875"/>
      <point x="359.26296287499997" y="802.5"/>
      <point x="338.0" y="802.5" type="curve"/>
      <point x="316.73703712500003" y="802.5"/>
      <point x="299.5" y="785.262962875"/>
      <point x="299.5" y="764" type="curve"/>
      <point x="299.5" y="742.737037125"/>
      <point x="316.73703712500003" y="725.5"/>
      <point x="338.0" y="725.5" type="curve"/>
      <point x="359.26296287499997" y="725.5"/>
      <point x="376.5" y="742.737037125"/>
    </contour>
  </outline>
</glyph>
<glyph name="uni04DD" format="2">
  <advance width="600"/>
  <unicode hex="04DD"/>
  <outline>
    <contour>
      <point x="202.0" y="0" type="curve"/>
      <point x="298.0" y="0" type="line"/>
      <point x="307.9411255" y="0"/>
      <point x="316.0" y="8.0588745"/>
      <point x="316.0" y="18" type="curve"/>
      <point x="316.0" y="537" type="line"/>
      <point x="316.0" y="546.9411255"/>
      <point x="307.9411255" y="555"/>
      <point x="298.0" y="555" type="curve"/>
      <point x="202.0" y="555" type="line"/>
      <point x="192.0588745" y="555"/>
      <point x="184.0" y="546.9411255"/>
      <point x="184.0" y="537" type="curve"/>
      <point x="184.0" y="18" type="line"/>
      <point x="184.0" y="8.0588745"/>
      <point x="192.0588745" y="0"/>
    </contour>
    <contour>
      <point x="125.37144494382547" y="590.9166129365354" type="line"/>
      <point x="485.37144494382545" y="35.91661293653544" type="line"/>
      <point x="374.62855505617455" y="-35.91661293653544" type="line"/>
      <point x="14.628555056174534" y="519.0833870634646" type="line"/>
    </contour>
    <contour>
      <point x="485.37144494382545" y="519.0833870634646" type="line"/>
      <point x="125.37144494382547" y="-35.91661293653544" type="line"/>
      <point x="14.628555056174534" y="35.91661293653544" type="line"/>
      <point x="374.62855505617455" y="590.9166129365354" type="line"/>
    </contour>
    <contour>
      <point x="300.5" y="615" type="curve"/>
      <point x="300.5" y="636.262962875"/>
      <point x="283.26296287499997" y="653.5"/>
      <point x="262.0" y="653.5" type="curve"/>
      <point x="240.737037125" y="653.5"/>
      <point x="223.5" y="636.262962875"/>
      <point x="223.5" y="615" type="curve"/>
      <point x="223.5" y="593.737037125"/>
      <point x="240.737037125" y="576.5"/>
      <point x="262.0" y="576.5" type="curve"/>
      <point x="283.26296287499997" y="576.5"/>
      <point x="300.5" y="593.737037125"/>
    </contour>
    <contour>
      <point x="376.5" y="615" type="curve"/>
      <point x="376.5" y="636.262962875"/>
      <point x="359.26296287499997" y="653.5"/>
      <point x="338.0" y="653.5" type="curve"/>
      <point x="316.73703712500003" y="653.5"/>
      <point x="299.5" y="636.262962875"/>
      <point x="299.5" y="615" type="curve"/>
      <point x="299.5" y="593.737037125"/>
      <point x="316.73703712500003" y="576.5"/>
      <point x="338.0" y="576.5" type="curve"/>
      <point x="359.26296287499997" y="576.5"/>
      <point x="376.5" y="593.737037125"/>
    </contour>
  </outline>
</glyph>
